<?xml version="1.0" encoding="utf-8"?>
<!-- Generator: Adobe Illustrator 24.0.0, SVG Export Plug-In . SVG Version: 6.00 Build 0)  -->
<svg version="1.1" id="Capa_1" xmlns="http://www.w3.org/2000/svg" xmlns:xlink="http://www.w3.org/1999/xlink" x="0px" y="0px"
	 viewBox="0 0 11 13" style="enable-background:new 0 0 11 13;" xml:space="preserve">
<style type="text/css">
	.st0{fill:#FFB81C;}
	.st1{fill:#C1C1C1;}
	.st2{fill:none;}
	.st3{fill-rule:evenodd;clip-rule:evenodd;fill:#1D1D1B;}
</style>
<g>
	<g>
		<path class="st0" d="M5.7,5.4l0.1-1.3c0-0.1-0.1-0.2-0.1-0.3c-0.1-0.1-0.3-0.1-0.5,0C5.1,3.9,5,4,5,4.1l0.1,1.3
			c0,0.1,0.1,0.2,0.1,0.2c0.1,0,0.2,0.1,0.3,0C5.6,5.5,5.7,5.5,5.7,5.4z"/>
		<path class="st0" d="M5.6,7.8l0.1,1.3c0,0.1-0.1,0.2-0.1,0.3c-0.1,0.1-0.3,0.1-0.5,0C5.1,9.3,5,9.2,5,9.1l0.1-1.3
			c0-0.1,0.1-0.2,0.1-0.2c0.1,0,0.2-0.1,0.3,0C5.6,7.6,5.6,7.7,5.6,7.8z"/>
		<path class="st0" d="M4.5,7.4L3.4,8.1c-0.1,0.1-0.2,0.1-0.3,0C3,8.1,2.9,7.9,2.9,7.7C2.9,7.6,3,7.5,3,7.5L4.3,7c0.1,0,0.2,0,0.3,0
			c0.1,0,0.1,0.1,0.1,0.2C4.6,7.3,4.6,7.4,4.5,7.4z"/>
		<path class="st0" d="M6.6,6.2l1.2-0.6c0.1-0.1,0.2-0.2,0.2-0.3c0-0.1-0.1-0.3-0.3-0.4c-0.1-0.1-0.2,0-0.3,0L6.3,5.8
			C6.2,5.9,6.2,5.9,6.2,6c0,0.1,0.1,0.2,0.2,0.2C6.4,6.3,6.5,6.3,6.6,6.2z"/>
		<path class="st0" d="M4.5,5.8L3.4,5C3.3,5,3.2,5,3.1,5C3,5.1,2.9,5.2,2.9,5.4C2.9,5.5,3,5.6,3,5.7l1.2,0.5c0.1,0,0.2,0,0.3,0
			c0.1,0,0.1-0.1,0.1-0.2C4.6,5.9,4.6,5.8,4.5,5.8z"/>
		<path class="st0" d="M6.3,7.3l1.1,0.8c0.1,0.1,0.2,0.1,0.3,0C7.8,8.1,7.9,8,7.9,7.7c0-0.1-0.1-0.2-0.2-0.2L6.5,6.9
			c-0.1,0-0.2,0-0.3,0C6.2,6.9,6.2,7,6.2,7.1C6.2,7.2,6.2,7.3,6.3,7.3z"/>
	</g>
	<path class="st1" d="M5.1,3.7c0-0.2,0-0.5,0-0.7c0-0.4,0-0.7,0-1.1c0-0.1,0-0.1,0.1-0.1c0.1,0,0.2,0,0.3,0c0.1,0,0.1,0,0.1,0.1
		c0,0.1,0,0.2,0,0.3c0,0,0,0,0,0c0,0,0-0.1,0-0.1c0.1-0.2,0.3-0.3,0.5-0.3c0.1,0,0.1,0,0.1,0.1c0,0.1,0,0.2,0,0.4c0,0-0.1,0-0.1,0
		c-0.3,0-0.5,0.2-0.5,0.5c0,0.3,0,0.6,0,0.9c0,0.1,0,0.1-0.1,0.1C5.4,3.7,5.3,3.7,5.1,3.7z"/>
	<path class="st1" d="M5.1,11.3c0-0.2,0-0.5,0-0.7c0-0.4,0-0.7,0-1.1c0-0.1,0-0.1,0.1-0.1c0.1,0,0.2,0,0.3,0c0.1,0,0.1,0,0.1,0.1
		c0,0.1,0,0.2,0,0.3c0,0,0,0,0,0c0,0,0-0.1,0-0.1c0.1-0.2,0.3-0.3,0.5-0.3c0.1,0,0.1,0,0.1,0.1c0,0.1,0,0.2,0,0.4c0,0-0.1,0-0.1,0
		c-0.3,0-0.5,0.2-0.5,0.5c0,0.3,0,0.6,0,0.9c0,0.1,0,0.1-0.1,0.1C5.4,11.3,5.3,11.3,5.1,11.3z"/>
	<path class="st1" d="M8,6.7C8,6.5,8,6.2,8,6c0-0.4,0-0.7,0-1.1c0-0.1,0-0.1,0.1-0.1c0.1,0,0.2,0,0.3,0c0.1,0,0.1,0,0.1,0.1
		c0,0.1,0,0.2,0,0.3c0,0,0,0,0,0c0,0,0-0.1,0-0.1C8.6,4.9,8.8,4.8,9,4.8c0.1,0,0.1,0,0.1,0.1c0,0.1,0,0.2,0,0.4c0,0-0.1,0-0.1,0
		c-0.3,0-0.5,0.2-0.5,0.5c0,0.3,0,0.6,0,0.9c0,0.1,0,0.1-0.1,0.1C8.3,6.7,8.1,6.7,8,6.7z"/>
	<path class="st1" d="M1.8,6.7c0-0.2,0-0.5,0-0.7c0-0.4,0-0.7,0-1.1c0-0.1,0-0.1,0.1-0.1c0.1,0,0.2,0,0.3,0c0.1,0,0.1,0,0.1,0.1
		c0,0.1,0,0.2,0,0.3c0,0,0,0,0,0c0,0,0-0.1,0-0.1c0.1-0.2,0.3-0.3,0.5-0.3c0.1,0,0.1,0,0.1,0.1c0,0.1,0,0.2,0,0.4c0,0-0.1,0-0.1,0
		c-0.3,0-0.5,0.2-0.5,0.5c0,0.3,0,0.6,0,0.9c0,0.1,0,0.1-0.1,0.1C2.1,6.7,2,6.7,1.8,6.7z"/>
	<g>
		<g>
			<g>
				<g>
					<g>
						<g>
							<rect x="-0.1" y="6.5" class="st2" width="3.7" height="3"/>
						</g>
						<rect x="1.6" y="6.8" class="st3" width="0.4" height="0.6"/>
						<rect x="1.6" y="7.8" class="st3" width="0.4" height="0.6"/>
						<rect x="1.6" y="8.8" class="st3" width="0.4" height="0.6"/>
					</g>
				</g>
				<g>
					<g>
						<g>
							<rect x="-0.1" y="3.5" class="st2" width="3.7" height="3"/>
						</g>
						<rect x="1.6" y="3.7" class="st3" width="0.4" height="0.6"/>
						<rect x="1.6" y="4.7" class="st3" width="0.4" height="0.6"/>
						<rect x="1.6" y="5.8" class="st3" width="0.4" height="0.6"/>
					</g>
				</g>
				<g>
					<g>
						<g>
							<rect x="3.6" y="-0.2" class="st2" width="3.7" height="3.7"/>
						</g>
						<rect x="6.3" y="1.5" class="st3" width="0.7" height="0.4"/>
						<rect x="5.1" y="1.5" class="st3" width="0.7" height="0.4"/>
						<rect x="3.9" y="1.5" class="st3" width="0.7" height="0.4"/>
					</g>
				</g>
				<g>
					<g>
						<g>
							<rect x="7.3" y="3.5" class="st2" width="3.7" height="3"/>
						</g>
						<rect x="8.9" y="5.8" class="st3" width="0.4" height="0.6"/>
						<rect x="8.9" y="4.8" class="st3" width="0.4" height="0.6"/>
						<rect x="8.9" y="3.7" class="st3" width="0.4" height="0.6"/>
					</g>
				</g>
				<g>
					<g>
						<g>
							<rect x="7.3" y="6.5" class="st2" width="3.7" height="3"/>
						</g>
						<rect x="8.9" y="8.8" class="st3" width="0.4" height="0.6"/>
						<rect x="8.9" y="7.8" class="st3" width="0.4" height="0.6"/>
						<rect x="8.9" y="6.8" class="st3" width="0.4" height="0.6"/>
					</g>
				</g>
				<g>
					<g>
						<g>
							<rect x="3.6" y="9.6" class="st2" width="3.7" height="3.7"/>
						</g>
						<rect x="3.9" y="11.2" class="st3" width="0.7" height="0.4"/>
						<rect x="5.1" y="11.2" class="st3" width="0.7" height="0.4"/>
						<rect x="6.3" y="11.2" class="st3" width="0.7" height="0.4"/>
					</g>
				</g>
				<g>
					<rect x="1.6" y="2.6" class="st3" width="0.4" height="0.6"/>
					<polygon class="st3" points="1.6,1.5 1.6,2.1 2,2.1 2,1.9 2.2,1.9 2.2,1.5 					"/>
					<rect x="2.7" y="1.5" class="st3" width="0.6" height="0.4"/>
				</g>
				<g>
					<rect x="7.6" y="1.5" class="st3" width="0.6" height="0.4"/>
					<polygon class="st3" points="9.3,1.5 8.7,1.5 8.7,1.9 8.9,1.9 8.9,2.1 9.3,2.1 					"/>
					<rect x="8.9" y="2.6" class="st3" width="0.4" height="0.6"/>
				</g>
				<g>
					<rect x="9" y="9.8" class="st3" width="0.4" height="0.6"/>
					<polygon class="st3" points="9.3,11.6 9.3,10.9 9,10.9 9,11.2 8.7,11.2 8.7,11.6 					"/>
					<rect x="7.6" y="11.2" class="st3" width="0.6" height="0.4"/>
				</g>
				<g>
					<rect x="2.8" y="11.2" class="st3" width="0.6" height="0.4"/>
					<polygon class="st3" points="1.6,11.6 2.3,11.6 2.3,11.2 2,11.2 2,11 1.6,11 					"/>
					<rect x="1.6" y="9.8" class="st3" width="0.4" height="0.6"/>
				</g>
			</g>
		</g>
	</g>
</g>
</svg>
