<?xml version="1.0" encoding="utf-8"?>
<!-- Generator: Adobe Illustrator 24.0.0, SVG Export Plug-In . SVG Version: 6.00 Build 0)  -->
<svg version="1.1" id="Capa_1" xmlns="http://www.w3.org/2000/svg" xmlns:xlink="http://www.w3.org/1999/xlink" x="0px" y="0px"
	 viewBox="0 0 32.2 36" style="enable-background:new 0 0 32.2 36;" xml:space="preserve">
<g>
	<path d="M18.5,11.2l0.6-7.8c0.1-0.6-0.3-1.2-0.8-1.5c-0.7-0.4-1.7-0.6-2.7,0.1c-0.5,0.3-0.8,0.9-0.7,1.5l0.8,7.8
		c0,0.5,0.3,0.9,0.7,1.2c0.4,0.2,0.9,0.3,1.5-0.2C18.3,12,18.5,11.6,18.5,11.2z"/>
	<path d="M18.4,25.1l0.6,7.8c0.1,0.6-0.3,1.2-0.8,1.5c-0.7,0.4-1.7,0.6-2.7-0.1c-0.5-0.3-0.8-0.9-0.7-1.5l0.8-7.8
		c0-0.5,0.3-0.9,0.7-1.2c0.4-0.2,0.9-0.3,1.5,0.2C18.2,24.3,18.4,24.7,18.4,25.1z"/>
	<path d="M11.7,23l-6.5,4.3c-0.5,0.3-1.2,0.4-1.7,0c-0.6-0.4-1.3-1.2-1.3-2.4c0-0.6,0.4-1.1,0.9-1.4l7.2-3.1
		c0.5-0.2,1.1-0.2,1.5,0.1c0.3,0.2,0.6,0.7,0.5,1.4C12.3,22.3,12.1,22.7,11.7,23z"/>
	<path d="M23.9,16l6.9-3.5c0.5-0.3,0.9-0.9,0.9-1.5c0-0.8-0.4-1.7-1.5-2.3c-0.5-0.3-1.2-0.2-1.7,0.1l-6.3,4.8
		c-0.4,0.3-0.7,0.8-0.6,1.4c0,0.4,0.3,0.9,0.9,1.1C23,16.3,23.5,16.2,23.9,16z"/>
	<path d="M11.7,13.3L5.2,9C4.7,8.7,4,8.7,3.5,9c-0.6,0.4-1.3,1.2-1.3,2.4c0,0.6,0.4,1.1,0.9,1.4l7.2,3.1c0.5,0.2,1.1,0.2,1.5-0.1
		c0.3-0.2,0.6-0.7,0.5-1.4C12.4,14,12.1,13.6,11.7,13.3z"/>
	<path d="M22.3,22.6l6.2,4.7c0.5,0.4,1.2,0.4,1.7,0.1c0.7-0.4,1.4-1.1,1.4-2.4c0-0.6-0.3-1.2-0.9-1.4l-7-3.5c-0.5-0.2-1-0.2-1.5,0
		c-0.4,0.2-0.7,0.6-0.6,1.3C21.7,22,21.9,22.4,22.3,22.6z"/>
</g>
</svg>
