<?xml version="1.0" encoding="utf-8"?>
<!-- Generator: Adobe Illustrator 24.0.0, SVG Export Plug-In . SVG Version: 6.00 Build 0)  -->
<svg version="1.1" id="Capa_1" xmlns="http://www.w3.org/2000/svg" xmlns:xlink="http://www.w3.org/1999/xlink" x="0px" y="0px"
	 viewBox="0 0 31 35" style="enable-background:new 0 0 31 35;" xml:space="preserve">
<style type="text/css">
	.st0{fill:#0079C5;}
</style>
<g>
	<path class="st0" d="M16.9,11l0.6-7.8c0.1-0.6-0.3-1.2-0.8-1.5C16,1.3,15,1.1,14,1.7c-0.5,0.3-0.8,0.9-0.7,1.5l0.8,7.8
		c0,0.5,0.3,0.9,0.7,1.2c0.4,0.2,0.9,0.3,1.5-0.2C16.6,11.8,16.8,11.4,16.9,11z"/>
	<path class="st0" d="M16.8,24.9l0.6,7.8c0.1,0.6-0.3,1.2-0.8,1.5c-0.7,0.4-1.7,0.6-2.7-0.1c-0.5-0.3-0.8-0.9-0.7-1.5l0.8-7.8
		c0-0.5,0.3-0.9,0.7-1.2c0.4-0.2,0.9-0.3,1.5,0.2C16.5,24.1,16.8,24.5,16.8,24.9z"/>
	<path class="st0" d="M10,22.8l-6.5,4.3c-0.5,0.3-1.2,0.4-1.7,0c-0.6-0.4-1.3-1.2-1.3-2.4c0-0.6,0.4-1.1,0.9-1.4l7.2-3.1
		c0.5-0.2,1.1-0.2,1.5,0.1c0.3,0.2,0.6,0.7,0.5,1.4C10.7,22.1,10.4,22.5,10,22.8z"/>
	<path class="st0" d="M22.2,15.8l6.9-3.5c0.5-0.3,0.9-0.9,0.9-1.5c0-0.8-0.4-1.7-1.5-2.3c-0.5-0.3-1.2-0.2-1.7,0.1l-6.3,4.8
		c-0.4,0.3-0.7,0.8-0.6,1.4c0,0.4,0.3,0.9,0.9,1.1C21.4,16,21.8,16,22.2,15.8z"/>
	<path class="st0" d="M10.1,13.1L3.6,8.8C3,8.5,2.4,8.5,1.9,8.8C1.2,9.2,0.5,10,0.6,11.2c0,0.6,0.4,1.1,0.9,1.4l7.2,3.1
		c0.5,0.2,1.1,0.2,1.5-0.1c0.3-0.2,0.6-0.7,0.5-1.4C10.7,13.7,10.4,13.3,10.1,13.1z"/>
	<path class="st0" d="M20.6,22.4l6.2,4.7c0.5,0.4,1.2,0.4,1.7,0.1c0.7-0.4,1.4-1.1,1.4-2.4c0-0.6-0.3-1.2-0.9-1.4l-7-3.5
		c-0.5-0.2-1-0.2-1.5,0c-0.4,0.2-0.7,0.6-0.6,1.3C20.1,21.8,20.3,22.2,20.6,22.4z"/>
</g>
</svg>
