<?xml version="1.0" encoding="utf-8"?>
<!-- Generator: Adobe Illustrator 24.0.0, SVG Export Plug-In . SVG Version: 6.00 Build 0)  -->
<svg version="1.1" id="Capa_1" xmlns="http://www.w3.org/2000/svg" xmlns:xlink="http://www.w3.org/1999/xlink" x="0px" y="0px"
	 viewBox="0 0 30.4 34.1" style="enable-background:new 0 0 30.4 34.1;" xml:space="preserve">
<style type="text/css">
	.st0{fill:#FFB81C;}
</style>
<g>
	<path class="st0" d="M16.5,10.3l0.6-7.8c0.1-0.6-0.3-1.2-0.8-1.5c-0.7-0.4-1.7-0.6-2.7,0.1c-0.5,0.3-0.8,0.9-0.7,1.5l0.8,7.8
		c0,0.5,0.3,0.9,0.7,1.2c0.4,0.2,0.9,0.3,1.5-0.2C16.3,11.2,16.5,10.8,16.5,10.3z"/>
	<path class="st0" d="M16.4,24.3l0.6,7.8c0.1,0.6-0.3,1.2-0.8,1.5c-0.7,0.4-1.7,0.6-2.7-0.1c-0.5-0.3-0.8-0.9-0.7-1.5l0.8-7.8
		c0-0.5,0.3-0.9,0.7-1.2c0.4-0.2,0.9-0.3,1.5,0.2C16.2,23.5,16.4,23.9,16.4,24.3z"/>
	<path class="st0" d="M9.7,22.2l-6.5,4.3c-0.5,0.3-1.2,0.4-1.7,0c-0.6-0.4-1.3-1.2-1.3-2.4c0-0.6,0.4-1.1,0.9-1.4l7.2-3.1
		c0.5-0.2,1.1-0.2,1.5,0.1c0.3,0.2,0.6,0.7,0.5,1.4C10.3,21.5,10.1,21.9,9.7,22.2z"/>
	<path class="st0" d="M21.9,15.2l6.9-3.5c0.5-0.3,0.9-0.9,0.9-1.5c0-0.8-0.4-1.7-1.5-2.3C27.7,7.6,27,7.7,26.5,8l-6.3,4.8
		c-0.4,0.3-0.7,0.8-0.6,1.4c0,0.4,0.3,0.9,0.9,1.1C21,15.4,21.5,15.4,21.9,15.2z"/>
	<path class="st0" d="M9.7,12.5L3.2,8.2C2.7,7.9,2,7.9,1.5,8.2c-0.6,0.4-1.3,1.2-1.3,2.4c0,0.6,0.4,1.1,0.9,1.4l7.2,3.1
		c0.5,0.2,1.1,0.2,1.5-0.1c0.3-0.2,0.6-0.7,0.5-1.4C10.3,13.1,10.1,12.7,9.7,12.5z"/>
	<path class="st0" d="M20.3,21.8l6.2,4.7c0.5,0.4,1.2,0.4,1.7,0.1c0.7-0.4,1.4-1.1,1.4-2.4c0-0.6-0.3-1.2-0.9-1.4l-7-3.5
		c-0.5-0.2-1-0.2-1.5,0c-0.4,0.2-0.7,0.6-0.6,1.3C19.7,21.1,19.9,21.6,20.3,21.8z"/>
</g>
</svg>
