<?xml version="1.0" encoding="utf-8"?>
<!-- Generator: Adobe Illustrator 24.0.0, SVG Export Plug-In . SVG Version: 6.00 Build 0)  -->
<svg version="1.1" id="Capa_1" xmlns="http://www.w3.org/2000/svg" xmlns:xlink="http://www.w3.org/1999/xlink" x="0px" y="0px"
	 viewBox="0 0 116 136.1" style="enable-background:new 0 0 116 136.1;" xml:space="preserve">
<style type="text/css">
	.st0{fill:#0079C5;}
</style>
<g>
	<path class="st0" d="M64.1,42.9l2.5-30.2c0.2-2.4-1-4.7-3.1-5.8C60.9,5.5,57,4.6,52.8,7.1c-2,1.2-3.1,3.5-2.9,5.8l3,30.4
		c0.2,1.9,1.2,3.7,2.9,4.6c1.5,0.9,3.5,1.2,5.9-0.6C63.1,46.2,64,44.6,64.1,42.9z"/>
	<path class="st0" d="M63.8,97.1l2.5,30.2c0.2,2.4-1,4.7-3.1,5.8c-2.6,1.4-6.4,2.3-10.6-0.2c-2-1.2-3.1-3.5-2.9-5.8l3-30.4
		c0.2-1.9,1.2-3.7,2.9-4.6c1.5-0.9,3.5-1.2,5.9,0.6C62.8,93.8,63.6,95.4,63.8,97.1z"/>
	<path class="st0" d="M37.6,88.7l-25.2,16.8c-2,1.3-4.6,1.4-6.6,0.1c-2.5-1.6-5.1-4.5-5-9.4c0.1-2.3,1.5-4.4,3.7-5.3l28-12.1
		c1.9-0.8,4.1-0.7,5.8,0.5c1.3,0.9,2.4,2.5,2,5.3C40,86.2,39,87.7,37.6,88.7z"/>
	<path class="st0" d="M84.9,61.8l27-13.7c2.1-1.1,3.5-3.3,3.3-5.7c-0.2-2.9-1.4-6.7-5.8-9c-2.1-1.1-4.6-0.8-6.5,0.6L78.7,52.4
		c-1.6,1.2-2.6,3.2-2.4,5.3c0.2,1.6,1,3.3,3.6,4.4C81.6,62.7,83.4,62.6,84.9,61.8z"/>
	<path class="st0" d="M37.7,51.2L12.5,34.6c-2-1.3-4.6-1.4-6.6-0.1c-2.5,1.6-5.1,4.5-5,9.4c0.1,2.3,1.5,4.4,3.7,5.3l28.1,12
		c1.9,0.8,4.1,0.7,5.8-0.5c1.3-0.9,2.4-2.5,2-5.3C40.1,53.7,39.2,52.2,37.7,51.2z"/>
	<path class="st0" d="M78.7,87.4l24.2,18.1c1.9,1.4,4.5,1.6,6.6,0.4c2.5-1.5,5.4-4.2,5.5-9.1c0.1-2.3-1.3-4.5-3.4-5.5L84.4,77.7
		c-1.8-0.9-4-0.9-5.8,0.2c-1.4,0.9-2.5,2.4-2.3,5.2C76.5,84.8,77.3,86.4,78.7,87.4z"/>
</g>
</svg>
