<?xml version="1.0" encoding="utf-8"?>
<!-- Generator: Adobe Illustrator 24.0.0, SVG Export Plug-In . SVG Version: 6.00 Build 0)  -->
<svg version="1.1" id="Capa_1" xmlns="http://www.w3.org/2000/svg" xmlns:xlink="http://www.w3.org/1999/xlink" x="0px" y="0px"
	 viewBox="0 0 88.56 22.68" style="enable-background:new 0 0 88.56 22.68;" xml:space="preserve">
<style type="text/css">
	.st0{fill:#0079C5;}
	.st1{fill:#FFBC00;}
</style>
<g>
	<g>
		<path class="st0" d="M11.86,14.57c0.07-0.32,0.14-0.65,0.2-0.97c0.47-2.34,0.95-4.68,1.42-7.02c0.24-1.2,0.25-1.2,1.47-1.2
			c0.38,0,0.76,0,1.21,0c-0.2,0.77-0.38,1.47-0.56,2.16c-0.82,3.1-1.64,6.2-2.46,9.3c-0.08,0.32-0.23,0.54-0.61,0.51
			c-0.37-0.02-0.74,0.02-1.1-0.03c-0.54-0.08-0.95-0.39-1.15-0.9c-0.15-0.38-0.28-0.77-0.36-1.17c-0.44-2.05-0.85-4.1-1.28-6.15
			C8.6,8.83,8.56,8.55,8.52,8.28c-0.04,0-0.08,0-0.12,0C8.36,8.44,8.31,8.61,8.28,8.78c-0.46,1.95-0.91,3.91-1.37,5.86
			c-0.18,0.77-0.38,1.54-0.56,2.31c-0.06,0.27-0.19,0.4-0.46,0.39c-0.08,0-0.17,0.02-0.25,0.03c-1.33,0.16-2.05-0.31-2.38-1.61
			C2.62,13.2,2,10.65,1.37,8.09c-0.22-0.88-0.43-1.75-0.66-2.7c0.84,0,1.62-0.01,2.41,0.02c0.08,0,0.2,0.22,0.23,0.35
			C3.62,7.1,3.88,8.44,4.13,9.79c0.29,1.54,0.57,3.09,0.86,4.63c0.01,0.07,0.06,0.14,0.16,0.33c0.14-0.64,0.25-1.15,0.37-1.67
			c0.55-2.43,1.11-4.85,1.65-7.28c0.06-0.29,0.17-0.44,0.51-0.43c0.61,0.03,1.22,0.02,1.83,0c0.28-0.01,0.4,0.09,0.45,0.37
			c0.23,1.19,0.5,2.38,0.74,3.57c0.33,1.66,0.64,3.33,0.96,4.99c0.02,0.09,0.06,0.17,0.09,0.26C11.79,14.57,11.83,14.57,11.86,14.57
			z"/>
		<path class="st0" d="M31.82,9.57c0.65-0.95,1.51-1.42,2.66-1.4c1.16,0.02,1.95,0.59,2.5,1.63c0.16-0.19,0.27-0.33,0.38-0.46
			c1.18-1.4,3.4-1.6,4.57-0.36c0.34,0.36,0.6,0.84,0.74,1.31c0.18,0.59,0.25,1.22,0.27,1.83c0.04,1.54,0,3.09,0.02,4.63
			c0.01,0.42-0.14,0.54-0.54,0.52c-0.45-0.03-0.91-0.02-1.36,0c-0.35,0.02-0.48-0.12-0.47-0.47c0.01-1.37,0.02-2.75,0-4.12
			c-0.01-0.49-0.04-1-0.16-1.47c-0.2-0.82-0.86-1.22-1.67-1.11c-0.72,0.1-1.34,0.78-1.34,1.53c-0.01,1.71-0.01,3.43,0,5.14
			c0,0.36-0.08,0.51-0.47,0.49c-0.51-0.03-1.02-0.02-1.53,0c-0.31,0.01-0.42-0.1-0.42-0.42c0.01-1.63,0.01-3.26,0-4.89
			c0-0.2-0.02-0.4-0.07-0.59c-0.21-0.88-0.69-1.29-1.49-1.28c-0.7,0.01-1.43,0.66-1.56,1.4c-0.05,0.31-0.08,0.62-0.08,0.93
			c-0.01,1.46-0.01,2.92,0,4.38c0,0.34-0.1,0.49-0.46,0.47c-0.51-0.02-1.02-0.01-1.53,0c-0.25,0-0.35-0.1-0.35-0.35
			c0.01-2.73,0.01-5.47,0-8.2c0-0.23,0.08-0.34,0.32-0.33c0.51,0.01,1.02,0.01,1.53,0c0.23,0,0.34,0.1,0.33,0.33
			c-0.01,0.26,0,0.52,0,0.79C31.72,9.52,31.77,9.54,31.82,9.57z"/>
		<path class="st0" d="M16.87,10.4c-0.14-0.43-0.3-0.82-0.37-1.23c-0.02-0.12,0.16-0.36,0.3-0.41c0.6-0.2,1.21-0.44,1.84-0.51
			c1.29-0.15,2.59-0.2,3.71,0.67c0.68,0.53,1.06,1.26,1.11,2.07c0.09,1.55,0.07,3.11,0.11,4.67c0.01,0.42,0.03,0.85,0.08,1.27
			c0.03,0.29-0.07,0.4-0.35,0.45c-0.83,0.15-1.44-0.11-1.86-0.84c-0.03-0.06-0.08-0.11-0.15-0.21c-0.14,0.12-0.26,0.23-0.38,0.34
			c-1.1,0.99-3.01,1.1-4.1,0.25c-1.5-1.16-1.31-3.62,0.33-4.59c1.1-0.65,2.32-0.8,3.55-0.89c0.48-0.04,0.51-0.08,0.41-0.53
			c-0.13-0.63-0.57-0.92-1.14-1.06c-0.93-0.22-1.8,0.05-2.65,0.38C17.16,10.28,17.03,10.34,16.87,10.4z M21.21,13.77
			c0-0.18,0.03-0.38-0.01-0.55c-0.03-0.12-0.18-0.29-0.27-0.29c-0.79,0.02-1.6,0.05-2.27,0.56c-0.5,0.38-0.67,1.03-0.42,1.6
			c0.24,0.54,0.77,0.82,1.39,0.73C20.72,15.65,21.21,15.01,21.21,13.77z"/>
		<path class="st0" d="M45.16,10.42c-0.14-0.46-0.29-0.88-0.39-1.31c-0.02-0.09,0.14-0.28,0.25-0.31c0.62-0.2,1.23-0.46,1.87-0.54
			c1.29-0.16,2.58-0.21,3.71,0.64c0.84,0.63,1.16,1.54,1.21,2.52c0.06,1.26,0.01,2.52,0.02,3.78c0.01,0.58,0.04,1.16,0.09,1.73
			c0.03,0.32-0.11,0.42-0.4,0.46c-0.83,0.13-1.39-0.13-1.8-0.86c-0.03-0.06-0.09-0.11-0.17-0.2c-0.14,0.12-0.25,0.23-0.37,0.34
			c-1.31,1.22-3.64,1.07-4.63-0.28c-0.76-1.04-0.59-2.79,0.36-3.66c0.52-0.48,1.13-0.81,1.83-0.94c0.76-0.14,1.53-0.26,2.31-0.33
			c0.35-0.03,0.4-0.18,0.36-0.46c-0.07-0.53-0.53-1-1.12-1.14c-1.01-0.23-1.93,0.07-2.85,0.45C45.36,10.33,45.28,10.36,45.16,10.42z
			 M49.5,13.74c0-0.15,0.04-0.33-0.01-0.49c-0.04-0.13-0.18-0.32-0.28-0.31c-0.78,0-1.56,0.06-2.24,0.54
			c-0.47,0.33-0.68,1.05-0.47,1.6c0.2,0.51,0.79,0.83,1.39,0.75C48.79,15.69,49.62,15.1,49.5,13.74z"/>
		<path class="st0" d="M59.96,10.28c0-1.47,0.01-2.94-0.01-4.42c0-0.36,0.09-0.52,0.48-0.49c0.48,0.03,0.96,0.02,1.45,0
			c0.26-0.01,0.35,0.09,0.35,0.35c-0.01,0.68,0.01,1.36-0.01,2.04c-0.01,0.33,0.11,0.46,0.45,0.44c0.47-0.02,0.94,0,1.4-0.01
			c0.26-0.01,0.36,0.09,0.35,0.35c-0.01,0.5-0.01,0.99,0,1.49c0.01,0.26-0.12,0.35-0.36,0.35c-0.48-0.01-0.97-0.02-1.45,0.02
			c-0.13,0.01-0.37,0.18-0.37,0.28c-0.01,1.26-0.05,2.52,0.05,3.77c0.07,0.91,0.6,1.24,1.51,1.1c0.4-0.06,0.53,0.05,0.49,0.43
			c-0.01,0.07,0.01,0.14,0.01,0.21c0.05,1.26,0.2,1.04-1.04,1.27c-0.33,0.06-0.68,0.05-1.02,0.01c-1.5-0.16-2.26-1.1-2.29-2.85
			C59.94,13.17,59.96,11.73,59.96,10.28z"/>
		<path class="st0" d="M25.31,11.31c0-1.81,0.01-3.62-0.01-5.44c0-0.39,0.11-0.53,0.51-0.5c0.48,0.03,0.96,0.02,1.45,0
			c0.26-0.01,0.38,0.07,0.38,0.36c-0.01,3.72-0.01,7.45,0,11.17c0,0.26-0.09,0.36-0.35,0.36c-0.52-0.01-1.05-0.01-1.57,0
			c-0.32,0.01-0.41-0.13-0.41-0.43C25.31,15,25.31,13.15,25.31,11.31z"/>
		<path class="st0" d="M53.58,17.26c0-1.14,0-2.21,0-3.29c0-1.71,0.01-3.43-0.01-5.14c0-0.34,0.08-0.49,0.45-0.47
			c0.41,0.03,0.82,0.02,1.23,0c0.31-0.01,0.44,0.09,0.42,0.41c-0.02,0.4,0,0.8,0,1.2c0.05,0.01,0.11,0.02,0.16,0.03
			c0.07-0.12,0.14-0.24,0.21-0.36c0.51-0.93,1.24-1.49,2.34-1.48c0.3,0,0.44,0.08,0.43,0.41c-0.02,0.59-0.01,1.18-0.01,1.8
			c-0.16,0-0.27,0-0.38,0c-1.52-0.06-2.4,0.76-2.42,2.3c-0.02,1.37-0.01,2.75,0,4.12c0,0.35-0.11,0.48-0.46,0.47
			C54.91,17.25,54.27,17.26,53.58,17.26z"/>
	</g>
	<g>
		<path class="st1" d="M78.75,7.06l0.39-4.84c0.03-0.38-0.16-0.75-0.51-0.94c-0.42-0.22-1.03-0.37-1.71,0.03
			c-0.32,0.19-0.5,0.56-0.47,0.93l0.48,4.88c0.03,0.31,0.2,0.59,0.47,0.74c0.24,0.14,0.57,0.19,0.95-0.1
			C78.59,7.6,78.73,7.34,78.75,7.06z"/>
		<path class="st1" d="M78.69,15.77l0.39,4.84c0.03,0.38-0.16,0.75-0.51,0.94c-0.42,0.22-1.03,0.37-1.71-0.03
			c-0.32-0.19-0.5-0.56-0.47-0.93l0.48-4.88c0.03-0.31,0.2-0.59,0.47-0.74c0.24-0.14,0.57-0.19,0.95,0.1
			C78.53,15.23,78.67,15.49,78.69,15.77z"/>
		<path class="st1" d="M74.49,14.41l-4.04,2.69c-0.32,0.21-0.74,0.22-1.06,0.01c-0.39-0.26-0.83-0.72-0.8-1.51
			c0.01-0.38,0.24-0.71,0.59-0.86l4.49-1.95c0.3-0.13,0.65-0.11,0.92,0.08c0.21,0.15,0.38,0.41,0.33,0.85
			C74.88,14.01,74.73,14.26,74.49,14.41z"/>
		<path class="st1" d="M82.09,10.09l4.33-2.2c0.34-0.17,0.56-0.53,0.53-0.92c-0.03-0.47-0.22-1.07-0.92-1.44
			c-0.33-0.17-0.74-0.14-1.04,0.09l-3.9,2.97c-0.26,0.2-0.41,0.52-0.38,0.84c0.03,0.26,0.17,0.53,0.58,0.7
			C81.55,10.24,81.84,10.22,82.09,10.09z"/>
		<path class="st1" d="M74.51,8.4l-4.05-2.68c-0.32-0.21-0.74-0.22-1.06-0.01C69,5.98,68.57,6.44,68.6,7.23
			c0.01,0.38,0.25,0.71,0.59,0.86l4.5,1.93c0.3,0.13,0.65,0.11,0.92-0.08c0.21-0.15,0.38-0.41,0.32-0.85
			C74.9,8.8,74.74,8.56,74.51,8.4z"/>
		<path class="st1" d="M81.1,14.21l3.89,2.91c0.31,0.23,0.73,0.26,1.06,0.07c0.41-0.23,0.86-0.67,0.88-1.46
			c0.01-0.38-0.2-0.72-0.54-0.89l-4.38-2.19c-0.29-0.15-0.65-0.14-0.93,0.03c-0.22,0.14-0.41,0.38-0.37,0.83
			C80.73,13.79,80.87,14.04,81.1,14.21z"/>
	</g>
</g>
</svg>
