<?xml version="1.0" encoding="utf-8"?>
<!-- Generator: Adobe Illustrator 24.0.0, SVG Export Plug-In . SVG Version: 6.00 Build 0)  -->
<svg version="1.1" id="Capa_1" xmlns="http://www.w3.org/2000/svg" xmlns:xlink="http://www.w3.org/1999/xlink" x="0px" y="0px"
	 viewBox="0 0 246.3 104.6" style="enable-background:new 0 0 246.3 104.6;" xml:space="preserve">
<style type="text/css">
	.st0{fill:#0079C5;}
	.st1{fill:#C1C1C1;}
	.st2{fill:#FFBC00;}
	.st3{fill:none;}
	.st4{fill-rule:evenodd;clip-rule:evenodd;fill:#1D1D1B;}
</style>
<g>
	<path class="st0" d="M51,57.9c0.1-0.7,0.3-1.4,0.4-2.1c1-5.2,2.1-10.3,3.1-15.5c0.5-2.6,0.5-2.6,3.2-2.6c0.8,0,1.7,0,2.7,0
		c-0.4,1.7-0.8,3.2-1.2,4.7c-1.8,6.8-3.6,13.6-5.4,20.5c-0.2,0.7-0.5,1.2-1.3,1.1c-0.8-0.1-1.6,0-2.4-0.1c-1.2-0.2-2.1-0.8-2.5-2
		c-0.3-0.8-0.6-1.7-0.8-2.6c-1-4.5-1.9-9-2.8-13.5c-0.1-0.6-0.2-1.2-0.3-1.8c-0.1,0-0.1,0-0.3,0c-0.1,0.4-0.2,0.7-0.3,1.1
		c-1,4.3-2,8.6-3,12.9c-0.4,1.7-0.8,3.4-1.2,5.1c-0.1,0.5-0.5,0.9-1,0.9c-0.2,0-0.4,0-0.5,0.1c-2.9,0.4-4.5-0.7-5.2-3.5
		c-1.4-5.6-2.8-11.2-4.1-16.9c-0.5-1.9-0.9-3.9-1.5-5.9c1.8,0,3.6,0,5.3,0c0.2,0,0.4,0.5,0.5,0.8c0.6,3,1.2,5.9,1.7,8.9
		c0.6,3.4,1.3,6.8,1.9,10.2c0,0.2,0.1,0.3,0.3,0.7c0.3-1.4,0.6-2.5,0.8-3.7c1.2-5.3,2.4-10.7,3.6-16c0.1-0.6,0.4-1,1.1-0.9
		c1.3,0.1,2.7,0,4,0c0.6,0,0.9,0.2,1,0.8c0.5,2.6,1.1,5.2,1.6,7.9c0.7,3.7,1.4,7.3,2.1,11c0,0.2,0.1,0.4,0.2,0.6
		C50.8,57.9,50.9,57.9,51,57.9z"/>
	<path class="st0" d="M94.9,46.7c1.4-2.1,3.3-3.1,5.9-3.1c2.6,0.1,4.3,1.3,5.5,3.6c0.3-0.4,0.6-0.7,0.8-1c2.6-3.1,7.5-3.5,10.1-0.8
		c0.7,0.8,1.3,1.8,1.6,2.9c0.4,1.3,0.6,2.7,0.6,4c0.1,3.4,0,6.8,0,10.2c0,0.9-0.3,1.2-1.2,1.1c-1-0.1-2-0.1-3,0c-0.8,0-1-0.3-1-1
		c0-3,0-6,0-9.1c0-1.1-0.1-2.2-0.3-3.2c-0.4-1.8-1.9-2.7-3.7-2.4c-1.6,0.2-2.9,1.7-2.9,3.4c0,3.8,0,7.5,0,11.3c0,0.8-0.2,1.1-1,1.1
		c-1.1-0.1-2.2,0-3.4,0c-0.7,0-0.9-0.2-0.9-0.9c0-3.6,0-7.2,0-10.8c0-0.4-0.1-0.9-0.2-1.3c-0.5-1.9-1.5-2.8-3.3-2.8
		c-1.5,0-3.2,1.4-3.4,3.1c-0.1,0.7-0.2,1.4-0.2,2c0,3.2,0,6.4,0,9.6c0,0.8-0.2,1.1-1,1c-1.1-0.1-2.2,0-3.4,0c-0.6,0-0.8-0.2-0.8-0.8
		c0-6,0-12,0-18c0-0.5,0.2-0.7,0.7-0.7c1.1,0,2.2,0,3.4,0c0.5,0,0.7,0.2,0.7,0.7c0,0.6,0,1.2,0,1.7C94.7,46.6,94.8,46.7,94.9,46.7z"
		/>
	<path class="st0" d="M62,48.6c-0.3-0.9-0.7-1.8-0.8-2.7c-0.1-0.3,0.4-0.8,0.7-0.9c1.3-0.4,2.7-1,4-1.1c2.8-0.3,5.7-0.4,8.2,1.5
		c1.5,1.2,2.3,2.8,2.4,4.6c0.2,3.4,0.2,6.8,0.2,10.3c0,0.9,0.1,1.9,0.2,2.8c0.1,0.6-0.1,0.9-0.8,1c-1.8,0.3-3.2-0.2-4.1-1.9
		c-0.1-0.1-0.2-0.2-0.3-0.5c-0.3,0.3-0.6,0.5-0.8,0.7c-2.4,2.2-6.6,2.4-9,0.6c-3.3-2.6-2.9-8,0.7-10.1c2.4-1.4,5.1-1.8,7.8-2
		c1.1-0.1,1.1-0.2,0.9-1.2c-0.3-1.4-1.2-2-2.5-2.3c-2-0.5-4,0.1-5.8,0.8C62.6,48.3,62.4,48.4,62,48.6z M71.5,56c0-0.4,0.1-0.8,0-1.2
		c-0.1-0.3-0.4-0.6-0.6-0.6c-1.7,0-3.5,0.1-5,1.2c-1.1,0.8-1.5,2.3-0.9,3.5c0.5,1.2,1.7,1.8,3.1,1.6C70.5,60.1,71.5,58.7,71.5,56z"
		/>
	<path class="st0" d="M124.2,48.6c-0.3-1-0.6-1.9-0.9-2.9c0-0.2,0.3-0.6,0.5-0.7c1.4-0.4,2.7-1,4.1-1.2c2.8-0.4,5.7-0.5,8.2,1.4
		c1.8,1.4,2.5,3.4,2.7,5.5c0.1,2.8,0,5.5,0,8.3c0,1.3,0.1,2.5,0.2,3.8c0.1,0.7-0.2,0.9-0.9,1c-1.8,0.3-3.1-0.3-4-1.9
		c-0.1-0.1-0.2-0.2-0.4-0.4c-0.3,0.3-0.6,0.5-0.8,0.8c-2.9,2.7-8,2.4-10.2-0.6c-1.7-2.3-1.3-6.1,0.8-8.1c1.1-1.1,2.5-1.8,4-2.1
		c1.7-0.3,3.4-0.6,5.1-0.7c0.8-0.1,0.9-0.4,0.8-1c-0.1-1.2-1.2-2.2-2.5-2.5c-2.2-0.5-4.3,0.1-6.3,1
		C124.7,48.4,124.5,48.5,124.2,48.6z M133.8,55.9c0-0.3,0.1-0.7,0-1.1c-0.1-0.3-0.4-0.7-0.6-0.7c-1.7,0-3.4,0.1-4.9,1.2
		c-1,0.7-1.5,2.3-1,3.5c0.4,1.1,1.7,1.8,3.1,1.6C132.2,60.2,134,58.9,133.8,55.9z"/>
	<path class="st0" d="M156.8,48.3c0-3.2,0-6.5,0-9.7c0-0.8,0.2-1.1,1-1.1c1.1,0.1,2.1,0,3.2,0c0.6,0,0.8,0.2,0.8,0.8
		c0,1.5,0,3,0,4.5c0,0.7,0.3,1,1,1c1,0,2.1,0,3.1,0c0.6,0,0.8,0.2,0.8,0.8c0,1.1,0,2.2,0,3.3c0,0.6-0.3,0.8-0.8,0.8
		c-1.1,0-2.1,0-3.2,0c-0.3,0-0.8,0.4-0.8,0.6c0,2.8-0.1,5.5,0.1,8.3c0.2,2,1.3,2.7,3.3,2.4c0.9-0.1,1.2,0.1,1.1,0.9
		c0,0.2,0,0.3,0,0.5c0.1,2.8,0.4,2.3-2.3,2.8c-0.7,0.1-1.5,0.1-2.2,0c-3.3-0.4-5-2.4-5-6.3C156.8,54.7,156.8,51.5,156.8,48.3z"/>
	<path class="st0" d="M80.6,50.6c0-4,0-8,0-12c0-0.9,0.3-1.2,1.1-1.1c1.1,0.1,2.1,0,3.2,0c0.6,0,0.8,0.2,0.8,0.8
		c0,8.2,0,16.4,0,24.6c0,0.6-0.2,0.8-0.8,0.8c-1.2,0-2.3,0-3.5,0c-0.7,0-0.9-0.3-0.9-0.9C80.6,58.7,80.6,54.6,80.6,50.6z"/>
	<path class="st0" d="M142.8,63.7c0-2.5,0-4.9,0-7.2c0-3.8,0-7.5,0-11.3c0-0.7,0.2-1.1,1-1c0.9,0.1,1.8,0,2.7,0c0.7,0,1,0.2,0.9,0.9
		c0,0.9,0,1.7,0,2.6c0.2,0.1,0.2,0,0.3,0.1c0.2-0.3,0.3-0.5,0.5-0.8c1.1-2,2.7-3.3,5.2-3.3c0.7,0,1,0.2,0.9,0.9c-0.1,1.3,0,2.6,0,4
		c-0.4,0-0.6,0-0.8,0c-3.4-0.1-5.3,1.7-5.3,5.1c0,3,0,6,0,9.1c0,0.8-0.2,1.1-1,1C145.7,63.6,144.3,63.7,142.8,63.7z"/>
	<path class="st1" d="M193.5,93.2c0-2.5,0-4.9,0-7.2c0-3.8,0-7.5,0-11.3c0-0.7,0.2-1.1,1-1c0.9,0.1,1.8,0,2.7,0c0.7,0,1,0.2,0.9,0.9
		c0,0.9,0,1.7,0,2.6c0.2,0.1,0.2,0,0.3,0.1c0.2-0.3,0.3-0.5,0.5-0.8c1.1-2,2.7-3.3,5.2-3.3c0.7,0,1,0.2,0.9,0.9c-0.1,1.3,0,2.6,0,4
		c-0.4,0-0.6,0-0.8,0c-3.4-0.1-5.3,1.7-5.3,5.1c0,3,0,6,0,9.1c0,0.8-0.2,1.1-1,1C196.5,93.1,195.1,93.2,193.5,93.2z"/>
	<path class="st1" d="M236.3,55c-2.5,0-4.9,0-7.2,0c-3.8,0-7.5,0-11.3,0c-0.7,0-1.1-0.2-1-1c0.1-0.9,0-1.8,0-2.7
		c0-0.7,0.2-1,0.9-0.9c0.9,0,1.7,0,2.6,0c0.1-0.2,0-0.2,0.1-0.3c-0.3-0.2-0.5-0.3-0.8-0.5c-2-1.1-3.3-2.7-3.3-5.2
		c0-0.7,0.2-1,0.9-0.9c1.3,0.1,2.6,0,4,0c0,0.4,0,0.6,0,0.8c-0.1,3.4,1.7,5.3,5.1,5.3c3,0,6,0,9.1,0c0.8,0,1.1,0.2,1,1
		C236.3,52.1,236.3,53.5,236.3,55z"/>
	<path class="st1" d="M25.9,43.2c-2.5,0-4.9,0-7.2,0c-3.8,0-7.5,0-11.3,0c-0.7,0-1.1-0.2-1-1c0.1-0.9,0-1.8,0-2.7
		c0-0.7,0.2-1,0.9-0.9c0.9,0,1.7,0,2.6,0c0.1-0.2,0-0.2,0.1-0.3c-0.3-0.2-0.5-0.3-0.8-0.5c-2-1.1-3.3-2.7-3.3-5.2
		c0-0.7,0.2-1,0.9-0.9c1.3,0.1,2.6,0,4,0c0,0.4,0,0.6,0,0.8c-0.1,3.4,1.7,5.3,5.1,5.3c3,0,6,0,9.1,0c0.8,0,1.1,0.2,1,1
		C25.9,40.2,25.9,41.6,25.9,43.2z"/>
	<path class="st1" d="M193.8,28.1c0-2.5,0-4.9,0-7.2c0-3.8,0-7.5,0-11.3c0-0.7,0.2-1.1,1-1c0.9,0.1,1.8,0,2.7,0c0.7,0,1,0.2,0.9,0.9
		c0,0.9,0,1.7,0,2.6c0.2,0.1,0.2,0,0.3,0.1c0.2-0.3,0.3-0.5,0.5-0.8c1.1-2,2.7-3.3,5.2-3.3c0.7,0,1,0.2,0.9,0.9c-0.1,1.3,0,2.6,0,4
		c-0.4,0-0.6,0-0.8,0c-3.4-0.1-5.3,1.7-5.3,5.1c0,3,0,6,0,9.1c0,0.8-0.2,1.1-1,1C196.7,28.1,195.3,28.1,193.8,28.1z"/>
	<g>
		<path class="st2" d="M198.2,41.2l0.9-10.7c0.1-0.8-0.4-1.7-1.1-2.1c-0.9-0.5-2.3-0.8-3.8,0.1c-0.7,0.4-1.1,1.2-1,2l1.1,10.7
			c0.1,0.7,0.4,1.3,1,1.6c0.5,0.3,1.2,0.4,2.1-0.2C197.8,42.4,198.1,41.8,198.2,41.2z"/>
		<path class="st2" d="M198,60.4l0.9,10.7c0.1,0.8-0.4,1.7-1.1,2.1c-0.9,0.5-2.3,0.8-3.8-0.1c-0.7-0.4-1.1-1.2-1-2l1.1-10.7
			c0.1-0.7,0.4-1.3,1-1.6c0.5-0.3,1.2-0.4,2.1,0.2C197.7,59.2,198,59.8,198,60.4z"/>
		<path class="st2" d="M188.8,57.4l-8.9,5.9c-0.7,0.5-1.6,0.5-2.3,0c-0.9-0.6-1.8-1.6-1.8-3.3c0-0.8,0.5-1.6,1.3-1.9l9.9-4.3
			c0.7-0.3,1.4-0.2,2,0.2c0.5,0.3,0.8,0.9,0.7,1.9C189.6,56.5,189.3,57,188.8,57.4z"/>
		<path class="st2" d="M205.5,47.9L215,43c0.8-0.4,1.2-1.2,1.2-2c-0.1-1-0.5-2.4-2-3.2c-0.7-0.4-1.6-0.3-2.3,0.2l-8.6,6.5
			c-0.6,0.4-0.9,1.1-0.8,1.9c0.1,0.6,0.4,1.2,1.3,1.5C204.3,48.2,204.9,48.2,205.5,47.9z"/>
		<path class="st2" d="M188.8,44.2l-8.9-5.9c-0.7-0.5-1.6-0.5-2.3,0c-0.9,0.6-1.8,1.6-1.8,3.3c0,0.8,0.5,1.6,1.3,1.9l9.9,4.2
			c0.7,0.3,1.4,0.2,2-0.2c0.5-0.3,0.8-0.9,0.7-1.9C189.7,45,189.3,44.5,188.8,44.2z"/>
		<path class="st2" d="M203.3,56.9l8.6,6.4c0.7,0.5,1.6,0.6,2.3,0.2c0.9-0.5,1.9-1.5,1.9-3.2c0-0.8-0.4-1.6-1.2-2l-9.6-4.8
			c-0.6-0.3-1.4-0.3-2,0.1c-0.5,0.3-0.9,0.8-0.8,1.8C202.5,56,202.8,56.6,203.3,56.9z"/>
	</g>
	<g>
		<g>
			<g>
				<g>
					<g>
						<g>
							<rect x="-1.6" y="71.3" class="st3" width="15" height="14"/>
						</g>
						<rect x="5.4" y="72.4" class="st4" width="1.5" height="2.6"/>
						<rect x="5.4" y="77" class="st4" width="1.5" height="2.6"/>
						<rect x="5.4" y="81.7" class="st4" width="1.5" height="2.6"/>
					</g>
				</g>
				<g>
					<g>
						<g>
							<rect x="-1.6" y="57.3" class="st3" width="15" height="14"/>
						</g>
						<rect x="5.4" y="58.3" class="st4" width="1.5" height="2.6"/>
						<rect x="5.4" y="63" class="st4" width="1.5" height="2.6"/>
						<rect x="5.4" y="67.7" class="st4" width="1.5" height="2.6"/>
					</g>
				</g>
				<g>
					<g>
						<g>
							<rect x="-1.6" y="43.2" class="st3" width="15" height="14"/>
						</g>
						<rect x="5.4" y="44.3" class="st4" width="1.5" height="2.6"/>
						<rect x="5.4" y="48.9" class="st4" width="1.5" height="2.6"/>
						<rect x="5.4" y="53.6" class="st4" width="1.5" height="2.6"/>
					</g>
				</g>
				<g>
					<g>
						<g>
							<rect x="-1.6" y="29.2" class="st3" width="15" height="14"/>
						</g>
						<rect x="5.4" y="30.2" class="st4" width="1.5" height="2.6"/>
						<rect x="5.4" y="34.9" class="st4" width="1.5" height="2.6"/>
						<rect x="5.4" y="39.6" class="st4" width="1.5" height="2.6"/>
					</g>
				</g>
				<g>
					<g>
						<g>
							<rect x="-1.6" y="15.1" class="st3" width="15" height="14"/>
						</g>
						<rect x="5.4" y="16.2" class="st4" width="1.5" height="2.6"/>
						<rect x="5.4" y="20.9" class="st4" width="1.5" height="2.6"/>
						<rect x="5.4" y="25.5" class="st4" width="1.5" height="2.6"/>
					</g>
				</g>
				<g>
					<g>
						<g>
							<rect x="13.4" y="0.1" class="st3" width="13.4" height="15"/>
						</g>
						<rect x="23.4" y="7.1" class="st4" width="2.5" height="1.5"/>
						<rect x="18.9" y="7.1" class="st4" width="2.5" height="1.5"/>
						<rect x="14.4" y="7.1" class="st4" width="2.5" height="1.5"/>
					</g>
				</g>
				<g>
					<g>
						<g>
							<rect x="26.9" y="0.1" class="st3" width="13.4" height="15"/>
						</g>
						<rect x="36.8" y="7.1" class="st4" width="2.5" height="1.5"/>
						<rect x="32.3" y="7.1" class="st4" width="2.5" height="1.5"/>
						<rect x="27.9" y="7.1" class="st4" width="2.5" height="1.5"/>
					</g>
				</g>
				<g>
					<g>
						<g>
							<rect x="40.3" y="0.1" class="st3" width="13.4" height="15"/>
						</g>
						<rect x="50.3" y="7.1" class="st4" width="2.5" height="1.5"/>
						<rect x="45.8" y="7.1" class="st4" width="2.5" height="1.5"/>
						<rect x="41.3" y="7.1" class="st4" width="2.5" height="1.5"/>
					</g>
				</g>
				<g>
					<g>
						<g>
							<rect x="53.8" y="0.1" class="st3" width="13.4" height="15"/>
						</g>
						<rect x="63.7" y="7.1" class="st4" width="2.5" height="1.5"/>
						<rect x="59.2" y="7.1" class="st4" width="2.5" height="1.5"/>
						<rect x="54.8" y="7.1" class="st4" width="2.5" height="1.5"/>
					</g>
				</g>
				<g>
					<g>
						<g>
							<rect x="67.2" y="0.1" class="st3" width="13.4" height="15"/>
						</g>
						<rect x="77.2" y="7.1" class="st4" width="2.5" height="1.5"/>
						<rect x="72.7" y="7.1" class="st4" width="2.5" height="1.5"/>
						<rect x="68.2" y="7.1" class="st4" width="2.5" height="1.5"/>
					</g>
				</g>
				<g>
					<g>
						<g>
							<rect x="80.7" y="0.1" class="st3" width="13.4" height="15"/>
						</g>
						<rect x="90.6" y="7.1" class="st4" width="2.5" height="1.5"/>
						<rect x="86.1" y="7.1" class="st4" width="2.5" height="1.5"/>
						<rect x="81.7" y="7.1" class="st4" width="2.5" height="1.5"/>
					</g>
				</g>
				<g>
					<g>
						<g>
							<rect x="94.1" y="0.1" class="st3" width="13.4" height="15"/>
						</g>
						<rect x="104.1" y="7.1" class="st4" width="2.5" height="1.5"/>
						<rect x="99.6" y="7.1" class="st4" width="2.5" height="1.5"/>
						<rect x="95.1" y="7.1" class="st4" width="2.5" height="1.5"/>
					</g>
				</g>
				<g>
					<g>
						<g>
							<rect x="107.6" y="0.1" class="st3" width="13.4" height="15"/>
						</g>
						<rect x="117.5" y="7.1" class="st4" width="2.5" height="1.5"/>
						<rect x="113" y="7.1" class="st4" width="2.5" height="1.5"/>
						<rect x="108.6" y="7.1" class="st4" width="2.5" height="1.5"/>
					</g>
				</g>
				<g>
					<g>
						<g>
							<rect x="121" y="0.1" class="st3" width="13.4" height="15"/>
						</g>
						<rect x="131" y="7.1" class="st4" width="2.5" height="1.5"/>
						<rect x="126.5" y="7.1" class="st4" width="2.5" height="1.5"/>
						<rect x="122" y="7.1" class="st4" width="2.5" height="1.5"/>
					</g>
				</g>
				<g>
					<g>
						<g>
							<rect x="134.5" y="0.1" class="st3" width="13.4" height="15"/>
						</g>
						<rect x="144.4" y="7.1" class="st4" width="2.5" height="1.5"/>
						<rect x="139.9" y="7.1" class="st4" width="2.5" height="1.5"/>
						<rect x="135.5" y="7.1" class="st4" width="2.5" height="1.5"/>
					</g>
				</g>
				<g>
					<g>
						<g>
							<rect x="147.9" y="0.1" class="st3" width="13.4" height="15"/>
						</g>
						<rect x="157.9" y="7.1" class="st4" width="2.5" height="1.5"/>
						<rect x="153.4" y="7.1" class="st4" width="2.5" height="1.5"/>
						<rect x="148.9" y="7.1" class="st4" width="2.5" height="1.5"/>
					</g>
				</g>
				<g>
					<g>
						<g>
							<rect x="161.4" y="0.1" class="st3" width="13.4" height="15"/>
						</g>
						<rect x="171.3" y="7.1" class="st4" width="2.5" height="1.5"/>
						<rect x="166.8" y="7.1" class="st4" width="2.5" height="1.5"/>
						<rect x="162.4" y="7.1" class="st4" width="2.5" height="1.5"/>
					</g>
				</g>
				<g>
					<g>
						<g>
							<rect x="174.8" y="0.1" class="st3" width="13.4" height="15"/>
						</g>
						<rect x="184.8" y="7.1" class="st4" width="2.5" height="1.5"/>
						<rect x="180.3" y="7.1" class="st4" width="2.5" height="1.5"/>
						<rect x="175.8" y="7.1" class="st4" width="2.5" height="1.5"/>
					</g>
				</g>
				<g>
					<g>
						<g>
							<rect x="188.3" y="0.1" class="st3" width="13.4" height="15"/>
						</g>
						<rect x="198.2" y="7.1" class="st4" width="2.5" height="1.5"/>
						<rect x="193.7" y="7.1" class="st4" width="2.5" height="1.5"/>
						<rect x="189.3" y="7.1" class="st4" width="2.5" height="1.5"/>
					</g>
				</g>
				<g>
					<g>
						<g>
							<rect x="201.7" y="0.1" class="st3" width="13.4" height="15"/>
						</g>
						<rect x="211.7" y="7.1" class="st4" width="2.5" height="1.5"/>
						<rect x="207.2" y="7.1" class="st4" width="2.5" height="1.5"/>
						<rect x="202.7" y="7.1" class="st4" width="2.5" height="1.5"/>
					</g>
				</g>
				<g>
					<g>
						<g>
							<rect x="215.1" y="0.1" class="st3" width="13.4" height="15"/>
						</g>
						<rect x="225.1" y="7.1" class="st4" width="2.5" height="1.5"/>
						<rect x="220.6" y="7.1" class="st4" width="2.5" height="1.5"/>
						<rect x="216.2" y="7.1" class="st4" width="2.5" height="1.5"/>
					</g>
				</g>
				<g>
					<g>
						<g>
							<rect x="228.6" y="15.1" class="st3" width="15" height="14"/>
						</g>
						<rect x="235.1" y="25.5" class="st4" width="1.5" height="2.6"/>
						<rect x="235.1" y="20.9" class="st4" width="1.5" height="2.6"/>
						<rect x="235.1" y="16.2" class="st4" width="1.5" height="2.6"/>
					</g>
				</g>
				<g>
					<g>
						<g>
							<rect x="228.6" y="29.2" class="st3" width="15" height="14"/>
						</g>
						<rect x="235.1" y="39.6" class="st4" width="1.5" height="2.6"/>
						<rect x="235.1" y="34.9" class="st4" width="1.5" height="2.6"/>
						<rect x="235.1" y="30.3" class="st4" width="1.5" height="2.6"/>
					</g>
				</g>
				<g>
					<g>
						<g>
							<rect x="228.6" y="43.2" class="st3" width="15" height="14"/>
						</g>
						<rect x="235.1" y="53.6" class="st4" width="1.5" height="2.6"/>
						<rect x="235.1" y="49" class="st4" width="1.5" height="2.6"/>
						<rect x="235.1" y="44.3" class="st4" width="1.5" height="2.6"/>
					</g>
				</g>
				<g>
					<g>
						<g>
							<rect x="228.6" y="57.3" class="st3" width="15" height="14"/>
						</g>
						<rect x="235.1" y="67.7" class="st4" width="1.5" height="2.6"/>
						<rect x="235.1" y="63" class="st4" width="1.5" height="2.6"/>
						<rect x="235.1" y="58.3" class="st4" width="1.5" height="2.6"/>
					</g>
				</g>
				<g>
					<g>
						<g>
							<rect x="228.6" y="71.3" class="st3" width="15" height="14"/>
						</g>
						<rect x="235.1" y="81.7" class="st4" width="1.5" height="2.6"/>
						<rect x="235.1" y="77.1" class="st4" width="1.5" height="2.6"/>
						<rect x="235.1" y="72.4" class="st4" width="1.5" height="2.6"/>
					</g>
				</g>
				<g>
					<g>
						<g>
							<rect x="215.1" y="85.4" class="st3" width="13.4" height="15"/>
						</g>
						<rect x="216.1" y="91.9" class="st4" width="2.5" height="1.5"/>
						<rect x="220.6" y="91.9" class="st4" width="2.5" height="1.5"/>
						<rect x="225.1" y="91.9" class="st4" width="2.5" height="1.5"/>
					</g>
				</g>
				<g>
					<g>
						<g>
							<rect x="201.7" y="85.4" class="st3" width="13.4" height="15"/>
						</g>
						<rect x="202.7" y="91.9" class="st4" width="2.5" height="1.5"/>
						<rect x="207.2" y="91.9" class="st4" width="2.5" height="1.5"/>
						<rect x="211.6" y="91.9" class="st4" width="2.5" height="1.5"/>
					</g>
				</g>
				<g>
					<g>
						<g>
							<rect x="188.3" y="85.4" class="st3" width="13.4" height="15"/>
						</g>
						<rect x="189.2" y="91.9" class="st4" width="2.5" height="1.5"/>
						<rect x="193.7" y="91.9" class="st4" width="2.5" height="1.5"/>
						<rect x="198.2" y="91.9" class="st4" width="2.5" height="1.5"/>
					</g>
				</g>
				<g>
					<g>
						<g>
							<rect x="174.8" y="85.4" class="st3" width="13.4" height="15"/>
						</g>
						<rect x="175.8" y="91.9" class="st4" width="2.5" height="1.5"/>
						<rect x="180.3" y="91.9" class="st4" width="2.5" height="1.5"/>
						<rect x="184.7" y="91.9" class="st4" width="2.5" height="1.5"/>
					</g>
				</g>
				<g>
					<g>
						<g>
							<rect x="161.4" y="85.4" class="st3" width="13.4" height="15"/>
						</g>
						<rect x="162.3" y="91.9" class="st4" width="2.5" height="1.5"/>
						<rect x="166.8" y="91.9" class="st4" width="2.5" height="1.5"/>
						<rect x="171.3" y="91.9" class="st4" width="2.5" height="1.5"/>
					</g>
				</g>
				<g>
					<g>
						<g>
							<rect x="147.9" y="85.4" class="st3" width="13.4" height="15"/>
						</g>
						<rect x="148.9" y="91.9" class="st4" width="2.5" height="1.5"/>
						<rect x="153.4" y="91.9" class="st4" width="2.5" height="1.5"/>
						<rect x="157.8" y="91.9" class="st4" width="2.5" height="1.5"/>
					</g>
				</g>
				<g>
					<g>
						<g>
							<rect x="134.5" y="85.4" class="st3" width="13.4" height="15"/>
						</g>
						<rect x="135.4" y="91.9" class="st4" width="2.5" height="1.5"/>
						<rect x="139.9" y="91.9" class="st4" width="2.5" height="1.5"/>
						<rect x="144.4" y="91.9" class="st4" width="2.5" height="1.5"/>
					</g>
				</g>
				<g>
					<g>
						<g>
							<rect x="121" y="85.4" class="st3" width="13.4" height="15"/>
						</g>
						<rect x="122" y="91.9" class="st4" width="2.5" height="1.5"/>
						<rect x="126.5" y="91.9" class="st4" width="2.5" height="1.5"/>
						<rect x="130.9" y="91.9" class="st4" width="2.5" height="1.5"/>
					</g>
				</g>
				<g>
					<g>
						<g>
							<rect x="107.6" y="85.4" class="st3" width="13.4" height="15"/>
						</g>
						<rect x="108.6" y="91.9" class="st4" width="2.5" height="1.5"/>
						<rect x="113" y="91.9" class="st4" width="2.5" height="1.5"/>
						<rect x="117.5" y="91.9" class="st4" width="2.5" height="1.5"/>
					</g>
				</g>
				<g>
					<g>
						<g>
							<rect x="94.1" y="85.4" class="st3" width="13.4" height="15"/>
						</g>
						<rect x="95.1" y="91.9" class="st4" width="2.5" height="1.5"/>
						<rect x="99.6" y="91.9" class="st4" width="2.5" height="1.5"/>
						<rect x="104" y="91.9" class="st4" width="2.5" height="1.5"/>
					</g>
				</g>
				<g>
					<g>
						<g>
							<rect x="80.7" y="85.4" class="st3" width="13.4" height="15"/>
						</g>
						<rect x="81.7" y="91.9" class="st4" width="2.5" height="1.5"/>
						<rect x="86.1" y="91.9" class="st4" width="2.5" height="1.5"/>
						<rect x="90.6" y="91.9" class="st4" width="2.5" height="1.5"/>
					</g>
				</g>
				<g>
					<g>
						<g>
							<rect x="67.2" y="85.4" class="st3" width="13.4" height="15"/>
						</g>
						<rect x="68.2" y="91.9" class="st4" width="2.5" height="1.5"/>
						<rect x="72.7" y="91.9" class="st4" width="2.5" height="1.5"/>
						<rect x="77.1" y="91.9" class="st4" width="2.5" height="1.5"/>
					</g>
				</g>
				<g>
					<g>
						<g>
							<rect x="53.8" y="85.4" class="st3" width="13.4" height="15"/>
						</g>
						<rect x="54.8" y="91.9" class="st4" width="2.5" height="1.5"/>
						<rect x="59.2" y="91.9" class="st4" width="2.5" height="1.5"/>
						<rect x="63.7" y="91.9" class="st4" width="2.5" height="1.5"/>
					</g>
				</g>
				<g>
					<g>
						<g>
							<rect x="40.3" y="85.4" class="st3" width="13.4" height="15"/>
						</g>
						<rect x="41.3" y="91.9" class="st4" width="2.5" height="1.5"/>
						<rect x="45.8" y="91.9" class="st4" width="2.5" height="1.5"/>
						<rect x="50.2" y="91.9" class="st4" width="2.5" height="1.5"/>
					</g>
				</g>
				<g>
					<g>
						<g>
							<rect x="26.9" y="85.4" class="st3" width="13.4" height="15"/>
						</g>
						<rect x="27.9" y="91.9" class="st4" width="2.5" height="1.5"/>
						<rect x="32.3" y="91.9" class="st4" width="2.5" height="1.5"/>
						<rect x="36.8" y="91.9" class="st4" width="2.5" height="1.5"/>
					</g>
				</g>
				<g>
					<g>
						<g>
							<rect x="13.4" y="85.4" class="st3" width="13.4" height="15"/>
						</g>
						<rect x="14.4" y="91.9" class="st4" width="2.5" height="1.5"/>
						<rect x="18.9" y="91.9" class="st4" width="2.5" height="1.5"/>
						<rect x="23.4" y="91.9" class="st4" width="2.5" height="1.5"/>
					</g>
				</g>
				<g>
					<rect x="5.3" y="11.6" class="st4" width="1.5" height="2.5"/>
					<polygon class="st4" points="5.3,7.1 5.3,9.6 6.8,9.6 6.8,8.6 7.8,8.6 7.8,7.1 					"/>
					<rect x="9.8" y="7.1" class="st4" width="2.5" height="1.5"/>
				</g>
				<g>
					<rect x="229.6" y="7" class="st4" width="2.5" height="1.5"/>
					<polygon class="st4" points="236.6,7 234.1,7 234.1,8.5 235.1,8.5 235.1,9.5 236.6,9.5 					"/>
					<rect x="235.1" y="11.5" class="st4" width="1.5" height="2.5"/>
				</g>
				<g>
					<rect x="235.2" y="86.4" class="st4" width="1.5" height="2.5"/>
					<polygon class="st4" points="236.7,93.4 236.7,90.9 235.2,90.9 235.2,91.9 234.2,91.9 234.2,93.4 					"/>
					<rect x="229.7" y="91.9" class="st4" width="2.5" height="1.5"/>
				</g>
				<g>
					<rect x="9.9" y="92" class="st4" width="2.5" height="1.5"/>
					<polygon class="st4" points="5.4,93.5 7.9,93.5 7.9,92 6.9,92 6.9,91 5.4,91 					"/>
					<rect x="5.4" y="86.5" class="st4" width="1.5" height="2.5"/>
				</g>
			</g>
		</g>
	</g>
</g>
</svg>
