<?xml version="1.0" encoding="utf-8"?>
<!-- Generator: Adobe Illustrator 24.0.0, SVG Export Plug-In . SVG Version: 6.00 Build 0)  -->
<svg version="1.1" id="Capa_1" xmlns="http://www.w3.org/2000/svg" xmlns:xlink="http://www.w3.org/1999/xlink" x="0px" y="0px"
	 viewBox="0 0 128.9 147.6" style="enable-background:new 0 0 128.9 147.6;" xml:space="preserve">
<style type="text/css">
	.st0{fill:#0079C5;}
	.st1{fill:#FFBC00;}
</style>
<g>
	<g>
		<path class="st0" d="M31.8,123.4c0.1-0.5,0.2-1.1,0.3-1.6c0.8-3.9,1.6-7.9,2.4-11.8c0.4-2,0.4-2,2.5-2c0.6,0,1.3,0,2,0
			c-0.3,1.3-0.6,2.5-0.9,3.6c-1.4,5.2-2.8,10.5-4.1,15.7c-0.1,0.5-0.4,0.9-1,0.9c-0.6,0-1.2,0-1.9-0.1c-0.9-0.1-1.6-0.6-1.9-1.5
			c-0.3-0.6-0.5-1.3-0.6-2c-0.7-3.5-1.4-6.9-2.2-10.4c-0.1-0.5-0.2-0.9-0.2-1.4c-0.1,0-0.1,0-0.2,0c-0.1,0.3-0.1,0.6-0.2,0.9
			c-0.8,3.3-1.5,6.6-2.3,9.9c-0.3,1.3-0.6,2.6-0.9,3.9c-0.1,0.5-0.3,0.7-0.8,0.6c-0.1,0-0.3,0-0.4,0c-2.2,0.3-3.5-0.5-4-2.7
			c-1.1-4.3-2.1-8.6-3.2-12.9c-0.4-1.5-0.7-3-1.1-4.6c1.4,0,2.7,0,4.1,0c0.1,0,0.3,0.4,0.4,0.6c0.5,2.3,0.9,4.5,1.3,6.8
			c0.5,2.6,1,5.2,1.4,7.8c0,0.1,0.1,0.2,0.3,0.6c0.2-1.1,0.4-1.9,0.6-2.8c0.9-4.1,1.9-8.2,2.8-12.3c0.1-0.5,0.3-0.7,0.9-0.7
			c1,0,2.1,0,3.1,0c0.5,0,0.7,0.1,0.8,0.6c0.4,2,0.8,4,1.3,6c0.6,2.8,1.1,5.6,1.6,8.4c0,0.1,0.1,0.3,0.2,0.4
			C31.7,123.4,31.8,123.4,31.8,123.4z"/>
		<path class="st0" d="M65.5,114.9c1.1-1.6,2.6-2.4,4.5-2.4c2,0,3.3,1,4.2,2.8c0.3-0.3,0.5-0.6,0.6-0.8c2-2.4,5.7-2.7,7.7-0.6
			c0.6,0.6,1,1.4,1.2,2.2c0.3,1,0.4,2.1,0.4,3.1c0.1,2.6,0,5.2,0,7.8c0,0.7-0.2,0.9-0.9,0.9c-0.8,0-1.5,0-2.3,0
			c-0.6,0-0.8-0.2-0.8-0.8c0-2.3,0-4.6,0-6.9c0-0.8-0.1-1.7-0.3-2.5c-0.3-1.4-1.4-2.1-2.8-1.9c-1.2,0.2-2.3,1.3-2.3,2.6
			c0,2.9,0,5.8,0,8.7c0,0.6-0.1,0.9-0.8,0.8c-0.9,0-1.7,0-2.6,0c-0.5,0-0.7-0.2-0.7-0.7c0-2.7,0-5.5,0-8.2c0-0.3,0-0.7-0.1-1
			c-0.3-1.5-1.2-2.2-2.5-2.2c-1.2,0-2.4,1.1-2.6,2.4c-0.1,0.5-0.1,1-0.1,1.6c0,2.5,0,4.9,0,7.4c0,0.6-0.2,0.8-0.8,0.8
			c-0.9,0-1.7,0-2.6,0c-0.4,0-0.6-0.2-0.6-0.6c0-4.6,0-9.2,0-13.8c0-0.4,0.1-0.6,0.5-0.6c0.9,0,1.7,0,2.6,0c0.4,0,0.6,0.2,0.6,0.6
			c0,0.4,0,0.9,0,1.3C65.3,114.9,65.4,114.9,65.5,114.9z"/>
		<path class="st0" d="M40.3,116.4c-0.2-0.7-0.5-1.4-0.6-2.1c0-0.2,0.3-0.6,0.5-0.7c1-0.3,2-0.7,3.1-0.9c2.2-0.2,4.4-0.3,6.2,1.1
			c1.1,0.9,1.8,2.1,1.9,3.5c0.2,2.6,0.1,5.2,0.2,7.9c0,0.7,0,1.4,0.1,2.1c0.1,0.5-0.1,0.7-0.6,0.8c-1.4,0.3-2.4-0.2-3.1-1.4
			c-0.1-0.1-0.1-0.2-0.3-0.3c-0.2,0.2-0.4,0.4-0.6,0.6c-1.9,1.7-5.1,1.9-6.9,0.4c-2.5-2-2.2-6.1,0.6-7.7c1.9-1.1,3.9-1.3,6-1.5
			c0.8-0.1,0.9-0.1,0.7-0.9c-0.2-1.1-1-1.6-1.9-1.8c-1.6-0.4-3,0.1-4.5,0.6C40.8,116.2,40.5,116.2,40.3,116.4z M47.6,122
			c0-0.3,0.1-0.6,0-0.9c-0.1-0.2-0.3-0.5-0.5-0.5c-1.3,0-2.7,0.1-3.8,0.9c-0.8,0.6-1.1,1.7-0.7,2.7c0.4,0.9,1.3,1.4,2.3,1.2
			C46.7,125.2,47.6,124.1,47.6,122z"/>
		<path class="st0" d="M87.9,116.4c-0.2-0.8-0.5-1.5-0.7-2.2c0-0.1,0.2-0.5,0.4-0.5c1-0.3,2.1-0.8,3.2-0.9c2.2-0.3,4.4-0.4,6.3,1.1
			c1.4,1.1,2,2.6,2,4.2c0.1,2.1,0,4.2,0,6.4c0,1,0.1,2,0.2,2.9c0,0.5-0.2,0.7-0.7,0.8c-1.4,0.2-2.3-0.2-3-1.5
			c-0.1-0.1-0.1-0.2-0.3-0.3c-0.2,0.2-0.4,0.4-0.6,0.6c-2.2,2.1-6.1,1.8-7.8-0.5c-1.3-1.8-1-4.7,0.6-6.2c0.9-0.8,1.9-1.4,3.1-1.6
			c1.3-0.2,2.6-0.4,3.9-0.6c0.6-0.1,0.7-0.3,0.6-0.8c-0.1-0.9-0.9-1.7-1.9-1.9c-1.7-0.4-3.3,0.1-4.8,0.8
			C88.3,116.2,88.1,116.3,87.9,116.4z M95.3,122c0-0.3,0.1-0.6,0-0.8c-0.1-0.2-0.3-0.5-0.5-0.5c-1.3,0-2.6,0.1-3.8,0.9
			c-0.8,0.6-1.1,1.8-0.8,2.7c0.3,0.9,1.3,1.4,2.3,1.3C94.1,125.3,95.4,124.3,95.3,122z"/>
		<path class="st0" d="M112.9,116.2c0-2.5,0-5,0-7.4c0-0.6,0.1-0.9,0.8-0.8c0.8,0.1,1.6,0,2.4,0c0.4,0,0.6,0.2,0.6,0.6
			c0,1.1,0,2.3,0,3.4c0,0.6,0.2,0.8,0.8,0.7c0.8,0,1.6,0,2.4,0c0.4,0,0.6,0.2,0.6,0.6c0,0.8,0,1.7,0,2.5c0,0.4-0.2,0.6-0.6,0.6
			c-0.8,0-1.6,0-2.4,0c-0.2,0-0.6,0.3-0.6,0.5c0,2.1-0.1,4.2,0.1,6.4c0.1,1.5,1,2.1,2.5,1.9c0.7-0.1,0.9,0.1,0.8,0.7
			c0,0.1,0,0.2,0,0.4c0.1,2.1,0.3,1.8-1.7,2.1c-0.6,0.1-1.1,0.1-1.7,0c-2.5-0.3-3.8-1.9-3.9-4.8C112.9,121,112.9,118.6,112.9,116.2z
			"/>
		<path class="st0" d="M54.5,117.9c0-3.1,0-6.1,0-9.2c0-0.7,0.2-0.9,0.9-0.8c0.8,0,1.6,0,2.4,0c0.4,0,0.6,0.1,0.6,0.6
			c0,6.3,0,12.6,0,18.8c0,0.4-0.2,0.6-0.6,0.6c-0.9,0-1.8,0-2.7,0c-0.5,0-0.7-0.2-0.7-0.7C54.5,124.1,54.5,121,54.5,117.9z"/>
		<path class="st0" d="M102.1,127.9c0-1.9,0-3.7,0-5.5c0-2.9,0-5.8,0-8.7c0-0.6,0.1-0.8,0.8-0.8c0.7,0,1.4,0,2.1,0
			c0.5,0,0.7,0.2,0.7,0.7c0,0.7,0,1.3,0,2c0.1,0,0.2,0,0.3,0.1c0.1-0.2,0.2-0.4,0.4-0.6c0.9-1.6,2.1-2.5,3.9-2.5
			c0.5,0,0.7,0.1,0.7,0.7c0,1,0,2,0,3c-0.3,0-0.5,0-0.6,0c-2.6-0.1-4,1.3-4.1,3.9c0,2.3,0,4.6,0,6.9c0,0.6-0.2,0.8-0.8,0.8
			C104.4,127.9,103.3,127.9,102.1,127.9z"/>
	</g>
	<g>
		<path class="st1" d="M71.3,37l1.8-22.5c0.1-1.8-0.8-3.5-2.3-4.3c-1.9-1-4.8-1.7-7.9,0.2c-1.5,0.9-2.3,2.6-2.2,4.3l2.2,22.6
			c0.1,1.4,0.9,2.7,2.2,3.4c1.1,0.6,2.6,0.9,4.4-0.5C70.5,39.5,71.2,38.3,71.3,37z"/>
		<path class="st1" d="M71,77.4l1.8,22.5c0.1,1.8-0.8,3.5-2.3,4.3c-1.9,1-4.8,1.7-7.9-0.2c-1.5-0.9-2.3-2.6-2.2-4.3l2.2-22.6
			c0.1-1.4,0.9-2.7,2.2-3.4c1.1-0.6,2.6-0.9,4.4,0.5C70.3,75,70.9,76.2,71,77.4z"/>
		<path class="st1" d="M51.5,71.2L32.7,83.7c-1.5,1-3.4,1-4.9,0.1c-1.8-1.2-3.8-3.3-3.7-7c0.1-1.7,1.1-3.3,2.7-4l20.9-9
			c1.4-0.6,3-0.5,4.3,0.4c1,0.7,1.8,1.9,1.5,3.9C53.3,69.3,52.6,70.4,51.5,71.2z"/>
		<path class="st1" d="M86.8,51.1l20.1-10.2c1.6-0.8,2.6-2.5,2.5-4.3c-0.1-2.2-1-5-4.3-6.7c-1.5-0.8-3.4-0.6-4.8,0.4L82.1,44.1
			c-1.2,0.9-1.9,2.4-1.8,3.9c0.1,1.2,0.8,2.5,2.7,3.3C84.3,51.8,85.6,51.7,86.8,51.1z"/>
		<path class="st1" d="M51.6,43.3L32.8,30.8c-1.5-1-3.4-1-4.9,0c-1.8,1.2-3.8,3.4-3.7,7c0.1,1.7,1.1,3.3,2.7,4l20.9,9
			c1.4,0.6,3,0.5,4.3-0.4c1-0.7,1.8-1.9,1.5-4C53.4,45.1,52.7,44,51.6,43.3z"/>
		<path class="st1" d="M82.2,70.2l18.1,13.5c1.4,1.1,3.4,1.2,4.9,0.3c1.9-1.1,4-3.1,4.1-6.8c0-1.7-0.9-3.3-2.5-4.1L86.4,63
			c-1.4-0.7-3-0.7-4.3,0.1c-1,0.6-1.9,1.8-1.7,3.9C80.5,68.3,81.1,69.4,82.2,70.2z"/>
	</g>
	<g>
		<path class="st0" d="M97.7,132.1c-0.1,1.3-0.2,2.7-0.2,4c0,0.4-0.1,0.6-0.6,0.6c-0.5,0-0.5-0.3-0.5-0.7c0.1-1.6,0.2-3.3,0.3-4.9
			c0-0.1,0.1-0.3,0.2-0.4c0.7-0.3,1.5,0,1.7,0.7c0.3,0.9,0.5,1.9,0.7,2.8c0,0.2,0.1,0.3,0.3,0.7c0.4-1.3,0.7-2.4,1.1-3.5
			c0.2-0.7,0.5-0.8,1.5-0.7c0.7,0.1,0.4,0.6,0.4,0.9c0.1,1.4,0.2,2.8,0.3,4.2c0,0.4,0.2,0.8-0.5,0.8c-0.6,0-0.7-0.2-0.7-0.7
			c0-1.3-0.1-2.6-0.3-3.9c-0.4,1.2-0.7,2.3-1.1,3.5c-0.1,0.2-0.1,0.4-0.2,0.5c-0.2,0.2-0.4,0.5-0.6,0.4c-0.2,0-0.5-0.3-0.6-0.5
			c-0.3-1.1-0.6-2.2-0.9-3.4c-0.1-0.2-0.2-0.4-0.2-0.6C97.8,132,97.8,132.1,97.7,132.1z"/>
		<path class="st0" d="M45.7,133.7c0-0.8,0-1.6,0-2.4c0-0.2,0.2-0.6,0.4-0.6c1,0,2.1,0,3.1,0.2c1.2,0.3,1.8,1.2,1.8,2.4
			c0,1.6-0.5,2.7-1.7,3c-1,0.3-2.1,0.3-3.2,0.3c-0.1,0-0.3-0.3-0.3-0.5C45.7,135.3,45.7,134.5,45.7,133.7z M46.9,133.7
			C46.9,133.7,46.9,133.7,46.9,133.7c0,0.5,0,1,0,1.5c0,0.4,0.1,0.6,0.6,0.6c0.9,0,1.6-0.2,2-1c0.4-0.9,0.4-1.8-0.2-2.6
			c-0.4-0.5-1.5-0.9-2-0.5c-0.3,0.2-0.2,0.8-0.3,1.2C46.9,133.2,46.9,133.4,46.9,133.7z"/>
		<path class="st0" d="M18.9,136.5c-1.1,0.3-1.3,0.3-1.5-0.7c-0.2-0.7-0.6-0.8-1.2-0.8c-0.6,0-1,0.1-1.2,0.8c-0.2,1-0.4,1-1.4,0.7
			c0.6-1.8,1.1-3.7,1.7-5.5c0.1-0.2,0.8-0.3,1.2-0.3c0.2,0,0.6,0.2,0.6,0.4C17.8,132.9,18.3,134.7,18.9,136.5z M15.4,134.3
			c0.5,0,0.8,0,1.1,0c0.1,0,0.4-0.3,0.4-0.4c-0.2-0.7-0.4-1.4-0.6-2.2c-0.1,0-0.1,0-0.2,0C15.9,132.5,15.7,133.3,15.4,134.3z"/>
		<path class="st0" d="M20.8,132.9c0.3-0.2,0.4-0.2,0.5-0.3c1.2-0.7,2.2-0.2,2.4,1.2c0.1,0.8,0.1,1.6,0,2.5c0,0.2-0.4,0.4-0.6,0.4
			c-0.2,0-0.6-0.2-0.6-0.4c-0.1-0.6,0-1.2,0-1.8c0-0.6,0-1.2-0.8-1.2c-0.8,0-0.8,0.5-0.8,1.1c0,0.6,0,1.1,0,1.7
			c0,0.4-0.2,0.6-0.6,0.6c-0.4,0-0.6-0.1-0.6-0.6c0-1.7,0-3.4,0-5.1c0-0.5,0.2-0.6,0.6-0.6c0.4,0,0.6,0.1,0.6,0.6
			C20.8,131.6,20.8,132.1,20.8,132.9z"/>
		<path class="st0" d="M77,135.6c0.4-1.4,0.8-2.7,1.2-3.9c0.3-1,0.3-1,1.5-0.9c-0.3,1-0.7,2-1,3c-0.3,0.8-0.5,1.7-0.8,2.5
			c-0.1,0.2-0.4,0.4-0.6,0.4c-0.4,0-0.9,0.2-1.1-0.3c-0.1-0.1-0.1-0.3-0.1-0.4c-0.5-1.7-1.1-3.4-1.6-5.1c1.1-0.3,1.2-0.3,1.5,0.8
			C76.3,132.9,76.6,134.1,77,135.6z"/>
		<path class="st0" d="M55.4,132.7c0.2-0.1,0.5-0.3,0.8-0.4c1.1-0.2,1.8,0.4,1.8,1.5c0.1,0.8,0,1.5,0,2.3c0,0.5-0.2,0.5-0.6,0.5
			c-0.4,0-0.6-0.1-0.6-0.5c0-0.6,0-1.1,0-1.7c0-0.6,0-1.2-0.8-1.2c-0.7,0-0.8,0.5-0.8,1.1c0,0.6,0,1.1,0,1.7c0,0.4-0.2,0.6-0.6,0.6
			c-0.4,0-0.7-0.1-0.7-0.6c0-1,0-2,0-3c0-0.3,0.2-0.7,0.3-0.8C54.7,132.4,55,132.6,55.4,132.7z"/>
		<path class="st0" d="M26.6,136.7c-1.4,0.1-2.2-1-2.3-2.1c0-1.3,0.9-2.3,2.3-2.3c1.4,0,2.2,0.8,2.2,2.2
			C28.9,135.9,28,136.7,26.6,136.7z M25.7,134.4c0,0.3,0,0.6,0.1,0.8c0.2,0.3,0.5,0.6,0.8,0.7c0.2,0,0.7-0.2,0.8-0.4
			c0.4-0.6,0.4-1.3,0-1.9c-0.1-0.2-0.5-0.5-0.8-0.4c-0.3,0-0.6,0.3-0.8,0.6C25.7,133.9,25.7,134.2,25.7,134.4z"/>
		<path class="st0" d="M112.9,136.7c-1.4,0-2.2-0.8-2.3-2.1c0-1.4,0.9-2.3,2.3-2.3c1.3,0,2.2,0.9,2.2,2.2
			C115.1,135.8,114.2,136.7,112.9,136.7z M112.6,135.9c0.8,0,1.3-0.7,1.2-1.5c-0.1-0.8-0.5-1.3-1-1.3c-0.5,0-1,0.5-1,1.2
			c0,0.4,0.1,0.7,0.2,1.1C112.2,135.7,112.5,135.8,112.6,135.9z"/>
		<path class="st0" d="M70.9,134.5c0,1.4-0.8,2.2-2.2,2.2c-1.4,0-2.2-0.8-2.2-2.1c0-1.4,0.8-2.3,2.3-2.3
			C70.2,132.3,70.9,133.1,70.9,134.5z M67.8,134.5C67.8,134.5,67.8,134.5,67.8,134.5c0.1,0.2,0,0.3,0.1,0.5c0.1,0.5,0.3,0.9,0.9,0.9
			c0.6,0,0.9-0.3,0.9-0.8c0.1-0.5,0-1-0.1-1.4c-0.1-0.3-0.5-0.6-0.7-0.6c-0.3,0-0.6,0.3-0.8,0.6C67.8,133.9,67.8,134.3,67.8,134.5z"
			/>
		<path class="st0" d="M38.2,133.7c-0.2-0.7-0.7-0.8-1.9-0.4c-0.3-0.4-0.3-0.6,0.2-0.8c1.3-0.4,2.5-0.2,2.7,0.8
			c0.2,1,0.2,2.1,0.2,3.2c0,0.4-0.7,0.4-1.1,0c-0.5,0.1-0.9,0.3-1.4,0.3c-0.6,0.1-1-0.2-1.2-0.8c-0.2-0.6-0.1-1.3,0.6-1.6
			C36.9,134,37.5,133.9,38.2,133.7z M38.2,134.7c-0.8-0.1-1.4,0.2-1.3,0.7c0.1,0.2,0.4,0.5,0.7,0.6C38.1,136,38.3,135.6,38.2,134.7z
			"/>
		<path class="st0" d="M104.9,134.9c0.3,0.8,0.9,1.2,1.8,1c0.4-0.1,0.8-0.2,0.7,0.3c0,0.2-0.4,0.4-0.7,0.4c-0.2,0.1-0.5,0-0.8,0
			c-1.5,0-2.3-0.8-2.2-2.4c0.1-1.3,1-2.1,2.4-2c1,0.1,1.9,1.2,1.6,2.2c0,0.2-0.4,0.4-0.6,0.4C106.4,134.9,105.7,134.9,104.9,134.9z
			 M106.5,134.1c0.1-0.7-0.1-1-0.7-1c-0.6,0-0.9,0.4-0.9,1C105.4,134.1,106,134.1,106.5,134.1z"/>
		<path class="st0" d="M60.1,134.9c0.2,0.8,0.9,1.2,1.8,1c0.3-0.1,0.7-0.3,0.7,0.3c0.1,0.5-0.4,0.5-0.7,0.5c-0.4,0-0.9,0-1.3,0
			c-0.9-0.1-1.6-0.9-1.7-1.9c-0.1-1,0.6-2.1,1.5-2.3c0.9-0.3,1.8,0,2.3,0.8c0.1,0.2,0.2,0.4,0.3,0.6c0.2,0.9,0,1.1-0.9,1.1
			C61.4,134.9,60.7,134.9,60.1,134.9z M60.1,134.1c0.6,0,1.1,0,1.7,0c0-0.6-0.2-1-0.8-1C60.3,133.1,60,133.4,60.1,134.1z"/>
		<path class="st0" d="M87.7,134.9c0.2,0.8,0.8,1.1,1.8,1c0.3,0,0.7-0.3,0.8,0.2c0.1,0.5-0.4,0.6-0.7,0.6c-0.3,0-0.6,0-1,0
			c-0.9,0-1.5-0.4-1.8-1.2c-0.4-0.9-0.2-1.8,0.5-2.6c0.6-0.7,1.4-0.7,2.2-0.5c0.8,0.2,1.4,1.3,1.2,2.1c0,0.2-0.4,0.3-0.6,0.4
			C89.2,134.9,88.4,134.9,87.7,134.9z M89.4,134.1c0-0.7-0.3-1-0.9-1c-0.6,0.1-0.8,0.4-0.8,1C88.2,134.1,88.8,134.1,89.4,134.1z"/>
		<path class="st0" d="M86.2,132.4c-0.5,1.4-1,2.7-1.5,3.9c-0.2,0.5-1.3,0.5-1.4,0c-0.5-1.3-1-2.6-1.5-4c1.2-0.2,1.2-0.2,1.5,0.8
			c0.2,0.7,0.4,1.4,0.7,2.1c0.2-0.7,0.4-1.4,0.6-2.1C85,132.3,85,132.3,86.2,132.4z"/>
		<path class="st0" d="M92.2,136.7c-0.2,0-0.5,0-0.8-0.1c-0.1-0.1-0.2-0.3-0.3-0.5c0.2-0.1,0.3-0.2,0.5-0.3c0.3,0,0.6,0.1,0.9,0.1
			c0.2,0,0.4-0.2,0.5-0.3c0-0.1-0.1-0.4-0.3-0.5c-0.3-0.2-0.6-0.3-0.9-0.5c-0.9-0.6-0.9-1.6,0.1-2c0.5-0.2,1.2-0.2,1.8-0.2
			c0.1,0,0.2,0.3,0.3,0.4c-0.2,0.1-0.3,0.2-0.5,0.3c-0.4,0.1-1,0.1-1.1,0.3c-0.2,0.6,0.5,0.6,0.9,0.8c0.6,0.3,1,0.7,0.9,1.4
			c-0.1,0.7-0.6,1-1.3,1.1C92.6,136.7,92.4,136.7,92.2,136.7z"/>
		<path class="st0" d="M43,133.2c-0.3,0-0.7-0.1-1,0c-0.2,0-0.4,0.2-0.4,0.3c0,0.2,0.1,0.4,0.3,0.5c0.2,0.2,0.5,0.2,0.7,0.3
			c0.6,0.3,0.9,0.8,0.8,1.4c-0.1,0.6-0.6,0.9-1.2,1c-0.4,0-0.8,0-1.3,0c-0.6,0-0.7-0.4-0.5-0.9c0.4,0,0.9,0.1,1.3,0.1
			c0.2,0,0.5-0.2,0.5-0.3c0-0.2-0.1-0.4-0.3-0.5c-0.3-0.2-0.7-0.2-0.9-0.4c-0.3-0.3-0.7-0.8-0.6-1.1c0-0.4,0.4-0.9,0.8-1
			c0.5-0.2,1.1-0.2,1.6-0.1C43.3,132.4,43.1,132.8,43,133.2z"/>
		<path class="st0" d="M110,134.8c-0.1,0.9-0.1,1.7-0.3,2.6c-0.1,0.8-0.8,1.1-1.5,1.2c-0.1,0-0.4-0.1-0.4-0.2c0-0.2,0-0.6,0.1-0.6
			c0.8-0.3,0.8-1,0.8-1.7c0-1,0-2.1,0-3.1c0-0.5,0.2-0.6,0.6-0.6c0.5,0,0.6,0.2,0.6,0.6C109.9,133.6,109.9,134.2,110,134.8
			C109.9,134.8,109.9,134.8,110,134.8z"/>
		<path class="st0" d="M117,133.1c0.2-0.2,0.3-0.4,0.5-0.6c0.2-0.1,0.5-0.2,0.7-0.2c0.1,0,0.2,0.4,0.2,0.6c0,0.2-0.3,0.4-0.4,0.4
			c-0.6,0.2-0.9,0.6-0.9,1.2c0,0.5,0,1,0,1.5c0,0.4-0.1,0.6-0.6,0.6c-0.4,0-0.6-0.1-0.6-0.6c0-1,0-2.1,0-3.1c0-0.2,0.2-0.5,0.4-0.6
			c0.4-0.1,0.7,0,0.7,0.5C116.9,132.9,117,133,117,133.1z"/>
		<path class="st0" d="M64.7,133.2c0.3-0.3,0.4-0.5,0.6-0.7c0.2-0.1,0.5-0.2,0.7-0.1c0.1,0,0.2,0.4,0.1,0.6c0,0.2-0.2,0.4-0.4,0.4
			c-0.7,0.1-0.9,0.6-0.9,1.2c0,0.5,0,1,0,1.6c0,0.4-0.2,0.5-0.6,0.6c-0.4,0-0.6-0.1-0.6-0.6c0-1,0-1.9,0-2.9c0-0.3-0.2-0.8,0.4-0.9
			C64.6,132.2,64.7,132.6,64.7,133.2z"/>
		<path class="st0" d="M34,133c0.2-0.2,0.4-0.4,0.6-0.6c0.2-0.1,0.5-0.2,0.6-0.1c0.1,0.1,0.2,0.4,0.2,0.7c0,0.1-0.2,0.3-0.4,0.3
			c-0.7,0.1-1,0.5-0.9,1.2c0,0.5,0,0.9,0,1.4c0,0.4,0,0.7-0.6,0.7c-0.6,0-0.6-0.3-0.6-0.7c0-1,0-1.9,0-2.9c0-0.2,0.2-0.6,0.3-0.7
			c0.4-0.2,0.6,0.2,0.6,0.6C33.9,133,33.9,133,34,133z"/>
		<path class="st0" d="M30.7,133.3c0.3-0.3,0.4-0.6,0.5-0.7c0.2-0.1,0.5-0.2,0.7-0.2c0.1,0.2,0.2,0.4,0.1,0.6
			c-0.1,0.2-0.3,0.4-0.4,0.4c-0.6,0.2-0.8,0.6-0.9,1.2c0,0.5,0,1,0,1.6c0,0.4-0.1,0.6-0.6,0.6c-0.4,0-0.6-0.2-0.6-0.6
			c0-1-0.1-1.9-0.1-2.9c0-0.3-0.2-0.8,0.4-0.9C30.6,132.2,30.7,132.6,30.7,133.3z"/>
		<path class="st0" d="M53,134.5c0,0.5,0,1.1,0,1.6c0,0.4-0.2,0.6-0.6,0.5c-0.4,0-0.6-0.1-0.6-0.5c0-1.1,0-2.2,0-3.3
			c0-0.5,0.3-0.5,0.6-0.5c0.4,0,0.6,0.1,0.6,0.5C53,133.4,53,134,53,134.5z"/>
		<path class="st0" d="M81.2,134.6c0,0.5,0,1,0,1.6c0,0.4-0.2,0.5-0.6,0.5c-0.4,0-0.6,0-0.6-0.5c0-1.1,0-2.2,0-3.3
			c0-0.5,0.3-0.5,0.6-0.5c0.4,0,0.6,0.1,0.6,0.5C81.2,133.5,81.2,134,81.2,134.6z"/>
		<path class="st0" d="M72.9,136.2c-0.3,0.2-0.5,0.5-0.8,0.5c-0.3,0-0.6-0.4-0.7-0.6c-0.1-0.4,0.2-0.7,0.6-0.7
			c0.3,0,0.5,0.3,0.8,0.5C72.9,135.9,72.9,136.1,72.9,136.2z"/>
		<path class="st0" d="M119,137c-0.3-0.5-0.7-0.8-0.6-1c0-0.3,0.4-0.6,0.7-0.7c0.5-0.1,0.8,0.3,0.7,0.7
			C119.8,136.3,119.4,136.6,119,137z"/>
		<path class="st0" d="M52.4,130.2c0.3,0.4,0.6,0.6,0.6,0.8c0,0.2-0.4,0.5-0.5,0.5c-0.2,0-0.5-0.3-0.6-0.5
			C51.8,130.9,52.1,130.6,52.4,130.2z"/>
		<path class="st0" d="M81.3,131.2c-0.2,0.1-0.5,0.4-0.7,0.3c-0.2-0.1-0.4-0.3-0.7-0.5c0.2-0.2,0.4-0.5,0.7-0.5
			c0.2,0,0.4,0.3,0.6,0.4C81.3,131,81.3,131.1,81.3,131.2z"/>
		<path class="st0" d="M109.3,131.9c-0.3-0.5-0.6-0.7-0.5-0.9c0-0.2,0.4-0.5,0.6-0.5c0.2,0,0.5,0.3,0.5,0.5
			C109.8,131.3,109.6,131.5,109.3,131.9z"/>
	</g>
</g>
</svg>
