<?xml version="1.0" encoding="utf-8"?>
<!-- Generator: Adobe Illustrator 24.0.0, SVG Export Plug-In . SVG Version: 6.00 Build 0)  -->
<svg version="1.1" id="Capa_1" xmlns="http://www.w3.org/2000/svg" xmlns:xlink="http://www.w3.org/1999/xlink" x="0px" y="0px"
	 viewBox="0 0 307.1 26.4" style="enable-background:new 0 0 307.1 26.4;" xml:space="preserve">
<style type="text/css">
	.st0{fill:#FFFFFF;}
	.st1{fill:#0079C5;}
	.st2{fill:#020202;}
	.st3{fill:#FFBC00;}
</style>
<g>
	<path class="st0" d="M298.5,26.1H235c-3.7,0-6.8-3.1-6.8-6.8V10c0-3.7,3.1-6.8,6.8-6.8h63.5c3.7,0,6.8,3.1,6.8,6.8v9.3
		C305.3,23.1,302.3,26.1,298.5,26.1z"/>
	<g>
		<g>
			<path class="st1" d="M239.8,17.3c0.1-0.3,0.1-0.5,0.2-0.8c0.4-2,0.8-4,1.2-5.9c0.2-1,0.2-1,1.2-1c0.3,0,0.6,0,1,0
				c-0.2,0.7-0.3,1.2-0.5,1.8c-0.7,2.6-1.4,5.2-2.1,7.8c-0.1,0.3-0.2,0.5-0.5,0.4c-0.3,0-0.6,0-0.9,0c-0.5-0.1-0.8-0.3-1-0.8
				c-0.1-0.3-0.2-0.7-0.3-1c-0.4-1.7-0.7-3.5-1.1-5.2c0-0.2-0.1-0.5-0.1-0.7c0,0-0.1,0-0.1,0c0,0.1-0.1,0.3-0.1,0.4
				c-0.4,1.6-0.8,3.3-1.2,4.9c-0.2,0.7-0.3,1.3-0.5,1.9c-0.1,0.2-0.2,0.3-0.4,0.3c-0.1,0-0.1,0-0.2,0c-1.1,0.1-1.7-0.3-2-1.4
				c-0.5-2.2-1.1-4.3-1.6-6.5c-0.2-0.7-0.4-1.5-0.6-2.3c0.7,0,1.4,0,2,0c0.1,0,0.2,0.2,0.2,0.3c0.2,1.1,0.5,2.3,0.7,3.4
				c0.2,1.3,0.5,2.6,0.7,3.9c0,0.1,0.1,0.1,0.1,0.3c0.1-0.5,0.2-1,0.3-1.4c0.5-2,0.9-4.1,1.4-6.1c0.1-0.2,0.1-0.4,0.4-0.4
				c0.5,0,1,0,1.5,0c0.2,0,0.3,0.1,0.4,0.3c0.2,1,0.4,2,0.6,3c0.3,1.4,0.5,2.8,0.8,4.2C239.7,17.2,239.7,17.2,239.8,17.3
				C239.8,17.3,239.8,17.3,239.8,17.3z"/>
			<path class="st1" d="M256.6,13.1c0.6-0.8,1.3-1.2,2.3-1.2c1,0,1.6,0.5,2.1,1.4c0.1-0.2,0.2-0.3,0.3-0.4c1-1.2,2.9-1.3,3.9-0.3
				c0.3,0.3,0.5,0.7,0.6,1.1c0.2,0.5,0.2,1,0.2,1.5c0,1.3,0,2.6,0,3.9c0,0.4-0.1,0.5-0.5,0.4c-0.4,0-0.8,0-1.1,0
				c-0.3,0-0.4-0.1-0.4-0.4c0-1.2,0-2.3,0-3.5c0-0.4,0-0.8-0.1-1.2c-0.2-0.7-0.7-1-1.4-0.9c-0.6,0.1-1.1,0.7-1.1,1.3
				c0,1.4,0,2.9,0,4.3c0,0.3-0.1,0.4-0.4,0.4c-0.4,0-0.9,0-1.3,0c-0.3,0-0.4-0.1-0.4-0.4c0-1.4,0-2.7,0-4.1c0-0.2,0-0.3-0.1-0.5
				c-0.2-0.8-0.6-1.1-1.3-1.1c-0.6,0-1.2,0.6-1.3,1.2c0,0.3-0.1,0.5-0.1,0.8c0,1.2,0,2.5,0,3.7c0,0.3-0.1,0.4-0.4,0.4
				c-0.4,0-0.9,0-1.3,0c-0.2,0-0.3-0.1-0.3-0.3c0-2.3,0-4.6,0-6.9c0-0.2,0.1-0.3,0.3-0.3c0.4,0,0.9,0,1.3,0c0.2,0,0.3,0.1,0.3,0.3
				c0,0.2,0,0.4,0,0.7C256.6,13.1,256.6,13.1,256.6,13.1z"/>
			<path class="st1" d="M244,13.8c-0.1-0.4-0.3-0.7-0.3-1c0-0.1,0.1-0.3,0.3-0.3c0.5-0.2,1-0.4,1.5-0.4c1.1-0.1,2.2-0.2,3.1,0.6
				c0.6,0.4,0.9,1.1,0.9,1.7c0.1,1.3,0.1,2.6,0.1,3.9c0,0.4,0,0.7,0.1,1.1c0,0.2-0.1,0.3-0.3,0.4c-0.7,0.1-1.2-0.1-1.6-0.7
				c0,0-0.1-0.1-0.1-0.2c-0.1,0.1-0.2,0.2-0.3,0.3c-0.9,0.8-2.5,0.9-3.5,0.2c-1.3-1-1.1-3.1,0.3-3.9c0.9-0.6,2-0.7,3-0.8
				c0.4,0,0.4-0.1,0.4-0.5c-0.1-0.5-0.5-0.8-1-0.9c-0.8-0.2-1.5,0-2.2,0.3C244.3,13.7,244.2,13.8,244,13.8z M247.7,16.7
				c0-0.2,0-0.3,0-0.5c0-0.1-0.2-0.3-0.2-0.2c-0.7,0-1.3,0-1.9,0.5c-0.4,0.3-0.6,0.9-0.4,1.3c0.2,0.5,0.7,0.7,1.2,0.6
				C247.3,18.2,247.7,17.7,247.7,16.7z"/>
			<path class="st1" d="M267.9,13.8c-0.1-0.4-0.2-0.7-0.3-1.1c0-0.1,0.1-0.2,0.2-0.3c0.5-0.2,1-0.4,1.6-0.5c1.1-0.1,2.2-0.2,3.1,0.5
				c0.7,0.5,1,1.3,1,2.1c0.1,1.1,0,2.1,0,3.2c0,0.5,0,1,0.1,1.5c0,0.3-0.1,0.4-0.3,0.4c-0.7,0.1-1.2-0.1-1.5-0.7
				c0,0-0.1-0.1-0.1-0.2c-0.1,0.1-0.2,0.2-0.3,0.3c-1.1,1-3.1,0.9-3.9-0.2c-0.6-0.9-0.5-2.4,0.3-3.1c0.4-0.4,1-0.7,1.5-0.8
				c0.6-0.1,1.3-0.2,1.9-0.3c0.3,0,0.3-0.2,0.3-0.4c-0.1-0.5-0.4-0.8-0.9-1c-0.8-0.2-1.6,0.1-2.4,0.4
				C268.1,13.8,268,13.8,267.9,13.8z M271.5,16.6c0-0.1,0-0.3,0-0.4c0-0.1-0.2-0.3-0.2-0.3c-0.7,0-1.3,0.1-1.9,0.5
				c-0.4,0.3-0.6,0.9-0.4,1.3c0.2,0.4,0.7,0.7,1.2,0.6C270.9,18.3,271.6,17.8,271.5,16.6z"/>
			<path class="st1" d="M280.4,13.7c0-1.2,0-2.5,0-3.7c0-0.3,0.1-0.4,0.4-0.4c0.4,0,0.8,0,1.2,0c0.2,0,0.3,0.1,0.3,0.3
				c0,0.6,0,1.1,0,1.7c0,0.3,0.1,0.4,0.4,0.4c0.4,0,0.8,0,1.2,0c0.2,0,0.3,0.1,0.3,0.3c0,0.4,0,0.8,0,1.2c0,0.2-0.1,0.3-0.3,0.3
				c-0.4,0-0.8,0-1.2,0c-0.1,0-0.3,0.2-0.3,0.2c0,1.1,0,2.1,0,3.2c0.1,0.8,0.5,1,1.3,0.9c0.3-0.1,0.4,0,0.4,0.4c0,0.1,0,0.1,0,0.2
				c0,1.1,0.2,0.9-0.9,1.1c-0.3,0.1-0.6,0-0.9,0c-1.3-0.1-1.9-0.9-1.9-2.4C280.3,16.2,280.4,14.9,280.4,13.7z"/>
			<path class="st1" d="M251.2,14.6c0-1.5,0-3.1,0-4.6c0-0.3,0.1-0.4,0.4-0.4c0.4,0,0.8,0,1.2,0c0.2,0,0.3,0.1,0.3,0.3
				c0,3.1,0,6.3,0,9.4c0,0.2-0.1,0.3-0.3,0.3c-0.4,0-0.9,0-1.3,0c-0.3,0-0.3-0.1-0.3-0.4C251.2,17.7,251.2,16.2,251.2,14.6z"/>
			<path class="st1" d="M275,19.6c0-1,0-1.9,0-2.8c0-1.4,0-2.9,0-4.3c0-0.3,0.1-0.4,0.4-0.4c0.3,0,0.7,0,1,0c0.3,0,0.4,0.1,0.4,0.4
				c0,0.3,0,0.7,0,1c0,0,0.1,0,0.1,0c0.1-0.1,0.1-0.2,0.2-0.3c0.4-0.8,1-1.3,2-1.2c0.3,0,0.4,0.1,0.4,0.3c0,0.5,0,1,0,1.5
				c-0.1,0-0.2,0-0.3,0c-1.3,0-2,0.6-2,1.9c0,1.2,0,2.3,0,3.5c0,0.3-0.1,0.4-0.4,0.4C276.1,19.6,275.6,19.6,275,19.6z"/>
		</g>
		<g>
			<path class="st1" d="M296.2,11l0.3-4.1c0-0.3-0.1-0.6-0.4-0.8c-0.4-0.2-0.9-0.3-1.4,0c-0.3,0.2-0.4,0.5-0.4,0.8l0.4,4.1
				c0,0.3,0.2,0.5,0.4,0.6c0.2,0.1,0.5,0.2,0.8-0.1C296.1,11.5,296.2,11.3,296.2,11z"/>
			<path class="st1" d="M296.1,18.4l0.3,4.1c0,0.3-0.1,0.6-0.4,0.8c-0.4,0.2-0.9,0.3-1.4,0c-0.3-0.2-0.4-0.5-0.4-0.8l0.4-4.1
				c0-0.3,0.2-0.5,0.4-0.6c0.2-0.1,0.5-0.2,0.8,0.1C296,17.9,296.1,18.1,296.1,18.4z"/>
			<path class="st1" d="M292.6,17.2l-3.4,2.3c-0.3,0.2-0.6,0.2-0.9,0c-0.3-0.2-0.7-0.6-0.7-1.3c0-0.3,0.2-0.6,0.5-0.7l3.8-1.6
				c0.3-0.1,0.6-0.1,0.8,0.1c0.2,0.1,0.3,0.3,0.3,0.7C292.9,16.9,292.8,17.1,292.6,17.2z"/>
			<path class="st1" d="M299,13.6l3.7-1.9c0.3-0.1,0.5-0.5,0.5-0.8c0-0.4-0.2-0.9-0.8-1.2c-0.3-0.1-0.6-0.1-0.9,0.1l-3.3,2.5
				c-0.2,0.2-0.4,0.4-0.3,0.7c0,0.2,0.1,0.5,0.5,0.6C298.6,13.7,298.8,13.7,299,13.6z"/>
			<path class="st1" d="M292.6,12.1l-3.4-2.3c-0.3-0.2-0.6-0.2-0.9,0c-0.3,0.2-0.7,0.6-0.7,1.3c0,0.3,0.2,0.6,0.5,0.7l3.8,1.6
				c0.3,0.1,0.6,0.1,0.8-0.1c0.2-0.1,0.3-0.3,0.3-0.7C292.9,12.5,292.8,12.3,292.6,12.1z"/>
			<path class="st1" d="M298.2,17l3.3,2.4c0.3,0.2,0.6,0.2,0.9,0.1c0.3-0.2,0.7-0.6,0.8-1.2c0-0.3-0.2-0.6-0.5-0.8l-3.7-1.8
				c-0.2-0.1-0.5-0.1-0.8,0c-0.2,0.1-0.3,0.3-0.3,0.7C297.9,16.7,298,16.9,298.2,17z"/>
		</g>
	</g>
</g>
<g>
	<path class="st0" d="M186.2,26.1h-63.5c-3.7,0-6.8-3.1-6.8-6.8V10c0-3.7,3.1-6.8,6.8-6.8h63.5c3.7,0,6.8,3.1,6.8,6.8v9.3
		C193,23.1,189.9,26.1,186.2,26.1z"/>
	<g>
		<g>
			<path class="st2" d="M127.5,17.3c0.1-0.3,0.1-0.5,0.2-0.8c0.4-2,0.8-4,1.2-5.9c0.2-1,0.2-1,1.2-1c0.3,0,0.6,0,1,0
				c-0.2,0.7-0.3,1.2-0.5,1.8c-0.7,2.6-1.4,5.2-2.1,7.8c-0.1,0.3-0.2,0.5-0.5,0.4c-0.3,0-0.6,0-0.9,0c-0.5-0.1-0.8-0.3-1-0.8
				c-0.1-0.3-0.2-0.7-0.3-1c-0.4-1.7-0.7-3.5-1.1-5.2c0-0.2-0.1-0.5-0.1-0.7c0,0-0.1,0-0.1,0c0,0.1-0.1,0.3-0.1,0.4
				c-0.4,1.6-0.8,3.3-1.2,4.9c-0.2,0.7-0.3,1.3-0.5,1.9c-0.1,0.2-0.2,0.3-0.4,0.3c-0.1,0-0.1,0-0.2,0c-1.1,0.1-1.7-0.3-2-1.4
				c-0.5-2.2-1.1-4.3-1.6-6.5c-0.2-0.7-0.4-1.5-0.6-2.3c0.7,0,1.4,0,2,0c0.1,0,0.2,0.2,0.2,0.3c0.2,1.1,0.5,2.3,0.7,3.4
				c0.2,1.3,0.5,2.6,0.7,3.9c0,0.1,0.1,0.1,0.1,0.3c0.1-0.5,0.2-1,0.3-1.4c0.5-2,0.9-4.1,1.4-6.1c0.1-0.2,0.1-0.4,0.4-0.4
				c0.5,0,1,0,1.5,0c0.2,0,0.3,0.1,0.4,0.3c0.2,1,0.4,2,0.6,3c0.3,1.4,0.5,2.8,0.8,4.2C127.4,17.2,127.4,17.2,127.5,17.3
				C127.4,17.3,127.5,17.3,127.5,17.3z"/>
			<path class="st2" d="M144.3,13.1c0.6-0.8,1.3-1.2,2.3-1.2c1,0,1.6,0.5,2.1,1.4c0.1-0.2,0.2-0.3,0.3-0.4c1-1.2,2.9-1.3,3.9-0.3
				c0.3,0.3,0.5,0.7,0.6,1.1c0.2,0.5,0.2,1,0.2,1.5c0,1.3,0,2.6,0,3.9c0,0.4-0.1,0.5-0.5,0.4c-0.4,0-0.8,0-1.1,0
				c-0.3,0-0.4-0.1-0.4-0.4c0-1.2,0-2.3,0-3.5c0-0.4,0-0.8-0.1-1.2c-0.2-0.7-0.7-1-1.4-0.9c-0.6,0.1-1.1,0.7-1.1,1.3
				c0,1.4,0,2.9,0,4.3c0,0.3-0.1,0.4-0.4,0.4c-0.4,0-0.9,0-1.3,0c-0.3,0-0.4-0.1-0.4-0.4c0-1.4,0-2.7,0-4.1c0-0.2,0-0.3-0.1-0.5
				c-0.2-0.8-0.6-1.1-1.3-1.1c-0.6,0-1.2,0.6-1.3,1.2c0,0.3-0.1,0.5-0.1,0.8c0,1.2,0,2.5,0,3.7c0,0.3-0.1,0.4-0.4,0.4
				c-0.4,0-0.9,0-1.3,0c-0.2,0-0.3-0.1-0.3-0.3c0-2.3,0-4.6,0-6.9c0-0.2,0.1-0.3,0.3-0.3c0.4,0,0.9,0,1.3,0c0.2,0,0.3,0.1,0.3,0.3
				c0,0.2,0,0.4,0,0.7C144.2,13.1,144.3,13.1,144.3,13.1z"/>
			<path class="st2" d="M131.7,13.8c-0.1-0.4-0.3-0.7-0.3-1c0-0.1,0.1-0.3,0.3-0.3c0.5-0.2,1-0.4,1.5-0.4c1.1-0.1,2.2-0.2,3.1,0.6
				c0.6,0.4,0.9,1.1,0.9,1.7c0.1,1.3,0.1,2.6,0.1,3.9c0,0.4,0,0.7,0.1,1.1c0,0.2-0.1,0.3-0.3,0.4c-0.7,0.1-1.2-0.1-1.6-0.7
				c0,0-0.1-0.1-0.1-0.2c-0.1,0.1-0.2,0.2-0.3,0.3c-0.9,0.8-2.5,0.9-3.5,0.2c-1.3-1-1.1-3.1,0.3-3.9c0.9-0.6,2-0.7,3-0.8
				c0.4,0,0.4-0.1,0.4-0.5c-0.1-0.5-0.5-0.8-1-0.9c-0.8-0.2-1.5,0-2.2,0.3C132,13.7,131.9,13.8,131.7,13.8z M135.4,16.7
				c0-0.2,0-0.3,0-0.5c0-0.1-0.2-0.3-0.2-0.2c-0.7,0-1.3,0-1.9,0.5c-0.4,0.3-0.6,0.9-0.4,1.3c0.2,0.5,0.7,0.7,1.2,0.6
				C135,18.2,135.4,17.7,135.4,16.7z"/>
			<path class="st2" d="M155.6,13.8c-0.1-0.4-0.2-0.7-0.3-1.1c0-0.1,0.1-0.2,0.2-0.3c0.5-0.2,1-0.4,1.6-0.5c1.1-0.1,2.2-0.2,3.1,0.5
				c0.7,0.5,1,1.3,1,2.1c0.1,1.1,0,2.1,0,3.2c0,0.5,0,1,0.1,1.5c0,0.3-0.1,0.4-0.3,0.4c-0.7,0.1-1.2-0.1-1.5-0.7
				c0,0-0.1-0.1-0.1-0.2c-0.1,0.1-0.2,0.2-0.3,0.3c-1.1,1-3.1,0.9-3.9-0.2c-0.6-0.9-0.5-2.4,0.3-3.1c0.4-0.4,1-0.7,1.5-0.8
				c0.6-0.1,1.3-0.2,1.9-0.3c0.3,0,0.3-0.2,0.3-0.4c-0.1-0.5-0.4-0.8-0.9-1c-0.8-0.2-1.6,0.1-2.4,0.4
				C155.7,13.8,155.7,13.8,155.6,13.8z M159.2,16.6c0-0.1,0-0.3,0-0.4c0-0.1-0.2-0.3-0.2-0.3c-0.7,0-1.3,0.1-1.9,0.5
				c-0.4,0.3-0.6,0.9-0.4,1.3c0.2,0.4,0.7,0.7,1.2,0.6C158.6,18.3,159.3,17.8,159.2,16.6z"/>
			<path class="st2" d="M168,13.7c0-1.2,0-2.5,0-3.7c0-0.3,0.1-0.4,0.4-0.4c0.4,0,0.8,0,1.2,0c0.2,0,0.3,0.1,0.3,0.3
				c0,0.6,0,1.1,0,1.7c0,0.3,0.1,0.4,0.4,0.4c0.4,0,0.8,0,1.2,0c0.2,0,0.3,0.1,0.3,0.3c0,0.4,0,0.8,0,1.2c0,0.2-0.1,0.3-0.3,0.3
				c-0.4,0-0.8,0-1.2,0c-0.1,0-0.3,0.2-0.3,0.2c0,1.1,0,2.1,0,3.2c0.1,0.8,0.5,1,1.3,0.9c0.3-0.1,0.4,0,0.4,0.4c0,0.1,0,0.1,0,0.2
				c0,1.1,0.2,0.9-0.9,1.1c-0.3,0.1-0.6,0-0.9,0c-1.3-0.1-1.9-0.9-1.9-2.4C168,16.2,168,14.9,168,13.7z"/>
			<path class="st2" d="M138.8,14.6c0-1.5,0-3.1,0-4.6c0-0.3,0.1-0.4,0.4-0.4c0.4,0,0.8,0,1.2,0c0.2,0,0.3,0.1,0.3,0.3
				c0,3.1,0,6.3,0,9.4c0,0.2-0.1,0.3-0.3,0.3c-0.4,0-0.9,0-1.3,0c-0.3,0-0.3-0.1-0.3-0.4C138.8,17.7,138.8,16.2,138.8,14.6z"/>
			<path class="st2" d="M162.7,19.6c0-1,0-1.9,0-2.8c0-1.4,0-2.9,0-4.3c0-0.3,0.1-0.4,0.4-0.4c0.3,0,0.7,0,1,0
				c0.3,0,0.4,0.1,0.4,0.4c0,0.3,0,0.7,0,1c0,0,0.1,0,0.1,0c0.1-0.1,0.1-0.2,0.2-0.3c0.4-0.8,1-1.3,2-1.2c0.3,0,0.4,0.1,0.4,0.3
				c0,0.5,0,1,0,1.5c-0.1,0-0.2,0-0.3,0c-1.3,0-2,0.6-2,1.9c0,1.2,0,2.3,0,3.5c0,0.3-0.1,0.4-0.4,0.4
				C163.8,19.6,163.2,19.6,162.7,19.6z"/>
		</g>
		<g>
			<path class="st2" d="M183.9,11l0.3-4.1c0-0.3-0.1-0.6-0.4-0.8c-0.4-0.2-0.9-0.3-1.4,0c-0.3,0.2-0.4,0.5-0.4,0.8l0.4,4.1
				c0,0.3,0.2,0.5,0.4,0.6c0.2,0.1,0.5,0.2,0.8-0.1C183.7,11.5,183.9,11.3,183.9,11z"/>
			<path class="st2" d="M183.8,18.4l0.3,4.1c0,0.3-0.1,0.6-0.4,0.8c-0.4,0.2-0.9,0.3-1.4,0c-0.3-0.2-0.4-0.5-0.4-0.8l0.4-4.1
				c0-0.3,0.2-0.5,0.4-0.6c0.2-0.1,0.5-0.2,0.8,0.1C183.7,17.9,183.8,18.1,183.8,18.4z"/>
			<path class="st2" d="M180.3,17.2l-3.4,2.3c-0.3,0.2-0.6,0.2-0.9,0c-0.3-0.2-0.7-0.6-0.7-1.3c0-0.3,0.2-0.6,0.5-0.7l3.8-1.6
				c0.3-0.1,0.6-0.1,0.8,0.1c0.2,0.1,0.3,0.3,0.3,0.7C180.6,16.9,180.5,17.1,180.3,17.2z"/>
			<path class="st2" d="M186.7,13.6l3.7-1.9c0.3-0.1,0.5-0.5,0.5-0.8c0-0.4-0.2-0.9-0.8-1.2c-0.3-0.1-0.6-0.1-0.9,0.1l-3.3,2.5
				c-0.2,0.2-0.4,0.4-0.3,0.7c0,0.2,0.1,0.5,0.5,0.6C186.2,13.7,186.5,13.7,186.7,13.6z"/>
			<path class="st2" d="M180.3,12.1l-3.4-2.3c-0.3-0.2-0.6-0.2-0.9,0c-0.3,0.2-0.7,0.6-0.7,1.3c0,0.3,0.2,0.6,0.5,0.7l3.8,1.6
				c0.3,0.1,0.6,0.1,0.8-0.1c0.2-0.1,0.3-0.3,0.3-0.7C180.6,12.5,180.5,12.3,180.3,12.1z"/>
			<path class="st2" d="M185.8,17l3.3,2.4c0.3,0.2,0.6,0.2,0.9,0.1c0.3-0.2,0.7-0.6,0.8-1.2c0-0.3-0.2-0.6-0.5-0.8l-3.7-1.8
				c-0.2-0.1-0.5-0.1-0.8,0c-0.2,0.1-0.3,0.3-0.3,0.7C185.5,16.7,185.7,16.9,185.8,17z"/>
		</g>
	</g>
</g>
<g>
	<path class="st0" d="M73.9,26.1H10.3c-3.7,0-6.8-3.1-6.8-6.8V10c0-3.7,3.1-6.8,6.8-6.8h63.5c3.7,0,6.8,3.1,6.8,6.8v9.3
		C80.7,23.1,77.6,26.1,73.9,26.1z"/>
	<g>
		<g>
			<path class="st1" d="M15.2,17.3c0.1-0.3,0.1-0.5,0.2-0.8c0.4-2,0.8-4,1.2-5.9c0.2-1,0.2-1,1.2-1c0.3,0,0.6,0,1,0
				c-0.2,0.7-0.3,1.2-0.5,1.8c-0.7,2.6-1.4,5.2-2.1,7.8c-0.1,0.3-0.2,0.5-0.5,0.4c-0.3,0-0.6,0-0.9,0c-0.5-0.1-0.8-0.3-1-0.8
				c-0.1-0.3-0.2-0.7-0.3-1c-0.4-1.7-0.7-3.5-1.1-5.2c-0.1-0.2-0.1-0.5-0.1-0.7c0,0-0.1,0-0.1,0c0,0.1-0.1,0.3-0.1,0.4
				c-0.4,1.6-0.8,3.3-1.2,4.9c-0.2,0.7-0.3,1.3-0.5,1.9c-0.1,0.2-0.2,0.3-0.4,0.3c-0.1,0-0.1,0-0.2,0c-1.1,0.1-1.7-0.3-2-1.4
				c-0.5-2.2-1.1-4.3-1.6-6.5C6.2,11.1,6,10.4,5.8,9.6c0.7,0,1.4,0,2,0C7.9,9.6,8,9.8,8,9.9c0.2,1.1,0.4,2.3,0.7,3.4
				c0.2,1.3,0.5,2.6,0.7,3.9c0,0.1,0.1,0.1,0.1,0.3c0.1-0.5,0.2-1,0.3-1.4c0.5-2,0.9-4.1,1.4-6.1c0.1-0.2,0.1-0.4,0.4-0.4
				c0.5,0,1,0,1.5,0c0.2,0,0.3,0.1,0.4,0.3c0.2,1,0.4,2,0.6,3c0.3,1.4,0.5,2.8,0.8,4.2C15,17.2,15,17.3,15.2,17.3
				C15.1,17.3,15.1,17.3,15.2,17.3z"/>
			<path class="st1" d="M32,13.1c0.6-0.8,1.3-1.2,2.3-1.2c1,0,1.6,0.5,2.1,1.4c0.1-0.2,0.2-0.3,0.3-0.4c1-1.2,2.9-1.3,3.9-0.3
				c0.3,0.3,0.5,0.7,0.6,1.1c0.2,0.5,0.2,1,0.2,1.5c0,1.3,0,2.6,0,3.9c0,0.4-0.1,0.5-0.5,0.4c-0.4,0-0.8,0-1.1,0
				c-0.3,0-0.4-0.1-0.4-0.4c0-1.2,0-2.3,0-3.5c0-0.4,0-0.8-0.1-1.2c-0.2-0.7-0.7-1-1.4-0.9c-0.6,0.1-1.1,0.7-1.1,1.3
				c0,1.4,0,2.9,0,4.3c0,0.3-0.1,0.4-0.4,0.4c-0.4,0-0.9,0-1.3,0c-0.3,0-0.4-0.1-0.4-0.4c0-1.4,0-2.7,0-4.1c0-0.2,0-0.3-0.1-0.5
				c-0.2-0.8-0.6-1.1-1.3-1.1c-0.6,0-1.2,0.6-1.3,1.2c0,0.3-0.1,0.5-0.1,0.8c0,1.2,0,2.5,0,3.7c0,0.3-0.1,0.4-0.4,0.4
				c-0.4,0-0.9,0-1.3,0c-0.2,0-0.3-0.1-0.3-0.3c0-2.3,0-4.6,0-6.9c0-0.2,0.1-0.3,0.3-0.3c0.4,0,0.9,0,1.3,0c0.2,0,0.3,0.1,0.3,0.3
				c0,0.2,0,0.4,0,0.7C31.9,13.1,32,13.1,32,13.1z"/>
			<path class="st1" d="M19.4,13.8c-0.1-0.4-0.3-0.7-0.3-1c0-0.1,0.1-0.3,0.3-0.3c0.5-0.2,1-0.4,1.5-0.4c1.1-0.1,2.2-0.2,3.1,0.6
				c0.6,0.4,0.9,1.1,0.9,1.7C25,15.6,25,17,25,18.3c0,0.4,0,0.7,0.1,1.1c0,0.2-0.1,0.3-0.3,0.4c-0.7,0.1-1.2-0.1-1.6-0.7
				c0,0-0.1-0.1-0.1-0.2c-0.1,0.1-0.2,0.2-0.3,0.3c-0.9,0.8-2.5,0.9-3.5,0.2c-1.3-1-1.1-3.1,0.3-3.9c0.9-0.6,2-0.7,3-0.8
				c0.4,0,0.4-0.1,0.4-0.5c-0.1-0.5-0.5-0.8-1-0.9c-0.8-0.2-1.5,0-2.2,0.3C19.6,13.7,19.5,13.8,19.4,13.8z M23,16.7
				c0-0.2,0-0.3,0-0.5c0-0.1-0.2-0.3-0.2-0.2c-0.7,0-1.3,0-1.9,0.5c-0.4,0.3-0.6,0.9-0.4,1.3c0.2,0.5,0.7,0.7,1.2,0.6
				C22.6,18.3,23.1,17.7,23,16.7z"/>
			<path class="st1" d="M43.2,13.8c-0.1-0.4-0.2-0.7-0.3-1.1c0-0.1,0.1-0.2,0.2-0.3c0.5-0.2,1-0.4,1.6-0.5c1.1-0.1,2.2-0.2,3.1,0.5
				c0.7,0.5,1,1.3,1,2.1c0.1,1.1,0,2.1,0,3.2c0,0.5,0,1,0.1,1.5c0,0.3-0.1,0.4-0.3,0.4c-0.7,0.1-1.2-0.1-1.5-0.7
				c0,0-0.1-0.1-0.1-0.2c-0.1,0.1-0.2,0.2-0.3,0.3c-1.1,1-3.1,0.9-3.9-0.2c-0.6-0.9-0.5-2.4,0.3-3.1c0.4-0.4,1-0.7,1.5-0.8
				c0.6-0.1,1.3-0.2,1.9-0.3c0.3,0,0.3-0.2,0.3-0.4c-0.1-0.5-0.4-0.8-0.9-1c-0.8-0.2-1.6,0.1-2.4,0.4C43.4,13.8,43.3,13.8,43.2,13.8
				z M46.9,16.6c0-0.1,0-0.3,0-0.4c0-0.1-0.2-0.3-0.2-0.3c-0.7,0-1.3,0.1-1.9,0.5c-0.4,0.3-0.6,0.9-0.4,1.3c0.2,0.4,0.7,0.7,1.2,0.6
				C46.3,18.3,47,17.8,46.9,16.6z"/>
			<path class="st1" d="M55.7,13.7c0-1.2,0-2.5,0-3.7c0-0.3,0.1-0.4,0.4-0.4c0.4,0,0.8,0,1.2,0c0.2,0,0.3,0.1,0.3,0.3
				c0,0.6,0,1.1,0,1.7c0,0.3,0.1,0.4,0.4,0.4c0.4,0,0.8,0,1.2,0c0.2,0,0.3,0.1,0.3,0.3c0,0.4,0,0.8,0,1.2c0,0.2-0.1,0.3-0.3,0.3
				c-0.4,0-0.8,0-1.2,0c-0.1,0-0.3,0.2-0.3,0.2c0,1.1,0,2.1,0,3.2c0.1,0.8,0.5,1,1.3,0.9c0.3-0.1,0.4,0,0.4,0.4c0,0.1,0,0.1,0,0.2
				c0,1.1,0.2,0.9-0.9,1.1c-0.3,0.1-0.6,0-0.9,0c-1.3-0.1-1.9-0.9-1.9-2.4C55.7,16.2,55.7,14.9,55.7,13.7z"/>
			<path class="st1" d="M26.5,14.6c0-1.5,0-3.1,0-4.6c0-0.3,0.1-0.4,0.4-0.4c0.4,0,0.8,0,1.2,0c0.2,0,0.3,0.1,0.3,0.3
				c0,3.1,0,6.3,0,9.4c0,0.2-0.1,0.3-0.3,0.3c-0.4,0-0.9,0-1.3,0c-0.3,0-0.3-0.1-0.3-0.4C26.5,17.7,26.5,16.1,26.5,14.6z"/>
			<path class="st1" d="M50.3,19.6c0-1,0-1.9,0-2.8c0-1.4,0-2.9,0-4.3c0-0.3,0.1-0.4,0.4-0.4c0.3,0,0.7,0,1,0c0.3,0,0.4,0.1,0.4,0.4
				c0,0.3,0,0.7,0,1c0,0,0.1,0,0.1,0c0.1-0.1,0.1-0.2,0.2-0.3c0.4-0.8,1-1.3,2-1.2c0.3,0,0.4,0.1,0.4,0.3c0,0.5,0,1,0,1.5
				c-0.1,0-0.2,0-0.3,0c-1.3,0-2,0.6-2,1.9c0,1.2,0,2.3,0,3.5c0,0.3-0.1,0.4-0.4,0.4C51.5,19.6,50.9,19.6,50.3,19.6z"/>
		</g>
		<g>
			<path class="st3" d="M71.5,11l0.3-4.1c0-0.3-0.1-0.6-0.4-0.8c-0.4-0.2-0.9-0.3-1.4,0c-0.3,0.2-0.4,0.5-0.4,0.8l0.4,4.1
				c0,0.3,0.2,0.5,0.4,0.6c0.2,0.1,0.5,0.2,0.8-0.1C71.4,11.5,71.5,11.2,71.5,11z"/>
			<path class="st3" d="M71.5,18.4l0.3,4.1c0,0.3-0.1,0.6-0.4,0.8c-0.4,0.2-0.9,0.3-1.4,0c-0.3-0.2-0.4-0.5-0.4-0.8l0.4-4.1
				c0-0.3,0.2-0.5,0.4-0.6c0.2-0.1,0.5-0.2,0.8,0.1C71.4,17.9,71.5,18.1,71.5,18.4z"/>
			<path class="st3" d="M68,17.2l-3.4,2.3c-0.3,0.2-0.6,0.2-0.9,0c-0.3-0.2-0.7-0.6-0.7-1.3c0-0.3,0.2-0.6,0.5-0.7l3.8-1.6
				c0.3-0.1,0.6-0.1,0.8,0.1c0.2,0.1,0.3,0.3,0.3,0.7C68.3,16.9,68.2,17.1,68,17.2z"/>
			<path class="st3" d="M74.4,13.6l3.7-1.9c0.3-0.1,0.5-0.5,0.5-0.8c0-0.4-0.2-0.9-0.8-1.2c-0.3-0.1-0.6-0.1-0.9,0.1l-3.3,2.5
				c-0.2,0.2-0.4,0.4-0.3,0.7c0,0.2,0.1,0.5,0.5,0.6C73.9,13.7,74.1,13.7,74.4,13.6z"/>
			<path class="st3" d="M68,12.1l-3.4-2.3c-0.3-0.2-0.6-0.2-0.9,0c-0.3,0.2-0.7,0.6-0.7,1.3c0,0.3,0.2,0.6,0.5,0.7l3.8,1.6
				c0.3,0.1,0.6,0.1,0.8-0.1c0.2-0.1,0.3-0.3,0.3-0.7C68.3,12.5,68.2,12.3,68,12.1z"/>
			<path class="st3" d="M73.5,17l3.3,2.4c0.3,0.2,0.6,0.2,0.9,0.1c0.3-0.2,0.7-0.6,0.8-1.2c0-0.3-0.2-0.6-0.5-0.8l-3.7-1.8
				c-0.2-0.1-0.5-0.1-0.8,0c-0.2,0.1-0.3,0.3-0.3,0.7C73.2,16.7,73.3,16.9,73.5,17z"/>
		</g>
	</g>
</g>
</svg>
