<?xml version="1.0" encoding="utf-8"?>
<!-- Generator: Adobe Illustrator 24.0.0, SVG Export Plug-In . SVG Version: 6.00 Build 0)  -->
<svg version="1.1" id="Capa_1" xmlns="http://www.w3.org/2000/svg" xmlns:xlink="http://www.w3.org/1999/xlink" x="0px" y="0px"
	 viewBox="0 0 792 612" style="enable-background:new 0 0 792 612;" xml:space="preserve">
<style type="text/css">
	.st0{fill:#0079C5;}
	.st1{fill:#FFBC00;}
</style>
<g>
	<g>
		<path class="st0" d="M131.87,321.84c0.56-2.69,1.13-5.38,1.67-8.07c3.95-19.51,7.88-39.02,11.85-58.53
			c2.03-10,2.06-9.99,12.24-9.99c3.15,0,6.3,0,10.08,0c-1.66,6.44-3.13,12.21-4.65,17.96c-6.82,25.84-13.67,51.68-20.48,77.52
			c-0.7,2.67-1.88,4.47-5.05,4.26c-3.04-0.2-6.15,0.15-9.15-0.29c-4.49-0.66-7.89-3.21-9.57-7.51c-1.24-3.17-2.33-6.44-3.04-9.76
			c-3.63-17.06-7.12-34.14-10.63-51.22c-0.46-2.25-0.76-4.53-1.14-6.8c-0.33-0.01-0.66-0.02-0.99-0.04
			c-0.34,1.4-0.69,2.81-1.02,4.21c-3.81,16.28-7.59,32.56-11.43,48.84c-1.51,6.42-3.2,12.8-4.65,19.24c-0.5,2.23-1.55,3.3-3.84,3.21
			c-0.7-0.03-1.41,0.13-2.11,0.22c-11.09,1.35-17.09-2.57-19.79-13.4c-5.32-21.26-10.47-42.57-15.7-63.85
			c-1.79-7.3-3.59-14.6-5.54-22.5c6.96,0,13.52-0.09,20.07,0.13c0.68,0.02,1.68,1.81,1.9,2.91c2.27,11.19,4.47,22.39,6.59,33.61
			c2.43,12.84,4.75,25.71,7.15,38.55c0.11,0.61,0.54,1.17,1.3,2.74c1.17-5.3,2.09-9.6,3.06-13.9c4.59-20.22,9.22-40.43,13.78-60.66
			c0.54-2.38,1.43-3.68,4.23-3.56c5.07,0.23,10.17,0.16,15.25,0.02c2.33-0.06,3.3,0.73,3.76,3.06c1.96,9.93,4.2,19.81,6.18,29.74
			c2.75,13.85,5.35,27.74,8.04,41.6c0.14,0.74,0.51,1.44,0.78,2.17C131.3,321.8,131.59,321.82,131.87,321.84z"/>
		<path class="st0" d="M298.21,280.15c5.41-7.88,12.61-11.83,22.2-11.64c9.7,0.2,16.21,4.9,20.8,13.6c1.3-1.57,2.24-2.73,3.2-3.87
			c9.86-11.68,28.31-13.34,38.08-3.02c2.81,2.96,4.99,6.98,6.17,10.9c1.47,4.88,2.1,10.16,2.22,15.28
			c0.3,12.86-0.02,25.73,0.18,38.59c0.06,3.52-1.14,4.54-4.47,4.33c-3.77-0.24-7.57-0.19-11.35-0.02c-2.92,0.13-3.96-0.99-3.94-3.9
			c0.11-11.45,0.15-22.9-0.02-34.34c-0.06-4.09-0.33-8.29-1.3-12.24c-1.67-6.79-7.13-10.14-13.89-9.21
			c-6.02,0.82-11.14,6.53-11.17,12.78c-0.08,14.28-0.11,28.56,0.03,42.84c0.03,3.02-0.69,4.29-3.92,4.1
			c-4.24-0.24-8.51-0.16-12.77-0.03c-2.59,0.08-3.5-0.86-3.48-3.5c0.1-13.57,0.06-27.14,0.01-40.71c-0.01-1.63-0.2-3.29-0.57-4.88
			c-1.73-7.37-5.77-10.79-12.43-10.67c-5.84,0.11-11.93,5.48-12.97,11.64c-0.43,2.54-0.65,5.15-0.67,7.73
			c-0.07,12.15-0.1,24.31,0.02,36.46c0.03,2.86-0.8,4.08-3.81,3.95c-4.25-0.19-8.51-0.1-12.77-0.04c-2.11,0.03-2.91-0.82-2.91-2.96
			c0.05-22.78,0.04-45.55,0-68.33c0-1.95,0.68-2.8,2.68-2.77c4.26,0.06,8.51,0.05,12.77,0.01c1.95-0.02,2.81,0.84,2.77,2.77
			c-0.05,2.18-0.01,4.37-0.01,6.56C297.35,279.74,297.78,279.94,298.21,280.15z"/>
		<path class="st0" d="M173.62,287.1c-1.15-3.58-2.47-6.87-3.12-10.28c-0.19-0.99,1.35-3.03,2.49-3.42
			c5.01-1.7,10.09-3.67,15.29-4.26c10.73-1.22,21.57-1.66,30.88,5.56c5.66,4.39,8.82,10.47,9.22,17.29
			c0.76,12.93,0.61,25.91,0.89,38.87c0.08,3.53,0.24,7.07,0.64,10.57c0.27,2.41-0.55,3.35-2.9,3.78
			c-6.94,1.25-11.97-0.94-15.48-7.01c-0.28-0.49-0.66-0.92-1.25-1.71c-1.17,1.02-2.2,1.9-3.2,2.8c-9.15,8.21-25.05,9.2-34.17,2.12
			c-12.49-9.69-10.93-30.19,2.75-38.26c9.18-5.41,19.3-6.65,29.58-7.43c3.98-0.3,4.24-0.64,3.45-4.41
			c-1.09-5.22-4.71-7.69-9.51-8.81c-7.76-1.82-14.96,0.44-22.08,3.19C176.04,286.1,174.97,286.55,173.62,287.1z M209.75,315.2
			c0-1.53,0.29-3.14-0.1-4.57c-0.26-0.98-1.48-2.45-2.23-2.43c-6.62,0.18-13.29,0.42-18.92,4.65c-4.16,3.13-5.56,8.56-3.47,13.31
			c1.98,4.52,6.45,6.85,11.59,6.05C205.65,330.79,209.78,325.46,209.75,315.2z"/>
		<path class="st0" d="M409.29,287.24c-1.17-3.8-2.41-7.33-3.24-10.96c-0.16-0.71,1.15-2.31,2.08-2.61
			c5.14-1.69,10.27-3.79,15.58-4.46c10.72-1.35,21.53-1.75,30.9,5.32c6.97,5.26,9.65,12.8,10.05,20.97
			c0.51,10.47,0.06,20.98,0.18,31.48c0.05,4.82,0.34,9.65,0.77,14.45c0.24,2.66-0.94,3.47-3.31,3.84c-6.89,1.08-11.55-1.09-15-7.19
			c-0.27-0.48-0.71-0.88-1.39-1.7c-1.13,1.04-2.12,1.95-3.12,2.87c-10.94,10.14-30.33,8.96-38.6-2.36
			c-6.34-8.67-4.94-23.21,3.01-30.49c4.35-3.98,9.45-6.77,15.23-7.87c6.36-1.21,12.78-2.15,19.22-2.74
			c2.92-0.27,3.31-1.52,3.03-3.82c-0.55-4.45-4.41-8.37-9.36-9.48c-8.4-1.89-16.11,0.55-23.72,3.71
			C410.97,286.48,410.35,286.77,409.29,287.24z M445.49,314.89c0-1.26,0.31-2.78-0.1-4.06c-0.33-1.06-1.53-2.63-2.33-2.62
			c-6.53,0.04-13.02,0.51-18.63,4.47c-3.89,2.74-5.64,8.74-3.88,13.33c1.64,4.26,6.62,6.92,11.58,6.21
			C439.59,331.15,446.45,326.21,445.49,314.89z"/>
		<path class="st0" d="M532.63,286.1c0-12.27,0.08-24.53-0.06-36.8c-0.03-3,0.73-4.31,3.96-4.1c4,0.25,8.03,0.13,12.05,0.04
			c2.12-0.04,2.95,0.79,2.91,2.92c-0.08,5.66,0.07,11.32-0.05,16.98c-0.06,2.75,0.96,3.8,3.74,3.67c3.89-0.18,7.8,0.04,11.7-0.07
			c2.15-0.06,2.97,0.76,2.92,2.89c-0.09,4.13-0.09,8.26-0.01,12.38c0.04,2.18-0.97,2.91-3.01,2.89c-4.02-0.05-8.05-0.17-12.05,0.13
			c-1.12,0.08-3.06,1.5-3.07,2.32c-0.09,10.48-0.4,21.01,0.41,31.44c0.59,7.59,4.97,10.36,12.59,9.16c3.32-0.52,4.38,0.45,4.09,3.55
			c-0.05,0.58,0.05,1.18,0.08,1.77c0.45,10.52,1.65,8.69-8.64,10.55c-2.75,0.5-5.68,0.39-8.48,0.09
			c-12.5-1.34-18.84-9.15-19.05-23.71C532.49,310.16,532.63,298.13,532.63,286.1z"/>
		<path class="st0" d="M243.93,294.69c0-15.1,0.09-30.2-0.07-45.3c-0.04-3.28,0.95-4.39,4.21-4.19c4,0.24,8.04,0.13,12.05,0.03
			c2.18-0.05,3.2,0.59,3.2,3c-0.06,31.03-0.05,62.05-0.01,93.08c0,2.13-0.79,2.99-2.9,2.96c-4.37-0.06-8.75-0.12-13.12,0.02
			c-2.69,0.09-3.42-1.05-3.4-3.59C243.97,325.36,243.93,310.03,243.93,294.69z"/>
		<path class="st0" d="M479.49,344.25c0-9.48,0-18.43,0-27.38c0-14.27,0.07-28.54-0.06-42.82c-0.03-2.84,0.65-4.09,3.71-3.89
			c3.41,0.23,6.86,0.17,10.28,0.01c2.59-0.12,3.65,0.78,3.51,3.44c-0.17,3.32-0.04,6.66-0.04,9.99c0.44,0.1,0.88,0.19,1.32,0.29
			c0.59-1.01,1.2-2,1.76-3.03c4.22-7.72,10.31-12.41,19.52-12.31c2.47,0.03,3.66,0.65,3.55,3.41c-0.19,4.91-0.05,9.84-0.05,14.99
			c-1.34,0-2.26,0.03-3.18,0c-12.7-0.48-20,6.35-20.15,19.13c-0.14,11.44-0.11,22.88,0.02,34.32c0.03,2.91-0.88,3.99-3.83,3.9
			C490.55,344.13,485.24,344.25,479.49,344.25z"/>
	</g>
	<g>
		<path class="st1" d="M689.22,259.26l3.28-40.33c0.26-3.2-1.37-6.29-4.21-7.79c-3.46-1.83-8.58-3.11-14.24,0.27
			c-2.69,1.6-4.18,4.63-3.87,7.75l4.01,40.62c0.25,2.55,1.66,4.89,3.88,6.15c1.99,1.14,4.72,1.56,7.95-0.84
			C687.87,263.71,689.03,261.57,689.22,259.26z"/>
		<path class="st1" d="M688.73,331.79l3.28,40.33c0.26,3.2-1.37,6.29-4.21,7.79c-3.46,1.83-8.58,3.11-14.24-0.27
			c-2.69-1.6-4.18-4.63-3.87-7.75l4.01-40.62c0.25-2.55,1.66-4.89,3.88-6.15c1.99-1.14,4.72-1.56,7.95,0.84
			C687.38,327.34,688.54,329.47,688.73,331.79z"/>
		<path class="st1" d="M653.73,320.52l-33.67,22.45c-2.67,1.78-6.16,1.85-8.85,0.1c-3.28-2.14-6.88-5.99-6.68-12.58
			c0.1-3.13,2.02-5.91,4.89-7.15l37.44-16.21c2.51-1.09,5.45-0.9,7.69,0.67c1.78,1.24,3.2,3.39,2.72,7.08
			C656.97,317.18,655.66,319.23,653.73,320.52z"/>
		<path class="st1" d="M717,284.53l36.06-18.36c2.85-1.45,4.63-4.45,4.42-7.65c-0.25-3.91-1.85-8.95-7.7-12.01
			c-2.77-1.45-6.14-1.13-8.63,0.76l-32.47,24.71c-2.18,1.66-3.45,4.31-3.18,7.03c0.21,2.16,1.38,4.45,4.85,5.84
			C712.5,285.72,714.93,285.58,717,284.53z"/>
		<path class="st1" d="M653.88,270.44l-33.76-22.31c-2.68-1.77-6.17-1.83-8.85-0.07c-3.28,2.15-6.86,6.02-6.63,12.61
			c0.11,3.12,2.05,5.9,4.92,7.13l37.51,16.06c2.52,1.08,5.45,0.88,7.69-0.7c1.77-1.25,3.19-3.4,2.69-7.1
			C657.13,273.76,655.81,271.72,653.88,270.44z"/>
		<path class="st1" d="M708.74,318.82l32.4,24.24c2.57,1.92,6.05,2.19,8.84,0.58c3.4-1.96,7.2-5.61,7.35-12.2
			c0.07-3.13-1.7-6.01-4.5-7.4l-36.51-18.22c-2.45-1.22-5.39-1.19-7.71,0.25c-1.84,1.14-3.38,3.21-3.1,6.93
			C705.68,315.32,706.88,317.43,708.74,318.82z"/>
	</g>
</g>
</svg>
