<?xml version="1.0" encoding="utf-8"?>
<!-- Generator: Adobe Illustrator 24.0.0, SVG Export Plug-In . SVG Version: 6.00 Build 0)  -->
<svg version="1.1" id="Capa_1" xmlns="http://www.w3.org/2000/svg" xmlns:xlink="http://www.w3.org/1999/xlink" x="0px" y="0px"
	 viewBox="0 0 36.7 38.2" style="enable-background:new 0 0 36.7 38.2;" xml:space="preserve">
<style type="text/css">
	.st0{fill:#0079C5;}
	.st1{fill:#C1C1C1;}
	.st2{fill:#FFBC00;}
	.st3{fill:none;}
	.st4{fill-rule:evenodd;clip-rule:evenodd;fill:#1D1D1B;}
</style>
<g>
	<path class="st0" d="M10.9,29.1c0-0.1,0-0.2,0.1-0.4c0.2-0.9,0.3-1.7,0.5-2.6c0.1-0.4,0.1-0.4,0.5-0.4c0.1,0,0.3,0,0.4,0
		c-0.1,0.3-0.1,0.5-0.2,0.8c-0.3,1.1-0.6,2.3-0.9,3.4c0,0.1-0.1,0.2-0.2,0.2c-0.1,0-0.3,0-0.4,0c-0.2,0-0.3-0.1-0.4-0.3
		c-0.1-0.1-0.1-0.3-0.1-0.4c-0.2-0.8-0.3-1.5-0.5-2.3c0-0.1,0-0.2-0.1-0.3c0,0,0,0,0,0c0,0.1,0,0.1,0,0.2c-0.2,0.7-0.3,1.4-0.5,2.2
		C9.1,29.4,9,29.7,8.9,30c0,0.1-0.1,0.1-0.2,0.1c0,0-0.1,0-0.1,0c-0.5,0.1-0.8-0.1-0.9-0.6c-0.2-0.9-0.5-1.9-0.7-2.8
		c-0.1-0.3-0.2-0.6-0.2-1c0.3,0,0.6,0,0.9,0c0,0,0.1,0.1,0.1,0.1c0.1,0.5,0.2,1,0.3,1.5c0.1,0.6,0.2,1.1,0.3,1.7c0,0,0,0.1,0.1,0.1
		c0.1-0.2,0.1-0.4,0.1-0.6c0.2-0.9,0.4-1.8,0.6-2.7c0-0.1,0.1-0.2,0.2-0.2c0.2,0,0.4,0,0.7,0c0.1,0,0.1,0,0.2,0.1
		c0.1,0.4,0.2,0.9,0.3,1.3C10.6,27.8,10.8,28.4,10.9,29.1C10.9,29,10.9,29.1,10.9,29.1C10.9,29.1,10.9,29.1,10.9,29.1z"/>
	<path class="st0" d="M18.3,27.2c0.2-0.3,0.6-0.5,1-0.5c0.4,0,0.7,0.2,0.9,0.6c0.1-0.1,0.1-0.1,0.1-0.2c0.4-0.5,1.2-0.6,1.7-0.1
		c0.1,0.1,0.2,0.3,0.3,0.5c0.1,0.2,0.1,0.4,0.1,0.7c0,0.6,0,1.1,0,1.7c0,0.2-0.1,0.2-0.2,0.2c-0.2,0-0.3,0-0.5,0
		c-0.1,0-0.2,0-0.2-0.2c0-0.5,0-1,0-1.5c0-0.2,0-0.4-0.1-0.5c-0.1-0.3-0.3-0.4-0.6-0.4c-0.3,0-0.5,0.3-0.5,0.6c0,0.6,0,1.3,0,1.9
		c0,0.1,0,0.2-0.2,0.2c-0.2,0-0.4,0-0.6,0c-0.1,0-0.2,0-0.2-0.2c0-0.6,0-1.2,0-1.8c0-0.1,0-0.1,0-0.2c-0.1-0.3-0.3-0.5-0.5-0.5
		c-0.3,0-0.5,0.2-0.6,0.5c0,0.1,0,0.2,0,0.3c0,0.5,0,1.1,0,1.6c0,0.1,0,0.2-0.2,0.2c-0.2,0-0.4,0-0.6,0c-0.1,0-0.1,0-0.1-0.1
		c0-1,0-2,0-3c0-0.1,0-0.1,0.1-0.1c0.2,0,0.4,0,0.6,0c0.1,0,0.1,0,0.1,0.1C18.2,27,18.2,27.1,18.3,27.2
		C18.2,27.2,18.3,27.2,18.3,27.2z"/>
	<path class="st0" d="M12.8,27.6c-0.1-0.2-0.1-0.3-0.1-0.5c0,0,0.1-0.1,0.1-0.2c0.2-0.1,0.4-0.2,0.7-0.2c0.5-0.1,1-0.1,1.4,0.2
		c0.2,0.2,0.4,0.5,0.4,0.8c0,0.6,0,1.1,0,1.7c0,0.2,0,0.3,0,0.5c0,0.1,0,0.1-0.1,0.2c-0.3,0.1-0.5,0-0.7-0.3c0,0,0,0-0.1-0.1
		c-0.1,0-0.1,0.1-0.1,0.1c-0.4,0.4-1.1,0.4-1.5,0.1c-0.6-0.4-0.5-1.3,0.1-1.7c0.4-0.2,0.9-0.3,1.3-0.3c0.2,0,0.2,0,0.2-0.2
		c0-0.2-0.2-0.3-0.4-0.4c-0.3-0.1-0.7,0-1,0.1C12.9,27.5,12.8,27.5,12.8,27.6z M14.4,28.8c0-0.1,0-0.1,0-0.2c0,0-0.1-0.1-0.1-0.1
		c-0.3,0-0.6,0-0.8,0.2c-0.2,0.1-0.2,0.4-0.2,0.6c0.1,0.2,0.3,0.3,0.5,0.3C14.2,29.5,14.4,29.2,14.4,28.8z"/>
	<path class="st0" d="M23.2,27.6c-0.1-0.2-0.1-0.3-0.1-0.5c0,0,0.1-0.1,0.1-0.1c0.2-0.1,0.5-0.2,0.7-0.2c0.5-0.1,0.9-0.1,1.4,0.2
		c0.3,0.2,0.4,0.6,0.4,0.9c0,0.5,0,0.9,0,1.4c0,0.2,0,0.4,0,0.6c0,0.1,0,0.2-0.1,0.2c-0.3,0-0.5,0-0.7-0.3c0,0,0,0-0.1-0.1
		c0,0-0.1,0.1-0.1,0.1c-0.5,0.4-1.3,0.4-1.7-0.1c-0.3-0.4-0.2-1,0.1-1.3c0.2-0.2,0.4-0.3,0.7-0.3c0.3-0.1,0.6-0.1,0.8-0.1
		c0.1,0,0.1-0.1,0.1-0.2c0-0.2-0.2-0.4-0.4-0.4c-0.4-0.1-0.7,0-1,0.2C23.3,27.5,23.2,27.5,23.2,27.6z M24.8,28.8c0-0.1,0-0.1,0-0.2
		c0,0-0.1-0.1-0.1-0.1c-0.3,0-0.6,0-0.8,0.2c-0.2,0.1-0.2,0.4-0.2,0.6c0.1,0.2,0.3,0.3,0.5,0.3C24.5,29.5,24.8,29.3,24.8,28.8z"/>
	<path class="st0" d="M28.6,27.5c0-0.5,0-1.1,0-1.6c0-0.1,0-0.2,0.2-0.2c0.2,0,0.4,0,0.5,0c0.1,0,0.1,0,0.1,0.1c0,0.2,0,0.5,0,0.7
		c0,0.1,0,0.2,0.2,0.2c0.2,0,0.3,0,0.5,0c0.1,0,0.1,0,0.1,0.1c0,0.2,0,0.4,0,0.5c0,0.1,0,0.1-0.1,0.1c-0.2,0-0.4,0-0.5,0
		c0,0-0.1,0.1-0.1,0.1c0,0.5,0,0.9,0,1.4c0,0.3,0.2,0.5,0.6,0.4c0.1,0,0.2,0,0.2,0.2c0,0,0,0.1,0,0.1c0,0.5,0.1,0.4-0.4,0.5
		c-0.1,0-0.3,0-0.4,0c-0.6-0.1-0.8-0.4-0.8-1C28.6,28.6,28.6,28,28.6,27.5z"/>
	<path class="st0" d="M15.9,27.9c0-0.7,0-1.3,0-2c0-0.1,0-0.2,0.2-0.2c0.2,0,0.4,0,0.5,0c0.1,0,0.1,0,0.1,0.1c0,1.4,0,2.7,0,4.1
		c0,0.1,0,0.1-0.1,0.1c-0.2,0-0.4,0-0.6,0c-0.1,0-0.2,0-0.1-0.2C15.9,29.2,15.9,28.6,15.9,27.9z"/>
	<path class="st0" d="M26.3,30.1c0-0.4,0-0.8,0-1.2c0-0.6,0-1.3,0-1.9c0-0.1,0-0.2,0.2-0.2c0.2,0,0.3,0,0.5,0c0.1,0,0.2,0,0.2,0.2
		c0,0.1,0,0.3,0,0.4c0,0,0,0,0.1,0c0,0,0.1-0.1,0.1-0.1c0.2-0.3,0.5-0.5,0.9-0.5c0.1,0,0.2,0,0.2,0.2c0,0.2,0,0.4,0,0.7
		c-0.1,0-0.1,0-0.1,0c-0.6,0-0.9,0.3-0.9,0.8c0,0.5,0,1,0,1.5c0,0.1,0,0.2-0.2,0.2C26.8,30.1,26.5,30.1,26.3,30.1z"/>
</g>
<path class="st1" d="M33.6,31.5c-0.4,0-0.8,0-1.2,0c-0.6,0-1.3,0-1.9,0c-0.1,0-0.2,0-0.2-0.2c0-0.2,0-0.3,0-0.5c0-0.1,0-0.2,0.2-0.2
	c0.1,0,0.3,0,0.4,0c0,0,0,0,0-0.1c0,0-0.1-0.1-0.1-0.1c-0.3-0.2-0.5-0.5-0.5-0.9c0-0.1,0-0.2,0.2-0.2c0.2,0,0.4,0,0.7,0
	c0,0.1,0,0.1,0,0.1c0,0.6,0.3,0.9,0.8,0.9c0.5,0,1,0,1.5,0c0.1,0,0.2,0,0.2,0.2C33.6,31,33.6,31.3,33.6,31.5z"/>
<path class="st1" d="M21.1,34c-0.4,0-0.8,0-1.2,0c-0.6,0-1.3,0-1.9,0c-0.1,0-0.2,0-0.2-0.2c0-0.2,0-0.3,0-0.5c0-0.1,0-0.2,0.2-0.2
	c0.1,0,0.3,0,0.4,0c0,0,0,0,0-0.1c0,0-0.1-0.1-0.1-0.1c-0.3-0.2-0.5-0.5-0.5-0.9c0-0.1,0-0.2,0.2-0.2c0.2,0,0.4,0,0.7,0
	c0,0.1,0,0.1,0,0.1c0,0.6,0.3,0.9,0.8,0.9c0.5,0,1,0,1.5,0c0.1,0,0.2,0,0.2,0.2C21.1,33.5,21.1,33.7,21.1,34z"/>
<path class="st1" d="M6.8,26.6c-0.4,0-0.8,0-1.2,0c-0.6,0-1.3,0-1.9,0c-0.1,0-0.2,0-0.2-0.2c0-0.2,0-0.3,0-0.5c0-0.1,0-0.2,0.2-0.2
	c0.1,0,0.3,0,0.4,0c0,0,0,0,0-0.1c0,0-0.1-0.1-0.1-0.1c-0.3-0.2-0.5-0.5-0.5-0.9c0-0.1,0-0.2,0.2-0.2c0.2,0,0.4,0,0.7,0
	c0,0.1,0,0.1,0,0.1c0,0.6,0.3,0.9,0.8,0.9c0.5,0,1,0,1.5,0c0.1,0,0.2,0,0.2,0.2C6.8,26.1,6.8,26.3,6.8,26.6z"/>
<path class="st1" d="M20.2,4.2c-0.4,0-0.8,0-1.2,0c-0.6,0-1.3,0-1.9,0c-0.1,0-0.2,0-0.2-0.2c0-0.2,0-0.3,0-0.5c0-0.1,0-0.2,0.2-0.2
	c0.1,0,0.3,0,0.4,0c0,0,0,0,0-0.1c0,0-0.1-0.1-0.1-0.1c-0.3-0.2-0.5-0.5-0.5-0.9c0-0.1,0-0.2,0.2-0.2c0.2,0,0.4,0,0.7,0
	c0,0.1,0,0.1,0,0.1c0,0.6,0.3,0.9,0.8,0.9c0.5,0,1,0,1.5,0c0.1,0,0.2,0,0.2,0.2C20.2,3.7,20.2,4,20.2,4.2z"/>
<g>
	<path class="st2" d="M19.5,10.3l0.4-4.9c0-0.4-0.2-0.8-0.5-0.9c-0.4-0.2-1-0.4-1.7,0c-0.3,0.2-0.5,0.6-0.5,0.9l0.5,4.9
		c0,0.3,0.2,0.6,0.5,0.7c0.2,0.1,0.6,0.2,1-0.1C19.4,10.8,19.5,10.5,19.5,10.3z"/>
	<path class="st2" d="M19.5,19.1l0.4,4.9c0,0.4-0.2,0.8-0.5,0.9c-0.4,0.2-1,0.4-1.7,0c-0.3-0.2-0.5-0.6-0.5-0.9l0.5-4.9
		c0-0.3,0.2-0.6,0.5-0.7c0.2-0.1,0.6-0.2,1,0.1C19.3,18.5,19.5,18.8,19.5,19.1z"/>
	<path class="st2" d="M15.2,17.7l-4.1,2.7c-0.3,0.2-0.7,0.2-1.1,0c-0.4-0.3-0.8-0.7-0.8-1.5c0-0.4,0.2-0.7,0.6-0.9l4.5-2
		c0.3-0.1,0.7-0.1,0.9,0.1c0.2,0.2,0.4,0.4,0.3,0.9C15.6,17.3,15.5,17.5,15.2,17.7z"/>
	<path class="st2" d="M22.9,13.3l4.4-2.2c0.3-0.2,0.6-0.5,0.5-0.9c0-0.5-0.2-1.1-0.9-1.5c-0.3-0.2-0.7-0.1-1,0.1l-3.9,3
		c-0.3,0.2-0.4,0.5-0.4,0.9c0,0.3,0.2,0.5,0.6,0.7C22.4,13.5,22.7,13.5,22.9,13.3z"/>
	<path class="st2" d="M15.3,11.6l-4.1-2.7c-0.3-0.2-0.7-0.2-1.1,0c-0.4,0.3-0.8,0.7-0.8,1.5c0,0.4,0.2,0.7,0.6,0.9l4.6,2
		c0.3,0.1,0.7,0.1,0.9-0.1c0.2-0.2,0.4-0.4,0.3-0.9C15.6,12,15.5,11.8,15.3,11.6z"/>
	<path class="st2" d="M21.9,17.5l3.9,2.9c0.3,0.2,0.7,0.3,1.1,0.1c0.4-0.2,0.9-0.7,0.9-1.5c0-0.4-0.2-0.7-0.5-0.9l-4.4-2.2
		c-0.3-0.1-0.7-0.1-0.9,0c-0.2,0.1-0.4,0.4-0.4,0.8C21.5,17.1,21.7,17.3,21.9,17.5z"/>
</g>
<g>
	<path class="st0" d="M25.3,31c0,0.3,0,0.6,0,0.9c0,0.1,0,0.1-0.1,0.1C25,32,25,31.9,25,31.8c0-0.4,0-0.7,0.1-1.1c0,0,0-0.1,0.1-0.1
		c0.1-0.1,0.3,0,0.4,0.2c0.1,0.2,0.1,0.4,0.2,0.6c0,0,0,0.1,0.1,0.1c0.1-0.3,0.2-0.5,0.2-0.8c0-0.2,0.1-0.2,0.3-0.2
		c0.1,0,0.1,0.1,0.1,0.2c0,0.3,0,0.6,0.1,0.9c0,0.1,0,0.2-0.1,0.2c-0.1,0-0.2,0-0.2-0.2c0-0.3,0-0.6-0.1-0.8
		c-0.1,0.3-0.2,0.5-0.2,0.8c0,0,0,0.1,0,0.1c0,0-0.1,0.1-0.1,0.1c0,0-0.1-0.1-0.1-0.1c-0.1-0.2-0.1-0.5-0.2-0.7
		C25.4,31.1,25.4,31,25.3,31C25.3,31,25.3,31,25.3,31z"/>
	<path class="st0" d="M14,31.3c0-0.2,0-0.3,0-0.5c0,0,0.1-0.1,0.1-0.1c0.2,0,0.5,0,0.7,0c0.3,0.1,0.4,0.3,0.4,0.5
		c0,0.3-0.1,0.6-0.4,0.7C14.5,32,14.3,32,14.1,32c0,0-0.1-0.1-0.1-0.1C14,31.7,14,31.5,14,31.3z M14.2,31.3
		C14.2,31.3,14.2,31.3,14.2,31.3c0,0.1,0,0.2,0,0.3c0,0.1,0,0.1,0.1,0.1c0.2,0,0.3,0,0.4-0.2c0.1-0.2,0.1-0.4,0-0.6
		c-0.1-0.1-0.3-0.2-0.4-0.1c-0.1,0-0.1,0.2-0.1,0.3C14.2,31.2,14.2,31.3,14.2,31.3z"/>
	<path class="st0" d="M8.1,32C7.9,32,7.8,32,7.8,31.8c0-0.2-0.1-0.2-0.3-0.2c-0.1,0-0.2,0-0.3,0.2C7.2,32,7.2,32,7,32
		c0.1-0.4,0.2-0.8,0.4-1.2c0,0,0.2-0.1,0.3-0.1c0,0,0.1,0.1,0.1,0.1C7.9,31.2,8,31.6,8.1,32z M7.4,31.5c0.1,0,0.2,0,0.2,0
		c0,0,0.1-0.1,0.1-0.1c0-0.2-0.1-0.3-0.1-0.5c0,0,0,0,0,0C7.5,31.1,7.4,31.2,7.4,31.5z"/>
	<path class="st0" d="M8.5,31.2C8.6,31.1,8.6,31.1,8.5,31.2c0.4-0.2,0.6-0.1,0.6,0.2c0,0.2,0,0.4,0,0.5c0,0-0.1,0.1-0.1,0.1
		c0,0-0.1-0.1-0.1-0.1c0-0.1,0-0.3,0-0.4c0-0.1,0-0.3-0.2-0.3c-0.2,0-0.2,0.1-0.2,0.2c0,0.1,0,0.2,0,0.4c0,0.1,0,0.1-0.1,0.1
		c-0.1,0-0.1,0-0.1-0.1c0-0.4,0-0.7,0-1.1c0-0.1,0-0.1,0.1-0.1c0.1,0,0.1,0,0.1,0.1C8.5,30.9,8.5,31,8.5,31.2z"/>
	<path class="st0" d="M20.8,31.7c0.1-0.3,0.2-0.6,0.3-0.9c0.1-0.2,0.1-0.2,0.3-0.2c-0.1,0.2-0.1,0.4-0.2,0.7
		c-0.1,0.2-0.1,0.4-0.2,0.5c0,0-0.1,0.1-0.1,0.1c-0.1,0-0.2,0.1-0.2-0.1c0,0,0-0.1,0-0.1c-0.1-0.4-0.2-0.7-0.3-1.1
		c0.2-0.1,0.3-0.1,0.3,0.2C20.6,31.2,20.7,31.4,20.8,31.7z"/>
	<path class="st0" d="M16.1,31.1c0,0,0.1-0.1,0.2-0.1c0.2,0,0.4,0.1,0.4,0.3c0,0.2,0,0.3,0,0.5c0,0.1-0.1,0.1-0.1,0.1
		c-0.1,0-0.1,0-0.1-0.1c0-0.1,0-0.2,0-0.4c0-0.1,0-0.3-0.2-0.3c-0.2,0-0.2,0.1-0.2,0.2c0,0.1,0,0.2,0,0.4c0,0.1,0,0.1-0.1,0.1
		c-0.1,0-0.1,0-0.1-0.1c0-0.2,0-0.4,0-0.6c0-0.1,0-0.2,0.1-0.2C15.9,31,16,31.1,16.1,31.1z"/>
	<path class="st0" d="M9.8,32c-0.3,0-0.5-0.2-0.5-0.5c0-0.3,0.2-0.5,0.5-0.5c0.3,0,0.5,0.2,0.5,0.5C10.3,31.8,10.1,32,9.8,32z
		 M9.6,31.5c0,0.1,0,0.1,0,0.2c0,0.1,0.1,0.1,0.2,0.1c0.1,0,0.1,0,0.2-0.1c0.1-0.1,0.1-0.3,0-0.4c0,0-0.1-0.1-0.2-0.1
		c-0.1,0-0.1,0.1-0.2,0.1C9.6,31.4,9.6,31.4,9.6,31.5z"/>
	<path class="st0" d="M28.6,32c-0.3,0-0.5-0.2-0.5-0.5c0-0.3,0.2-0.5,0.5-0.5c0.3,0,0.5,0.2,0.5,0.5C29.1,31.8,28.9,32,28.6,32z
		 M28.6,31.8c0.2,0,0.3-0.2,0.3-0.3c0-0.2-0.1-0.3-0.2-0.3c-0.1,0-0.2,0.1-0.2,0.3c0,0.1,0,0.2,0,0.2C28.5,31.8,28.5,31.8,28.6,31.8
		z"/>
	<path class="st0" d="M19.5,31.5c0,0.3-0.2,0.5-0.5,0.5c-0.3,0-0.5-0.2-0.5-0.5c0-0.3,0.2-0.5,0.5-0.5C19.3,31,19.5,31.2,19.5,31.5z
		 M18.8,31.5C18.8,31.5,18.8,31.5,18.8,31.5C18.8,31.6,18.8,31.6,18.8,31.5c0,0.2,0.1,0.3,0.2,0.3c0.1,0,0.2-0.1,0.2-0.2
		c0-0.1,0-0.2,0-0.3c0-0.1-0.1-0.1-0.2-0.1c-0.1,0-0.1,0.1-0.2,0.1C18.8,31.4,18.8,31.5,18.8,31.5z"/>
	<path class="st0" d="M12.3,31.3c-0.1-0.1-0.1-0.2-0.4-0.1c-0.1-0.1-0.1-0.1,0.1-0.2c0.3-0.1,0.5,0,0.6,0.2c0.1,0.2,0,0.5,0,0.7
		c0,0.1-0.2,0.1-0.2,0c-0.1,0-0.2,0.1-0.3,0.1c-0.1,0-0.2-0.1-0.3-0.2c0-0.1,0-0.3,0.1-0.3C12.1,31.4,12.2,31.4,12.3,31.3z
		 M12.3,31.5c-0.2,0-0.3,0-0.3,0.1c0,0.1,0.1,0.1,0.1,0.1C12.3,31.8,12.4,31.7,12.3,31.5z"/>
	<path class="st0" d="M26.9,31.6c0.1,0.2,0.2,0.3,0.4,0.2c0.1,0,0.2,0,0.2,0.1c0,0-0.1,0.1-0.1,0.1c-0.1,0-0.1,0-0.2,0
		c-0.3,0-0.5-0.2-0.5-0.5c0-0.3,0.2-0.4,0.5-0.4c0.2,0,0.4,0.3,0.4,0.5c0,0-0.1,0.1-0.1,0.1C27.2,31.6,27,31.6,26.9,31.6z
		 M27.2,31.4c0-0.1,0-0.2-0.2-0.2c-0.1,0-0.2,0.1-0.2,0.2C27,31.4,27.1,31.4,27.2,31.4z"/>
	<path class="st0" d="M17.1,31.6c0.1,0.2,0.2,0.3,0.4,0.2c0.1,0,0.1-0.1,0.2,0.1c0,0.1-0.1,0.1-0.1,0.1c-0.1,0-0.2,0-0.3,0
		c-0.2,0-0.4-0.2-0.4-0.4c0-0.2,0.1-0.5,0.3-0.5c0.2-0.1,0.4,0,0.5,0.2c0,0,0,0.1,0.1,0.1c0,0.2,0,0.2-0.2,0.2
		C17.4,31.6,17.2,31.6,17.1,31.6z M17.1,31.4c0.1,0,0.2,0,0.4,0c0-0.1,0-0.2-0.2-0.2C17.2,31.2,17.1,31.3,17.1,31.4z"/>
	<path class="st0" d="M23.1,31.6c0,0.2,0.2,0.2,0.4,0.2c0.1,0,0.1-0.1,0.2,0c0,0.1-0.1,0.1-0.2,0.1c-0.1,0-0.1,0-0.2,0
		c-0.2,0-0.3-0.1-0.4-0.3c-0.1-0.2,0-0.4,0.1-0.6c0.1-0.1,0.3-0.2,0.5-0.1c0.2,0,0.3,0.3,0.3,0.5c0,0-0.1,0.1-0.1,0.1
		C23.4,31.6,23.3,31.6,23.1,31.6z M23.5,31.4c0-0.1-0.1-0.2-0.2-0.2c-0.1,0-0.2,0.1-0.2,0.2C23.2,31.4,23.4,31.4,23.5,31.4z"/>
	<path class="st0" d="M22.8,31.1c-0.1,0.3-0.2,0.6-0.3,0.9c0,0.1-0.3,0.1-0.3,0c-0.1-0.3-0.2-0.6-0.3-0.9c0.3,0,0.3,0,0.3,0.2
		c0,0.1,0.1,0.3,0.2,0.5c0-0.2,0.1-0.3,0.1-0.5C22.5,31,22.5,31,22.8,31.1z"/>
	<path class="st0" d="M24.1,32c0,0-0.1,0-0.2,0c0,0,0-0.1-0.1-0.1c0,0,0.1-0.1,0.1-0.1c0.1,0,0.1,0,0.2,0c0,0,0.1,0,0.1-0.1
		c0,0,0-0.1-0.1-0.1c-0.1,0-0.1-0.1-0.2-0.1c-0.2-0.1-0.2-0.4,0-0.4c0.1,0,0.3,0,0.4,0c0,0,0,0.1,0.1,0.1c0,0-0.1,0.1-0.1,0.1
		c-0.1,0-0.2,0-0.2,0.1c0,0.1,0.1,0.1,0.2,0.2c0.1,0.1,0.2,0.2,0.2,0.3c0,0.2-0.1,0.2-0.3,0.2C24.2,32,24.2,32,24.1,32z"/>
	<path class="st0" d="M13.4,31.2c-0.1,0-0.1,0-0.2,0c0,0-0.1,0-0.1,0.1c0,0,0,0.1,0.1,0.1c0,0,0.1,0,0.2,0.1
		c0.1,0.1,0.2,0.2,0.2,0.3c0,0.1-0.1,0.2-0.3,0.2c-0.1,0-0.2,0-0.3,0c-0.1,0-0.1-0.1-0.1-0.2c0.1,0,0.2,0,0.3,0c0,0,0.1,0,0.1-0.1
		c0,0,0-0.1-0.1-0.1c-0.1,0-0.1,0-0.2-0.1c-0.1-0.1-0.1-0.2-0.1-0.2c0-0.1,0.1-0.2,0.2-0.2c0.1,0,0.2,0,0.3,0
		C13.4,31.1,13.4,31.1,13.4,31.2z"/>
	<path class="st0" d="M28,31.6c0,0.2,0,0.4-0.1,0.6c0,0.2-0.2,0.2-0.3,0.3c0,0-0.1,0-0.1-0.1c0,0,0-0.1,0-0.1
		c0.2-0.1,0.2-0.2,0.2-0.4c0-0.2,0-0.5,0-0.7c0-0.1,0-0.1,0.1-0.1c0.1,0,0.1,0,0.1,0.1C28,31.3,28,31.4,28,31.6
		C28,31.6,28,31.6,28,31.6z"/>
	<path class="st0" d="M29.5,31.2c0,0,0.1-0.1,0.1-0.1c0,0,0.1,0,0.1,0c0,0,0,0.1,0,0.1c0,0-0.1,0.1-0.1,0.1c-0.1,0-0.2,0.1-0.2,0.3
		c0,0.1,0,0.2,0,0.3c0,0.1,0,0.1-0.1,0.1c-0.1,0-0.1,0-0.1-0.1c0-0.2,0-0.5,0-0.7c0,0,0-0.1,0.1-0.1C29.4,31,29.5,31.1,29.5,31.2
		C29.5,31.2,29.5,31.2,29.5,31.2z"/>
	<path class="st0" d="M18.1,31.2c0.1-0.1,0.1-0.1,0.1-0.1c0,0,0.1,0,0.1,0c0,0,0,0.1,0,0.1c0,0-0.1,0.1-0.1,0.1
		c-0.1,0-0.2,0.1-0.2,0.3c0,0.1,0,0.2,0,0.3c0,0.1,0,0.1-0.1,0.1c-0.1,0-0.1,0-0.1-0.1c0-0.2,0-0.4,0-0.6c0-0.1,0-0.2,0.1-0.2
		C18.1,31,18.1,31.1,18.1,31.2z"/>
	<path class="st0" d="M11.4,31.2c0,0,0.1-0.1,0.1-0.1c0,0,0.1,0,0.1,0c0,0,0,0.1,0,0.1c0,0-0.1,0.1-0.1,0.1c-0.2,0-0.2,0.1-0.2,0.3
		c0,0.1,0,0.2,0,0.3c0,0.1,0,0.2-0.1,0.2c-0.1,0-0.1-0.1-0.1-0.2c0-0.2,0-0.4,0-0.6c0-0.1,0-0.1,0.1-0.1
		C11.3,31,11.4,31.1,11.4,31.2C11.4,31.2,11.4,31.2,11.4,31.2z"/>
	<path class="st0" d="M10.7,31.2c0.1-0.1,0.1-0.1,0.1-0.1c0,0,0.1,0,0.2,0c0,0,0,0.1,0,0.1c0,0-0.1,0.1-0.1,0.1
		c-0.1,0-0.2,0.1-0.2,0.3c0,0.1,0,0.2,0,0.3c0,0.1,0,0.1-0.1,0.1c-0.1,0-0.1,0-0.1-0.1c0-0.2,0-0.4,0-0.6c0-0.1,0-0.2,0.1-0.2
		C10.7,31,10.7,31.1,10.7,31.2z"/>
	<path class="st0" d="M15.6,31.5c0,0.1,0,0.2,0,0.4c0,0.1,0,0.1-0.1,0.1c-0.1,0-0.1,0-0.1-0.1c0-0.2,0-0.5,0-0.7
		c0-0.1,0.1-0.1,0.1-0.1c0.1,0,0.1,0,0.1,0.1C15.6,31.3,15.6,31.4,15.6,31.5z"/>
	<path class="st0" d="M21.7,31.5c0,0.1,0,0.2,0,0.3c0,0.1,0,0.1-0.1,0.1c-0.1,0-0.1,0-0.1-0.1c0-0.2,0-0.5,0-0.7
		c0-0.1,0.1-0.1,0.1-0.1c0.1,0,0.1,0,0.1,0.1C21.7,31.3,21.7,31.4,21.7,31.5z"/>
	<path class="st0" d="M19.9,31.9c-0.1,0-0.1,0.1-0.2,0.1c-0.1,0-0.1-0.1-0.2-0.1c0-0.1,0-0.2,0.1-0.1C19.8,31.7,19.8,31.8,19.9,31.9
		C19.9,31.8,19.9,31.8,19.9,31.9z"/>
	<path class="st0" d="M30,32.1c-0.1-0.1-0.1-0.2-0.1-0.2c0-0.1,0.1-0.1,0.1-0.1c0.1,0,0.2,0.1,0.2,0.2C30.1,31.9,30,32,30,32.1z"/>
	<path class="st0" d="M15.4,30.6c0.1,0.1,0.1,0.1,0.1,0.2c0,0-0.1,0.1-0.1,0.1c-0.1,0-0.1-0.1-0.1-0.1
		C15.3,30.7,15.4,30.7,15.4,30.6z"/>
	<path class="st0" d="M21.7,30.8c0,0-0.1,0.1-0.1,0.1c-0.1,0-0.1-0.1-0.1-0.1c0.1,0,0.1-0.1,0.2-0.1C21.6,30.6,21.7,30.7,21.7,30.8
		C21.7,30.8,21.7,30.8,21.7,30.8z"/>
	<path class="st0" d="M27.8,30.9c-0.1-0.1-0.1-0.2-0.1-0.2c0,0,0.1-0.1,0.1-0.1c0,0,0.1,0.1,0.1,0.1C28,30.8,27.9,30.9,27.8,30.9z"
		/>
</g>
<g>
	<g>
		<g>
			<g>
				<g>
					<g>
						<rect x="1.5" y="28.6" class="st3" width="3.7" height="3.5"/>
					</g>
					<rect x="3.2" y="28.8" class="st4" width="0.4" height="0.6"/>
					<rect x="3.2" y="30" class="st4" width="0.4" height="0.6"/>
					<rect x="3.2" y="31.1" class="st4" width="0.4" height="0.6"/>
				</g>
			</g>
			<g>
				<g>
					<g>
						<rect x="1.5" y="25.1" class="st3" width="3.7" height="3.5"/>
					</g>
					<rect x="3.2" y="25.3" class="st4" width="0.4" height="0.6"/>
					<rect x="3.2" y="26.5" class="st4" width="0.4" height="0.6"/>
					<rect x="3.2" y="27.7" class="st4" width="0.4" height="0.6"/>
				</g>
			</g>
			<g>
				<g>
					<g>
						<rect x="1.5" y="21.6" class="st3" width="3.7" height="3.5"/>
					</g>
					<rect x="3.2" y="21.9" class="st4" width="0.4" height="0.6"/>
					<rect x="3.2" y="23" class="st4" width="0.4" height="0.6"/>
					<rect x="3.2" y="24.2" class="st4" width="0.4" height="0.6"/>
				</g>
			</g>
			<g>
				<g>
					<g>
						<rect x="1.5" y="18.1" class="st3" width="3.7" height="3.5"/>
					</g>
					<rect x="3.2" y="18.4" class="st4" width="0.4" height="0.6"/>
					<rect x="3.2" y="19.5" class="st4" width="0.4" height="0.6"/>
					<rect x="3.2" y="20.7" class="st4" width="0.4" height="0.6"/>
				</g>
			</g>
			<g>
				<g>
					<g>
						<rect x="1.5" y="14.6" class="st3" width="3.7" height="3.5"/>
					</g>
					<rect x="3.2" y="14.9" class="st4" width="0.4" height="0.6"/>
					<rect x="3.2" y="16" class="st4" width="0.4" height="0.6"/>
					<rect x="3.2" y="17.2" class="st4" width="0.4" height="0.6"/>
				</g>
			</g>
			<g>
				<g>
					<g>
						<rect x="1.5" y="11.1" class="st3" width="3.7" height="3.5"/>
					</g>
					<rect x="3.2" y="11.4" class="st4" width="0.4" height="0.6"/>
					<rect x="3.2" y="12.5" class="st4" width="0.4" height="0.6"/>
					<rect x="3.2" y="13.7" class="st4" width="0.4" height="0.6"/>
				</g>
			</g>
			<g>
				<g>
					<g>
						<rect x="1.5" y="7.6" class="st3" width="3.7" height="3.5"/>
					</g>
					<rect x="3.2" y="7.9" class="st4" width="0.4" height="0.6"/>
					<rect x="3.2" y="9.1" class="st4" width="0.4" height="0.6"/>
					<rect x="3.2" y="10.2" class="st4" width="0.4" height="0.6"/>
				</g>
			</g>
			<g>
				<g>
					<g>
						<rect x="1.5" y="4.2" class="st3" width="3.7" height="3.5"/>
					</g>
					<rect x="3.2" y="4.4" class="st4" width="0.4" height="0.6"/>
					<rect x="3.2" y="5.6" class="st4" width="0.4" height="0.6"/>
					<rect x="3.2" y="6.7" class="st4" width="0.4" height="0.6"/>
				</g>
			</g>
			<g>
				<g>
					<g>
						<rect x="5.2" y="0.4" class="st3" width="3.3" height="3.7"/>
					</g>
					<rect x="7.7" y="2.1" class="st4" width="0.6" height="0.4"/>
					<rect x="6.6" y="2.1" class="st4" width="0.6" height="0.4"/>
					<rect x="5.5" y="2.1" class="st4" width="0.6" height="0.4"/>
				</g>
			</g>
			<g>
				<g>
					<g>
						<rect x="8.5" y="0.4" class="st3" width="3.3" height="3.7"/>
					</g>
					<rect x="11" y="2.1" class="st4" width="0.6" height="0.4"/>
					<rect x="9.9" y="2.1" class="st4" width="0.6" height="0.4"/>
					<rect x="8.8" y="2.1" class="st4" width="0.6" height="0.4"/>
				</g>
			</g>
			<g>
				<g>
					<g>
						<rect x="11.8" y="0.4" class="st3" width="3.3" height="3.7"/>
					</g>
					<rect x="14.3" y="2.1" class="st4" width="0.6" height="0.4"/>
					<rect x="13.2" y="2.1" class="st4" width="0.6" height="0.4"/>
					<rect x="12.1" y="2.1" class="st4" width="0.6" height="0.4"/>
				</g>
			</g>
			<g>
				<g>
					<g>
						<rect x="15.1" y="0.4" class="st3" width="3.3" height="3.7"/>
					</g>
					<rect x="17.6" y="2.1" class="st4" width="0.6" height="0.4"/>
					<rect x="16.5" y="2.1" class="st4" width="0.6" height="0.4"/>
					<rect x="15.4" y="2.1" class="st4" width="0.6" height="0.4"/>
				</g>
			</g>
			<g>
				<g>
					<g>
						<rect x="18.4" y="0.4" class="st3" width="3.3" height="3.7"/>
					</g>
					<rect x="20.9" y="2.1" class="st4" width="0.6" height="0.4"/>
					<rect x="19.8" y="2.1" class="st4" width="0.6" height="0.4"/>
					<rect x="18.7" y="2.1" class="st4" width="0.6" height="0.4"/>
				</g>
			</g>
			<g>
				<g>
					<g>
						<rect x="21.7" y="0.4" class="st3" width="3.3" height="3.7"/>
					</g>
					<rect x="24.2" y="2.1" class="st4" width="0.6" height="0.4"/>
					<rect x="23.1" y="2.1" class="st4" width="0.6" height="0.4"/>
					<rect x="22" y="2.1" class="st4" width="0.6" height="0.4"/>
				</g>
			</g>
			<g>
				<g>
					<g>
						<rect x="25" y="0.4" class="st3" width="3.3" height="3.7"/>
					</g>
					<rect x="27.5" y="2.1" class="st4" width="0.6" height="0.4"/>
					<rect x="26.4" y="2.1" class="st4" width="0.6" height="0.4"/>
					<rect x="25.3" y="2.1" class="st4" width="0.6" height="0.4"/>
				</g>
			</g>
			<g>
				<g>
					<g>
						<rect x="28.3" y="0.4" class="st3" width="3.3" height="3.7"/>
					</g>
					<rect x="30.8" y="2.1" class="st4" width="0.6" height="0.4"/>
					<rect x="29.7" y="2.1" class="st4" width="0.6" height="0.4"/>
					<rect x="28.6" y="2.1" class="st4" width="0.6" height="0.4"/>
				</g>
			</g>
			<g>
				<g>
					<g>
						<rect x="31.6" y="4.2" class="st3" width="3.7" height="3.5"/>
					</g>
					<rect x="33.3" y="6.7" class="st4" width="0.4" height="0.6"/>
					<rect x="33.3" y="5.6" class="st4" width="0.4" height="0.6"/>
					<rect x="33.3" y="4.4" class="st4" width="0.4" height="0.6"/>
				</g>
			</g>
			<g>
				<g>
					<g>
						<rect x="31.6" y="7.6" class="st3" width="3.7" height="3.5"/>
					</g>
					<rect x="33.3" y="10.2" class="st4" width="0.4" height="0.6"/>
					<rect x="33.3" y="9.1" class="st4" width="0.4" height="0.6"/>
					<rect x="33.3" y="7.9" class="st4" width="0.4" height="0.6"/>
				</g>
			</g>
			<g>
				<g>
					<g>
						<rect x="31.6" y="11.1" class="st3" width="3.7" height="3.5"/>
					</g>
					<rect x="33.3" y="13.7" class="st4" width="0.4" height="0.6"/>
					<rect x="33.3" y="12.6" class="st4" width="0.4" height="0.6"/>
					<rect x="33.3" y="11.4" class="st4" width="0.4" height="0.6"/>
				</g>
			</g>
			<g>
				<g>
					<g>
						<rect x="31.6" y="14.6" class="st3" width="3.7" height="3.5"/>
					</g>
					<rect x="33.3" y="17.2" class="st4" width="0.4" height="0.6"/>
					<rect x="33.3" y="16" class="st4" width="0.4" height="0.6"/>
					<rect x="33.3" y="14.9" class="st4" width="0.4" height="0.6"/>
				</g>
			</g>
			<g>
				<g>
					<g>
						<rect x="31.6" y="18.1" class="st3" width="3.7" height="3.5"/>
					</g>
					<rect x="33.3" y="20.7" class="st4" width="0.4" height="0.6"/>
					<rect x="33.3" y="19.5" class="st4" width="0.4" height="0.6"/>
					<rect x="33.3" y="18.4" class="st4" width="0.4" height="0.6"/>
				</g>
			</g>
			<g>
				<g>
					<g>
						<rect x="31.6" y="21.6" class="st3" width="3.7" height="3.5"/>
					</g>
					<rect x="33.3" y="24.2" class="st4" width="0.4" height="0.6"/>
					<rect x="33.3" y="23" class="st4" width="0.4" height="0.6"/>
					<rect x="33.3" y="21.9" class="st4" width="0.4" height="0.6"/>
				</g>
			</g>
			<g>
				<g>
					<g>
						<rect x="31.6" y="25.1" class="st3" width="3.7" height="3.5"/>
					</g>
					<rect x="33.3" y="27.7" class="st4" width="0.4" height="0.6"/>
					<rect x="33.3" y="26.5" class="st4" width="0.4" height="0.6"/>
					<rect x="33.3" y="25.3" class="st4" width="0.4" height="0.6"/>
				</g>
			</g>
			<g>
				<g>
					<g>
						<rect x="31.6" y="28.6" class="st3" width="3.7" height="3.5"/>
					</g>
					<rect x="33.3" y="31.2" class="st4" width="0.4" height="0.6"/>
					<rect x="33.3" y="30" class="st4" width="0.4" height="0.6"/>
					<rect x="33.3" y="28.8" class="st4" width="0.4" height="0.6"/>
				</g>
			</g>
			<g>
				<g>
					<g>
						<rect x="28.3" y="32.1" class="st3" width="3.3" height="3.7"/>
					</g>
					<rect x="28.6" y="33.7" class="st4" width="0.6" height="0.4"/>
					<rect x="29.7" y="33.7" class="st4" width="0.6" height="0.4"/>
					<rect x="30.8" y="33.7" class="st4" width="0.6" height="0.4"/>
				</g>
			</g>
			<g>
				<g>
					<g>
						<rect x="25" y="32.1" class="st3" width="3.3" height="3.7"/>
					</g>
					<rect x="25.3" y="33.7" class="st4" width="0.6" height="0.4"/>
					<rect x="26.4" y="33.7" class="st4" width="0.6" height="0.4"/>
					<rect x="27.5" y="33.7" class="st4" width="0.6" height="0.4"/>
				</g>
			</g>
			<g>
				<g>
					<g>
						<rect x="21.7" y="32.1" class="st3" width="3.3" height="3.7"/>
					</g>
					<rect x="22" y="33.7" class="st4" width="0.6" height="0.4"/>
					<rect x="23.1" y="33.7" class="st4" width="0.6" height="0.4"/>
					<rect x="24.2" y="33.7" class="st4" width="0.6" height="0.4"/>
				</g>
			</g>
			<g>
				<g>
					<g>
						<rect x="18.4" y="32.1" class="st3" width="3.3" height="3.7"/>
					</g>
					<rect x="18.7" y="33.7" class="st4" width="0.6" height="0.4"/>
					<rect x="19.8" y="33.7" class="st4" width="0.6" height="0.4"/>
					<rect x="20.9" y="33.7" class="st4" width="0.6" height="0.4"/>
				</g>
			</g>
			<g>
				<g>
					<g>
						<rect x="15.1" y="32.1" class="st3" width="3.3" height="3.7"/>
					</g>
					<rect x="15.4" y="33.7" class="st4" width="0.6" height="0.4"/>
					<rect x="16.5" y="33.7" class="st4" width="0.6" height="0.4"/>
					<rect x="17.6" y="33.7" class="st4" width="0.6" height="0.4"/>
				</g>
			</g>
			<g>
				<g>
					<g>
						<rect x="11.8" y="32.1" class="st3" width="3.3" height="3.7"/>
					</g>
					<rect x="12.1" y="33.7" class="st4" width="0.6" height="0.4"/>
					<rect x="13.2" y="33.7" class="st4" width="0.6" height="0.4"/>
					<rect x="14.3" y="33.7" class="st4" width="0.6" height="0.4"/>
				</g>
			</g>
			<g>
				<g>
					<g>
						<rect x="8.5" y="32.1" class="st3" width="3.3" height="3.7"/>
					</g>
					<rect x="8.8" y="33.7" class="st4" width="0.6" height="0.4"/>
					<rect x="9.9" y="33.7" class="st4" width="0.6" height="0.4"/>
					<rect x="11" y="33.7" class="st4" width="0.6" height="0.4"/>
				</g>
			</g>
			<g>
				<g>
					<g>
						<rect x="5.2" y="32.1" class="st3" width="3.3" height="3.7"/>
					</g>
					<rect x="5.5" y="33.7" class="st4" width="0.6" height="0.4"/>
					<rect x="6.6" y="33.7" class="st4" width="0.6" height="0.4"/>
					<rect x="7.7" y="33.7" class="st4" width="0.6" height="0.4"/>
				</g>
			</g>
			<g>
				<rect x="3.2" y="3.3" class="st4" width="0.4" height="0.6"/>
				<polygon class="st4" points="3.2,2.1 3.2,2.8 3.6,2.8 3.6,2.5 3.8,2.5 3.8,2.1 				"/>
				<rect x="4.3" y="2.1" class="st4" width="0.6" height="0.4"/>
			</g>
			<g>
				<rect x="31.9" y="2.1" class="st4" width="0.6" height="0.4"/>
				<polygon class="st4" points="33.6,2.1 33,2.1 33,2.5 33.3,2.5 33.3,2.7 33.6,2.7 				"/>
				<rect x="33.3" y="3.2" class="st4" width="0.4" height="0.6"/>
			</g>
			<g>
				<rect x="33.3" y="32.3" class="st4" width="0.4" height="0.6"/>
				<polygon class="st4" points="33.7,34.1 33.7,33.4 33.3,33.4 33.3,33.7 33,33.7 33,34.1 				"/>
				<rect x="31.9" y="33.7" class="st4" width="0.6" height="0.4"/>
			</g>
			<g>
				<rect x="4.4" y="33.7" class="st4" width="0.6" height="0.4"/>
				<polygon class="st4" points="3.2,34.1 3.9,34.1 3.9,33.7 3.6,33.7 3.6,33.5 3.2,33.5 				"/>
				<rect x="3.2" y="32.3" class="st4" width="0.4" height="0.6"/>
			</g>
		</g>
	</g>
</g>
</svg>
