<?xml version="1.0" encoding="utf-8"?>
<!-- Generator: Adobe Illustrator 24.0.0, SVG Export Plug-In . SVG Version: 6.00 Build 0)  -->
<svg version="1.1" id="Capa_1" xmlns="http://www.w3.org/2000/svg" xmlns:xlink="http://www.w3.org/1999/xlink" x="0px" y="0px"
	 viewBox="0 0 43.9 46.4" style="enable-background:new 0 0 43.9 46.4;" xml:space="preserve">
<style type="text/css">
	.st0{fill:#0079C5;}
	.st1{fill:#C1C1C1;}
	.st2{fill:#FFBC00;}
	.st3{fill:none;}
	.st4{fill-rule:evenodd;clip-rule:evenodd;fill:#1D1D1B;}
</style>
<g>
	<path class="st0" d="M14.3,36.7c0-0.1,0.1-0.3,0.1-0.4c0.2-1,0.4-2.1,0.6-3.1c0.1-0.5,0.1-0.5,0.6-0.5c0.2,0,0.3,0,0.5,0
		c-0.1,0.3-0.2,0.6-0.2,0.9c-0.4,1.4-0.7,2.7-1.1,4.1c0,0.1-0.1,0.2-0.3,0.2c-0.2,0-0.3,0-0.5,0c-0.2,0-0.4-0.2-0.5-0.4
		c-0.1-0.2-0.1-0.3-0.2-0.5c-0.2-0.9-0.4-1.8-0.6-2.7c0-0.1,0-0.2-0.1-0.4c0,0,0,0-0.1,0c0,0.1,0,0.1-0.1,0.2
		c-0.2,0.9-0.4,1.7-0.6,2.6c-0.1,0.3-0.2,0.7-0.2,1c0,0.1-0.1,0.2-0.2,0.2c0,0-0.1,0-0.1,0c-0.6,0.1-0.9-0.1-1-0.7
		c-0.3-1.1-0.6-2.2-0.8-3.4c-0.1-0.4-0.2-0.8-0.3-1.2c0.4,0,0.7,0,1.1,0c0,0,0.1,0.1,0.1,0.2c0.1,0.6,0.2,1.2,0.3,1.8
		c0.1,0.7,0.3,1.4,0.4,2c0,0,0,0.1,0.1,0.1c0.1-0.3,0.1-0.5,0.2-0.7c0.2-1.1,0.5-2.1,0.7-3.2c0-0.1,0.1-0.2,0.2-0.2
		c0.3,0,0.5,0,0.8,0c0.1,0,0.2,0,0.2,0.2c0.1,0.5,0.2,1,0.3,1.6c0.1,0.7,0.3,1.5,0.4,2.2C14.2,36.6,14.2,36.6,14.3,36.7
		C14.2,36.7,14.3,36.7,14.3,36.7z"/>
	<path class="st0" d="M23.1,34.5c0.3-0.4,0.7-0.6,1.2-0.6c0.5,0,0.9,0.3,1.1,0.7c0.1-0.1,0.1-0.1,0.2-0.2c0.5-0.6,1.5-0.7,2-0.2
		c0.1,0.2,0.3,0.4,0.3,0.6c0.1,0.3,0.1,0.5,0.1,0.8c0,0.7,0,1.4,0,2c0,0.2-0.1,0.2-0.2,0.2c-0.2,0-0.4,0-0.6,0
		c-0.2,0-0.2-0.1-0.2-0.2c0-0.6,0-1.2,0-1.8c0-0.2,0-0.4-0.1-0.6c-0.1-0.4-0.4-0.5-0.7-0.5c-0.3,0-0.6,0.3-0.6,0.7
		c0,0.8,0,1.5,0,2.3c0,0.2,0,0.2-0.2,0.2c-0.2,0-0.4,0-0.7,0c-0.1,0-0.2,0-0.2-0.2c0-0.7,0-1.4,0-2.2c0-0.1,0-0.2,0-0.3
		c-0.1-0.4-0.3-0.6-0.7-0.6c-0.3,0-0.6,0.3-0.7,0.6c0,0.1,0,0.3,0,0.4c0,0.6,0,1.3,0,1.9c0,0.2,0,0.2-0.2,0.2c-0.2,0-0.4,0-0.7,0
		c-0.1,0-0.2,0-0.2-0.2c0-1.2,0-2.4,0-3.6c0-0.1,0-0.1,0.1-0.1c0.2,0,0.4,0,0.7,0c0.1,0,0.1,0,0.1,0.1C23,34.2,23,34.3,23.1,34.5
		C23,34.5,23,34.5,23.1,34.5z"/>
	<path class="st0" d="M16.5,34.8c-0.1-0.2-0.1-0.4-0.2-0.5c0-0.1,0.1-0.2,0.1-0.2c0.3-0.1,0.5-0.2,0.8-0.2c0.6-0.1,1.1-0.1,1.6,0.3
		c0.3,0.2,0.5,0.6,0.5,0.9c0,0.7,0,1.4,0,2.1c0,0.2,0,0.4,0,0.6c0,0.1,0,0.2-0.2,0.2c-0.4,0.1-0.6,0-0.8-0.4c0,0,0,0-0.1-0.1
		c-0.1,0.1-0.1,0.1-0.2,0.1c-0.5,0.4-1.3,0.5-1.8,0.1c-0.7-0.5-0.6-1.6,0.1-2c0.5-0.3,1-0.4,1.6-0.4c0.2,0,0.2,0,0.2-0.2
		c-0.1-0.3-0.2-0.4-0.5-0.5c-0.4-0.1-0.8,0-1.2,0.2C16.6,34.8,16.6,34.8,16.5,34.8z M18.4,36.3c0-0.1,0-0.2,0-0.2
		c0-0.1-0.1-0.1-0.1-0.1c-0.3,0-0.7,0-1,0.2c-0.2,0.2-0.3,0.5-0.2,0.7c0.1,0.2,0.3,0.4,0.6,0.3C18.2,37.2,18.4,36.9,18.4,36.3z"/>
	<path class="st0" d="M28.9,34.9c-0.1-0.2-0.1-0.4-0.2-0.6c0,0,0.1-0.1,0.1-0.1c0.3-0.1,0.5-0.2,0.8-0.2c0.6-0.1,1.1-0.1,1.6,0.3
		c0.4,0.3,0.5,0.7,0.5,1.1c0,0.6,0,1.1,0,1.7c0,0.3,0,0.5,0,0.8c0,0.1,0,0.2-0.2,0.2c-0.4,0.1-0.6-0.1-0.8-0.4c0,0,0,0-0.1-0.1
		c-0.1,0.1-0.1,0.1-0.2,0.2c-0.6,0.5-1.6,0.5-2-0.1c-0.3-0.5-0.3-1.2,0.2-1.6c0.2-0.2,0.5-0.4,0.8-0.4c0.3-0.1,0.7-0.1,1-0.1
		c0.2,0,0.2-0.1,0.2-0.2c0-0.2-0.2-0.4-0.5-0.5c-0.4-0.1-0.9,0-1.3,0.2C29,34.8,29,34.8,28.9,34.9z M30.9,36.3c0-0.1,0-0.1,0-0.2
		c0-0.1-0.1-0.1-0.1-0.1c-0.3,0-0.7,0-1,0.2c-0.2,0.1-0.3,0.5-0.2,0.7c0.1,0.2,0.3,0.4,0.6,0.3C30.5,37.2,30.9,36.9,30.9,36.3z"/>
	<path class="st0" d="M35.5,34.8c0-0.6,0-1.3,0-1.9c0-0.2,0-0.2,0.2-0.2c0.2,0,0.4,0,0.6,0c0.1,0,0.2,0,0.2,0.2c0,0.3,0,0.6,0,0.9
		c0,0.1,0.1,0.2,0.2,0.2c0.2,0,0.4,0,0.6,0c0.1,0,0.2,0,0.2,0.2c0,0.2,0,0.4,0,0.7c0,0.1-0.1,0.2-0.2,0.2c-0.2,0-0.4,0-0.6,0
		c-0.1,0-0.2,0.1-0.2,0.1c0,0.6,0,1.1,0,1.7c0,0.4,0.3,0.5,0.7,0.5c0.2,0,0.2,0,0.2,0.2c0,0,0,0.1,0,0.1c0,0.6,0.1,0.5-0.5,0.6
		c-0.1,0-0.3,0-0.4,0c-0.7-0.1-1-0.5-1-1.3C35.5,36.1,35.5,35.4,35.5,34.8z"/>
	<path class="st0" d="M20.2,35.2c0-0.8,0-1.6,0-2.4c0-0.2,0.1-0.2,0.2-0.2c0.2,0,0.4,0,0.6,0c0.1,0,0.2,0,0.2,0.2c0,1.6,0,3.3,0,4.9
		c0,0.1,0,0.2-0.2,0.2c-0.2,0-0.5,0-0.7,0c-0.1,0-0.2-0.1-0.2-0.2C20.2,36.9,20.2,36.1,20.2,35.2z"/>
	<path class="st0" d="M32.6,37.9c0-0.5,0-1,0-1.4c0-0.8,0-1.5,0-2.3c0-0.2,0-0.2,0.2-0.2c0.2,0,0.4,0,0.5,0c0.1,0,0.2,0,0.2,0.2
		c0,0.2,0,0.4,0,0.5c0,0,0,0,0.1,0c0-0.1,0.1-0.1,0.1-0.2c0.2-0.4,0.5-0.7,1-0.7c0.1,0,0.2,0,0.2,0.2c0,0.3,0,0.5,0,0.8
		c-0.1,0-0.1,0-0.2,0c-0.7,0-1.1,0.3-1.1,1c0,0.6,0,1.2,0,1.8c0,0.2,0,0.2-0.2,0.2C33.2,37.9,33,37.9,32.6,37.9z"/>
</g>
<path class="st1" d="M41.4,42c-0.5,0-1,0-1.4,0c-0.8,0-1.5,0-2.3,0c-0.2,0-0.2,0-0.2-0.2c0-0.2,0-0.4,0-0.5c0-0.1,0-0.2,0.2-0.2
	c0.2,0,0.4,0,0.5,0c0,0,0,0,0-0.1c-0.1,0-0.1-0.1-0.2-0.1c-0.4-0.2-0.7-0.5-0.7-1c0-0.1,0-0.2,0.2-0.2c0.3,0,0.5,0,0.8,0
	c0,0.1,0,0.1,0,0.2c0,0.7,0.3,1.1,1,1.1c0.6,0,1.2,0,1.8,0c0.2,0,0.2,0,0.2,0.2C41.4,41.4,41.4,41.7,41.4,42z"/>
<path class="st1" d="M26.4,42.6c-0.5,0-1,0-1.4,0c-0.8,0-1.5,0-2.3,0c-0.2,0-0.2,0-0.2-0.2c0-0.2,0-0.4,0-0.5c0-0.1,0-0.2,0.2-0.2
	c0.2,0,0.4,0,0.5,0c0,0,0,0,0-0.1c-0.1,0-0.1-0.1-0.2-0.1c-0.4-0.2-0.7-0.5-0.7-1c0-0.1,0-0.2,0.2-0.2c0.3,0,0.5,0,0.8,0
	c0,0.1,0,0.1,0,0.2c0,0.7,0.3,1.1,1,1.1c0.6,0,1.2,0,1.8,0c0.2,0,0.2,0,0.2,0.2C26.4,42,26.4,42.3,26.4,42.6z"/>
<path class="st1" d="M9.3,33.7c-0.5,0-1,0-1.4,0c-0.8,0-1.5,0-2.3,0c-0.2,0-0.2,0-0.2-0.2c0-0.2,0-0.4,0-0.5c0-0.1,0-0.2,0.2-0.2
	c0.2,0,0.4,0,0.5,0c0,0,0,0,0-0.1c-0.1,0-0.1-0.1-0.2-0.1c-0.4-0.2-0.7-0.5-0.6-1c0-0.1,0-0.2,0.2-0.2c0.3,0,0.5,0,0.8,0
	c0,0.1,0,0.1,0,0.2c0,0.7,0.3,1.1,1,1.1c0.6,0,1.2,0,1.8,0c0.2,0,0.2,0,0.2,0.2C9.3,33.1,9.3,33.4,9.3,33.7z"/>
<path class="st1" d="M25.4,6.9c-0.5,0-1,0-1.4,0c-0.8,0-1.5,0-2.3,0c-0.2,0-0.2,0-0.2-0.2c0-0.2,0-0.4,0-0.5c0-0.1,0-0.2,0.2-0.2
	c0.2,0,0.4,0,0.5,0c0,0,0,0,0-0.1c-0.1,0-0.1-0.1-0.2-0.1c-0.4-0.2-0.7-0.5-0.6-1c0-0.1,0-0.2,0.2-0.2c0.3,0,0.5,0,0.8,0
	c0,0.1,0,0.1,0,0.2c0,0.7,0.3,1.1,1,1.1c0.6,0,1.2,0,1.8,0c0.2,0,0.2,0,0.2,0.2C25.4,6.3,25.4,6.6,25.4,6.9z"/>
<g>
	<path class="st2" d="M24.6,14.1l0.5-5.9c0-0.5-0.2-0.9-0.6-1.1c-0.5-0.3-1.2-0.5-2.1,0c-0.4,0.2-0.6,0.7-0.6,1.1l0.6,5.9
		c0,0.4,0.2,0.7,0.6,0.9c0.3,0.2,0.7,0.2,1.2-0.1C24.4,14.8,24.6,14.5,24.6,14.1z"/>
	<path class="st2" d="M24.5,24.7l0.5,5.9c0,0.5-0.2,0.9-0.6,1.1c-0.5,0.3-1.2,0.5-2.1,0c-0.4-0.2-0.6-0.7-0.6-1.1l0.6-5.9
		c0-0.4,0.2-0.7,0.6-0.9c0.3-0.2,0.7-0.2,1.2,0.1C24.3,24,24.5,24.3,24.5,24.7z"/>
	<path class="st2" d="M19.4,23l-4.9,3.3c-0.4,0.3-0.9,0.3-1.3,0c-0.5-0.3-1-0.9-1-1.8c0-0.5,0.3-0.9,0.7-1l5.5-2.4
		c0.4-0.2,0.8-0.1,1.1,0.1c0.3,0.2,0.5,0.5,0.4,1C19.9,22.6,19.7,22.9,19.4,23z"/>
	<path class="st2" d="M28.6,17.8l5.3-2.7c0.4-0.2,0.7-0.6,0.6-1.1c0-0.6-0.3-1.3-1.1-1.7c-0.4-0.2-0.9-0.2-1.3,0.1L27.4,16
		c-0.3,0.2-0.5,0.6-0.5,1c0,0.3,0.2,0.6,0.7,0.9C28,18,28.3,18,28.6,17.8z"/>
	<path class="st2" d="M19.4,15.8l-4.9-3.2c-0.4-0.3-0.9-0.3-1.3,0c-0.5,0.3-1,0.9-1,1.8c0,0.5,0.3,0.9,0.7,1l5.5,2.3
		c0.4,0.2,0.8,0.1,1.1-0.1c0.3-0.2,0.5-0.5,0.4-1C19.9,16.2,19.7,15.9,19.4,15.8z"/>
	<path class="st2" d="M27.4,22.8l4.7,3.5c0.4,0.3,0.9,0.3,1.3,0.1c0.5-0.3,1-0.8,1.1-1.8c0-0.5-0.2-0.9-0.7-1.1l-5.3-2.7
		c-0.4-0.2-0.8-0.2-1.1,0c-0.3,0.2-0.5,0.5-0.5,1C27,22.3,27.2,22.6,27.4,22.8z"/>
</g>
<g>
	<path class="st0" d="M31.5,39c0,0.3,0,0.7-0.1,1c0,0.1,0,0.2-0.2,0.2c-0.1,0-0.1-0.1-0.1-0.2c0-0.4,0.1-0.9,0.1-1.3
		c0,0,0-0.1,0.1-0.1c0.2-0.1,0.4,0,0.4,0.2c0.1,0.2,0.1,0.5,0.2,0.7c0,0,0,0.1,0.1,0.2c0.1-0.3,0.2-0.6,0.3-0.9
		c0.1-0.2,0.1-0.2,0.4-0.2c0.2,0,0.1,0.2,0.1,0.2c0,0.4,0.1,0.7,0.1,1.1c0,0.1,0,0.2-0.1,0.2c-0.2,0-0.2-0.1-0.2-0.2
		c0-0.3,0-0.7-0.1-1c-0.1,0.3-0.2,0.6-0.3,0.9c0,0,0,0.1,0,0.1c0,0-0.1,0.1-0.2,0.1c-0.1,0-0.1-0.1-0.2-0.1
		c-0.1-0.3-0.2-0.6-0.2-0.9C31.6,39.1,31.5,39,31.5,39C31.5,38.9,31.5,39,31.5,39z"/>
	<path class="st0" d="M17.9,39.4c0-0.2,0-0.4,0-0.6c0-0.1,0.1-0.2,0.1-0.2c0.3,0,0.5,0,0.8,0c0.3,0.1,0.5,0.3,0.5,0.6
		c0,0.4-0.1,0.7-0.4,0.8c-0.3,0.1-0.6,0.1-0.8,0.1c0,0-0.1-0.1-0.1-0.1C17.9,39.8,17.9,39.6,17.9,39.4z M18.2,39.4
		C18.2,39.4,18.2,39.4,18.2,39.4c0,0.1,0,0.3,0,0.4c0,0.1,0,0.1,0.1,0.2c0.2,0,0.4-0.1,0.5-0.3c0.1-0.2,0.1-0.5,0-0.7
		c-0.1-0.1-0.4-0.2-0.5-0.1c-0.1,0-0.1,0.2-0.1,0.3C18.2,39.2,18.2,39.3,18.2,39.4z"/>
	<path class="st0" d="M10.9,40.1c-0.3,0.1-0.3,0.1-0.4-0.2c0-0.2-0.2-0.2-0.3-0.2c-0.2,0-0.3,0-0.3,0.2c-0.1,0.3-0.1,0.3-0.4,0.2
		c0.1-0.5,0.3-1,0.4-1.4c0-0.1,0.2-0.1,0.3-0.1c0.1,0,0.1,0.1,0.2,0.1C10.6,39.2,10.8,39.6,10.9,40.1z M10,39.5c0.1,0,0.2,0,0.3,0
		c0,0,0.1-0.1,0.1-0.1c0-0.2-0.1-0.4-0.2-0.6c0,0,0,0,0,0C10.1,39.1,10.1,39.3,10,39.5z"/>
	<path class="st0" d="M11.4,39.2c0.1,0,0.1-0.1,0.1-0.1c0.3-0.2,0.6-0.1,0.6,0.3c0,0.2,0,0.4,0,0.6c0,0-0.1,0.1-0.2,0.1
		c-0.1,0-0.1-0.1-0.2-0.1c0-0.2,0-0.3,0-0.5c0-0.1,0-0.3-0.2-0.3c-0.2,0-0.2,0.1-0.2,0.3c0,0.1,0,0.3,0,0.4c0,0.1,0,0.1-0.2,0.1
		c-0.1,0-0.2,0-0.2-0.2c0-0.4,0-0.9,0-1.3c0-0.1,0.1-0.2,0.2-0.2c0.1,0,0.2,0,0.2,0.1C11.4,38.8,11.4,39,11.4,39.2z"/>
	<path class="st0" d="M26.1,39.9c0.1-0.4,0.2-0.7,0.3-1c0.1-0.3,0.1-0.3,0.4-0.2c-0.1,0.3-0.2,0.5-0.3,0.8c-0.1,0.2-0.1,0.4-0.2,0.6
		c0,0.1-0.1,0.1-0.2,0.1c-0.1,0-0.2,0.1-0.3-0.1c0,0,0-0.1,0-0.1c-0.1-0.4-0.3-0.9-0.4-1.3c0.3-0.1,0.3-0.1,0.4,0.2
		C25.9,39.2,26,39.5,26.1,39.9z"/>
	<path class="st0" d="M20.5,39.1c0,0,0.1-0.1,0.2-0.1c0.3-0.1,0.5,0.1,0.5,0.4c0,0.2,0,0.4,0,0.6c0,0.1-0.1,0.1-0.2,0.1
		c-0.1,0-0.2,0-0.2-0.1c0-0.1,0-0.3,0-0.4c0-0.1,0-0.3-0.2-0.3c-0.2,0-0.2,0.1-0.2,0.3c0,0.1,0,0.3,0,0.4c0,0.1,0,0.1-0.1,0.1
		c-0.1,0-0.2,0-0.2-0.1c0-0.3,0-0.5,0-0.8c0-0.1,0-0.2,0.1-0.2C20.2,39,20.3,39.1,20.5,39.1z"/>
	<path class="st0" d="M12.9,40.2c-0.4,0-0.6-0.3-0.6-0.6c0-0.3,0.2-0.6,0.6-0.6c0.4,0,0.6,0.2,0.6,0.6
		C13.5,39.9,13.3,40.2,12.9,40.2z M12.7,39.6c0,0.1,0,0.2,0,0.2c0,0.1,0.1,0.2,0.2,0.2c0.1,0,0.2,0,0.2-0.1c0.1-0.2,0.1-0.3,0-0.5
		c0-0.1-0.1-0.1-0.2-0.1c-0.1,0-0.2,0.1-0.2,0.1C12.7,39.4,12.7,39.5,12.7,39.6z"/>
	<path class="st0" d="M35.5,40.2c-0.4,0-0.6-0.2-0.6-0.6c0-0.4,0.2-0.6,0.6-0.6c0.3,0,0.6,0.2,0.6,0.6C36,39.9,35.8,40.2,35.5,40.2z
		 M35.4,40c0.2,0,0.3-0.2,0.3-0.4c0-0.2-0.1-0.3-0.3-0.3c-0.1,0-0.3,0.1-0.3,0.3c0,0.1,0,0.2,0.1,0.3C35.3,39.9,35.4,39.9,35.4,40z"
		/>
	<path class="st0" d="M24.5,39.6c0,0.4-0.2,0.6-0.6,0.6c-0.4,0-0.6-0.2-0.6-0.6c0-0.4,0.2-0.6,0.6-0.6C24.3,39,24.5,39.2,24.5,39.6z
		 M23.7,39.6C23.7,39.6,23.7,39.6,23.7,39.6c0,0,0,0.1,0,0.1c0,0.1,0.1,0.2,0.2,0.2c0.1,0,0.2-0.1,0.2-0.2c0-0.1,0-0.3,0-0.4
		c0-0.1-0.1-0.1-0.2-0.1c-0.1,0-0.2,0.1-0.2,0.1C23.7,39.4,23.7,39.5,23.7,39.6z"/>
	<path class="st0" d="M15.9,39.4c-0.1-0.2-0.2-0.2-0.5-0.1c-0.1-0.1-0.1-0.2,0.1-0.2c0.3-0.1,0.7,0,0.7,0.2c0.1,0.3,0.1,0.6,0.1,0.8
		c0,0.1-0.2,0.1-0.3,0c-0.1,0-0.2,0.1-0.4,0.1c-0.2,0-0.3-0.1-0.3-0.2c0-0.2,0-0.3,0.1-0.4C15.6,39.5,15.8,39.4,15.9,39.4z
		 M15.9,39.6c-0.2,0-0.4,0-0.4,0.2c0,0.1,0.1,0.1,0.2,0.1C15.9,40,16,39.9,15.9,39.6z"/>
	<path class="st0" d="M33.4,39.7c0.1,0.2,0.2,0.3,0.5,0.3c0.1,0,0.2-0.1,0.2,0.1c0,0-0.1,0.1-0.2,0.1c-0.1,0-0.1,0-0.2,0
		c-0.4,0-0.6-0.2-0.6-0.6c0-0.3,0.3-0.5,0.6-0.5c0.3,0,0.5,0.3,0.4,0.6c0,0-0.1,0.1-0.2,0.1C33.8,39.7,33.6,39.7,33.4,39.7z
		 M33.8,39.5c0-0.2,0-0.3-0.2-0.3c-0.2,0-0.2,0.1-0.2,0.3C33.5,39.5,33.6,39.5,33.8,39.5z"/>
	<path class="st0" d="M21.7,39.7c0.1,0.2,0.2,0.3,0.5,0.3c0.1,0,0.2-0.1,0.2,0.1c0,0.1-0.1,0.1-0.2,0.1c-0.1,0-0.2,0-0.3,0
		c-0.2,0-0.4-0.2-0.4-0.5c0-0.3,0.2-0.5,0.4-0.6c0.2-0.1,0.5,0,0.6,0.2c0,0,0.1,0.1,0.1,0.2c0.1,0.2,0,0.3-0.2,0.3
		C22,39.7,21.8,39.7,21.7,39.7z M21.7,39.5c0.1,0,0.3,0,0.4,0c0-0.2-0.1-0.3-0.2-0.3C21.7,39.2,21.7,39.3,21.7,39.5z"/>
	<path class="st0" d="M28.9,39.7c0,0.2,0.2,0.3,0.5,0.3c0.1,0,0.2-0.1,0.2,0.1c0,0.1-0.1,0.1-0.2,0.1c-0.1,0-0.2,0-0.3,0
		c-0.2,0-0.4-0.1-0.5-0.3c-0.1-0.2,0-0.5,0.1-0.7c0.2-0.2,0.4-0.2,0.6-0.1c0.2,0.1,0.4,0.3,0.3,0.5c0,0-0.1,0.1-0.2,0.1
		C29.3,39.7,29.1,39.7,28.9,39.7z M29.3,39.5c0-0.2-0.1-0.3-0.2-0.3c-0.2,0-0.2,0.1-0.2,0.3C29,39.5,29.2,39.5,29.3,39.5z"/>
	<path class="st0" d="M28.5,39c-0.1,0.4-0.3,0.7-0.4,1c0,0.1-0.3,0.1-0.4,0c-0.1-0.3-0.3-0.7-0.4-1c0.3-0.1,0.3-0.1,0.4,0.2
		c0.1,0.2,0.1,0.4,0.2,0.5c0.1-0.2,0.1-0.4,0.2-0.5C28.2,39,28.2,39,28.5,39z"/>
	<path class="st0" d="M30.1,40.2c-0.1,0-0.1,0-0.2,0c0,0-0.1-0.1-0.1-0.1c0,0,0.1-0.1,0.1-0.1c0.1,0,0.2,0,0.2,0c0,0,0.1,0,0.1-0.1
		c0,0,0-0.1-0.1-0.1c-0.1,0-0.2-0.1-0.2-0.1c-0.2-0.1-0.2-0.4,0-0.5c0.1-0.1,0.3,0,0.5,0c0,0,0.1,0.1,0.1,0.1c0,0-0.1,0.1-0.1,0.1
		c-0.1,0-0.3,0-0.3,0.1c0,0.2,0.1,0.2,0.2,0.2c0.2,0.1,0.3,0.2,0.2,0.4c0,0.2-0.2,0.3-0.3,0.3C30.2,40.2,30.1,40.2,30.1,40.2z"/>
	<path class="st0" d="M17.2,39.2c-0.1,0-0.2,0-0.3,0c0,0-0.1,0-0.1,0.1c0,0,0,0.1,0.1,0.1c0.1,0,0.1,0.1,0.2,0.1
		c0.2,0.1,0.2,0.2,0.2,0.4c0,0.2-0.2,0.2-0.3,0.3c-0.1,0-0.2,0-0.3,0c-0.2,0-0.2-0.1-0.1-0.2c0.1,0,0.2,0,0.3,0c0,0,0.1,0,0.1-0.1
		c0,0,0-0.1-0.1-0.1c-0.1,0-0.2-0.1-0.2-0.1c-0.1-0.1-0.2-0.2-0.2-0.3c0-0.1,0.1-0.2,0.2-0.3c0.1-0.1,0.3,0,0.4,0
		C17.3,39.1,17.2,39.2,17.2,39.2z"/>
	<path class="st0" d="M34.7,39.7c0,0.2,0,0.5-0.1,0.7c0,0.2-0.2,0.3-0.4,0.3c0,0-0.1,0-0.1-0.1c0-0.1,0-0.1,0-0.2
		c0.2-0.1,0.2-0.3,0.2-0.4c0-0.3,0-0.5,0-0.8c0-0.1,0-0.2,0.2-0.2c0.1,0,0.2,0,0.2,0.2C34.7,39.3,34.7,39.5,34.7,39.7
		C34.7,39.7,34.7,39.7,34.7,39.7z"/>
	<path class="st0" d="M36.5,39.2c0-0.1,0.1-0.1,0.1-0.1c0.1,0,0.1-0.1,0.2,0c0,0,0.1,0.1,0,0.1c0,0-0.1,0.1-0.1,0.1
		c-0.2,0-0.2,0.2-0.2,0.3c0,0.1,0,0.3,0,0.4c0,0.1,0,0.2-0.2,0.2c-0.1,0-0.2,0-0.2-0.2c0-0.3,0-0.5,0-0.8c0-0.1,0.1-0.1,0.1-0.2
		C36.4,39,36.5,39,36.5,39.2C36.5,39.2,36.5,39.2,36.5,39.2z"/>
	<path class="st0" d="M22.9,39.3c0.1-0.1,0.1-0.1,0.2-0.2c0,0,0.1,0,0.2,0c0,0,0,0.1,0,0.2c0,0-0.1,0.1-0.1,0.1
		c-0.2,0-0.2,0.2-0.2,0.3c0,0.1,0,0.3,0,0.4c0,0.1-0.1,0.1-0.2,0.1c-0.1,0-0.2,0-0.2-0.2c0-0.3,0-0.5,0-0.8c0-0.1-0.1-0.2,0.1-0.2
		C22.9,39,22.9,39.1,22.9,39.3z"/>
	<path class="st0" d="M14.8,39.2c0.1,0,0.1-0.1,0.2-0.1c0,0,0.1,0,0.2,0c0,0,0,0.1,0,0.2c0,0-0.1,0.1-0.1,0.1
		c-0.2,0-0.3,0.1-0.2,0.3c0,0.1,0,0.2,0,0.4c0,0.1,0,0.2-0.2,0.2c-0.2,0-0.2-0.1-0.2-0.2c0-0.3,0-0.5,0-0.8c0-0.1,0-0.2,0.1-0.2
		C14.8,39,14.8,39.1,14.8,39.2C14.8,39.2,14.8,39.2,14.8,39.2z"/>
	<path class="st0" d="M14,39.3c0.1-0.1,0.1-0.1,0.1-0.2c0.1,0,0.1,0,0.2-0.1c0,0.1,0.1,0.1,0,0.2c0,0-0.1,0.1-0.1,0.1
		c-0.2,0-0.2,0.2-0.2,0.3c0,0.1,0,0.3,0,0.4c0,0.1,0,0.2-0.1,0.2c-0.1,0-0.2,0-0.2-0.2c0-0.3,0-0.5,0-0.8c0-0.1-0.1-0.2,0.1-0.2
		C14,39,14,39.1,14,39.3z"/>
	<path class="st0" d="M19.8,39.6c0,0.1,0,0.3,0,0.4c0,0.1-0.1,0.1-0.2,0.1c-0.1,0-0.2,0-0.2-0.1c0-0.3,0-0.6,0-0.9
		c0-0.1,0.1-0.1,0.2-0.1c0.1,0,0.2,0,0.2,0.1C19.8,39.3,19.8,39.5,19.8,39.6z"/>
	<path class="st0" d="M27.2,39.6c0,0.1,0,0.3,0,0.4c0,0.1-0.1,0.1-0.2,0.1c-0.1,0-0.2,0-0.2-0.1c0-0.3,0-0.6,0-0.9
		c0-0.1,0.1-0.1,0.2-0.1c0.1,0,0.2,0,0.2,0.1C27.2,39.3,27.2,39.5,27.2,39.6z"/>
	<path class="st0" d="M25,40c-0.1,0-0.1,0.1-0.2,0.1c-0.1,0-0.2-0.1-0.2-0.2c0-0.1,0.1-0.2,0.2-0.2C24.9,39.8,24.9,39.9,25,40
		C25,40,25,40,25,40z"/>
	<path class="st0" d="M37.1,40.3c-0.1-0.1-0.2-0.2-0.2-0.3c0-0.1,0.1-0.2,0.2-0.2c0.1,0,0.2,0.1,0.2,0.2
		C37.3,40.1,37.2,40.1,37.1,40.3z"/>
	<path class="st0" d="M19.7,38.5c0.1,0.1,0.2,0.2,0.2,0.2c0,0-0.1,0.1-0.1,0.1c-0.1,0-0.1-0.1-0.2-0.1
		C19.5,38.6,19.6,38.6,19.7,38.5z"/>
	<path class="st0" d="M27.2,38.7c-0.1,0-0.1,0.1-0.2,0.1c-0.1,0-0.1-0.1-0.2-0.1c0.1,0,0.1-0.1,0.2-0.1
		C27.1,38.5,27.2,38.6,27.2,38.7C27.2,38.7,27.2,38.7,27.2,38.7z"/>
	<path class="st0" d="M34.5,38.9c-0.1-0.1-0.1-0.2-0.1-0.2c0,0,0.1-0.1,0.2-0.1c0.1,0,0.1,0.1,0.1,0.1
		C34.7,38.7,34.6,38.8,34.5,38.9z"/>
</g>
<g>
	<g>
		<g>
			<g>
				<g>
					<g>
						<rect x="3.3" y="37.2" class="st3" width="3.7" height="3.4"/>
					</g>
					<rect x="5.1" y="37.5" class="st4" width="0.4" height="0.6"/>
					<rect x="5.1" y="38.6" class="st4" width="0.4" height="0.6"/>
					<rect x="5.1" y="39.7" class="st4" width="0.4" height="0.6"/>
				</g>
			</g>
			<g>
				<g>
					<g>
						<rect x="3.3" y="33.8" class="st3" width="3.7" height="3.4"/>
					</g>
					<rect x="5.1" y="34" class="st4" width="0.4" height="0.6"/>
					<rect x="5.1" y="35.2" class="st4" width="0.4" height="0.6"/>
					<rect x="5.1" y="36.3" class="st4" width="0.4" height="0.6"/>
				</g>
			</g>
			<g>
				<g>
					<g>
						<rect x="3.3" y="30.4" class="st3" width="3.7" height="3.4"/>
					</g>
					<rect x="5.1" y="30.6" class="st4" width="0.4" height="0.6"/>
					<rect x="5.1" y="31.8" class="st4" width="0.4" height="0.6"/>
					<rect x="5.1" y="32.9" class="st4" width="0.4" height="0.6"/>
				</g>
			</g>
			<g>
				<g>
					<g>
						<rect x="3.3" y="26.9" class="st3" width="3.7" height="3.4"/>
					</g>
					<rect x="5.1" y="27.2" class="st4" width="0.4" height="0.6"/>
					<rect x="5.1" y="28.3" class="st4" width="0.4" height="0.6"/>
					<rect x="5.1" y="29.5" class="st4" width="0.4" height="0.6"/>
				</g>
			</g>
			<g>
				<g>
					<g>
						<rect x="3.3" y="23.5" class="st3" width="3.7" height="3.4"/>
					</g>
					<rect x="5.1" y="23.8" class="st4" width="0.4" height="0.6"/>
					<rect x="5.1" y="24.9" class="st4" width="0.4" height="0.6"/>
					<rect x="5.1" y="26.1" class="st4" width="0.4" height="0.6"/>
				</g>
			</g>
			<g>
				<g>
					<g>
						<rect x="3.3" y="20.1" class="st3" width="3.7" height="3.4"/>
					</g>
					<rect x="5.1" y="20.4" class="st4" width="0.4" height="0.6"/>
					<rect x="5.1" y="21.5" class="st4" width="0.4" height="0.6"/>
					<rect x="5.1" y="22.6" class="st4" width="0.4" height="0.6"/>
				</g>
			</g>
			<g>
				<g>
					<g>
						<rect x="3.3" y="16.7" class="st3" width="3.7" height="3.4"/>
					</g>
					<rect x="5.1" y="16.9" class="st4" width="0.4" height="0.6"/>
					<rect x="5.1" y="18.1" class="st4" width="0.4" height="0.6"/>
					<rect x="5.1" y="19.2" class="st4" width="0.4" height="0.6"/>
				</g>
			</g>
			<g>
				<g>
					<g>
						<rect x="3.3" y="13.3" class="st3" width="3.7" height="3.4"/>
					</g>
					<rect x="5.1" y="13.5" class="st4" width="0.4" height="0.6"/>
					<rect x="5.1" y="14.7" class="st4" width="0.4" height="0.6"/>
					<rect x="5.1" y="15.8" class="st4" width="0.4" height="0.6"/>
				</g>
			</g>
			<g>
				<g>
					<g>
						<rect x="3.3" y="9.8" class="st3" width="3.7" height="3.4"/>
					</g>
					<rect x="5.1" y="10.1" class="st4" width="0.4" height="0.6"/>
					<rect x="5.1" y="11.2" class="st4" width="0.4" height="0.6"/>
					<rect x="5.1" y="12.4" class="st4" width="0.4" height="0.6"/>
				</g>
			</g>
			<g>
				<g>
					<g>
						<rect x="3.3" y="6.4" class="st3" width="3.7" height="3.4"/>
					</g>
					<rect x="5.1" y="6.7" class="st4" width="0.4" height="0.6"/>
					<rect x="5.1" y="7.8" class="st4" width="0.4" height="0.6"/>
					<rect x="5.1" y="9" class="st4" width="0.4" height="0.6"/>
				</g>
			</g>
			<g>
				<g>
					<g>
						<rect x="7.1" y="2.7" class="st3" width="3.2" height="3.7"/>
					</g>
					<rect x="9.5" y="4.4" class="st4" width="0.6" height="0.4"/>
					<rect x="8.4" y="4.4" class="st4" width="0.6" height="0.4"/>
					<rect x="7.3" y="4.4" class="st4" width="0.6" height="0.4"/>
				</g>
			</g>
			<g>
				<g>
					<g>
						<rect x="10.3" y="2.7" class="st3" width="3.2" height="3.7"/>
					</g>
					<rect x="12.7" y="4.4" class="st4" width="0.6" height="0.4"/>
					<rect x="11.6" y="4.4" class="st4" width="0.6" height="0.4"/>
					<rect x="10.6" y="4.4" class="st4" width="0.6" height="0.4"/>
				</g>
			</g>
			<g>
				<g>
					<g>
						<rect x="13.6" y="2.7" class="st3" width="3.2" height="3.7"/>
					</g>
					<rect x="15.9" y="4.4" class="st4" width="0.6" height="0.4"/>
					<rect x="14.9" y="4.4" class="st4" width="0.6" height="0.4"/>
					<rect x="13.8" y="4.4" class="st4" width="0.6" height="0.4"/>
				</g>
			</g>
			<g>
				<g>
					<g>
						<rect x="16.8" y="2.7" class="st3" width="3.2" height="3.7"/>
					</g>
					<rect x="19.2" y="4.4" class="st4" width="0.6" height="0.4"/>
					<rect x="18.1" y="4.4" class="st4" width="0.6" height="0.4"/>
					<rect x="17" y="4.4" class="st4" width="0.6" height="0.4"/>
				</g>
			</g>
			<g>
				<g>
					<g>
						<rect x="20" y="2.7" class="st3" width="3.2" height="3.7"/>
					</g>
					<rect x="22.4" y="4.4" class="st4" width="0.6" height="0.4"/>
					<rect x="21.3" y="4.4" class="st4" width="0.6" height="0.4"/>
					<rect x="20.3" y="4.4" class="st4" width="0.6" height="0.4"/>
				</g>
			</g>
			<g>
				<g>
					<g>
						<rect x="23.3" y="2.7" class="st3" width="3.2" height="3.7"/>
					</g>
					<rect x="25.7" y="4.4" class="st4" width="0.6" height="0.4"/>
					<rect x="24.6" y="4.4" class="st4" width="0.6" height="0.4"/>
					<rect x="23.5" y="4.4" class="st4" width="0.6" height="0.4"/>
				</g>
			</g>
			<g>
				<g>
					<g>
						<rect x="26.5" y="2.7" class="st3" width="3.2" height="3.7"/>
					</g>
					<rect x="28.9" y="4.4" class="st4" width="0.6" height="0.4"/>
					<rect x="27.8" y="4.4" class="st4" width="0.6" height="0.4"/>
					<rect x="26.7" y="4.4" class="st4" width="0.6" height="0.4"/>
				</g>
			</g>
			<g>
				<g>
					<g>
						<rect x="29.7" y="2.7" class="st3" width="3.2" height="3.7"/>
					</g>
					<rect x="32.1" y="4.4" class="st4" width="0.6" height="0.4"/>
					<rect x="31.1" y="4.4" class="st4" width="0.6" height="0.4"/>
					<rect x="30" y="4.4" class="st4" width="0.6" height="0.4"/>
				</g>
			</g>
			<g>
				<g>
					<g>
						<rect x="33" y="2.7" class="st3" width="3.2" height="3.7"/>
					</g>
					<rect x="35.4" y="4.4" class="st4" width="0.6" height="0.4"/>
					<rect x="34.3" y="4.4" class="st4" width="0.6" height="0.4"/>
					<rect x="33.2" y="4.4" class="st4" width="0.6" height="0.4"/>
				</g>
			</g>
			<g>
				<g>
					<g>
						<rect x="36.2" y="2.7" class="st3" width="3.2" height="3.7"/>
					</g>
					<rect x="38.6" y="4.4" class="st4" width="0.6" height="0.4"/>
					<rect x="37.5" y="4.4" class="st4" width="0.6" height="0.4"/>
					<rect x="36.5" y="4.4" class="st4" width="0.6" height="0.4"/>
				</g>
			</g>
			<g>
				<g>
					<g>
						<rect x="39.5" y="6.4" class="st3" width="3.7" height="3.4"/>
					</g>
					<rect x="41.1" y="9" class="st4" width="0.4" height="0.6"/>
					<rect x="41.1" y="7.8" class="st4" width="0.4" height="0.6"/>
					<rect x="41.1" y="6.7" class="st4" width="0.4" height="0.6"/>
				</g>
			</g>
			<g>
				<g>
					<g>
						<rect x="39.5" y="9.8" class="st3" width="3.7" height="3.4"/>
					</g>
					<rect x="41.1" y="12.4" class="st4" width="0.4" height="0.6"/>
					<rect x="41.1" y="11.2" class="st4" width="0.4" height="0.6"/>
					<rect x="41.1" y="10.1" class="st4" width="0.4" height="0.6"/>
				</g>
			</g>
			<g>
				<g>
					<g>
						<rect x="39.5" y="13.3" class="st3" width="3.7" height="3.4"/>
					</g>
					<rect x="41.1" y="15.8" class="st4" width="0.4" height="0.6"/>
					<rect x="41.1" y="14.7" class="st4" width="0.4" height="0.6"/>
					<rect x="41.1" y="13.5" class="st4" width="0.4" height="0.6"/>
				</g>
			</g>
			<g>
				<g>
					<g>
						<rect x="39.5" y="16.7" class="st3" width="3.7" height="3.4"/>
					</g>
					<rect x="41.1" y="19.2" class="st4" width="0.4" height="0.6"/>
					<rect x="41.1" y="18.1" class="st4" width="0.4" height="0.6"/>
					<rect x="41.1" y="16.9" class="st4" width="0.4" height="0.6"/>
				</g>
			</g>
			<g>
				<g>
					<g>
						<rect x="39.5" y="20.1" class="st3" width="3.7" height="3.4"/>
					</g>
					<rect x="41.1" y="22.6" class="st4" width="0.4" height="0.6"/>
					<rect x="41.1" y="21.5" class="st4" width="0.4" height="0.6"/>
					<rect x="41.1" y="20.4" class="st4" width="0.4" height="0.6"/>
				</g>
			</g>
			<g>
				<g>
					<g>
						<rect x="39.5" y="23.5" class="st3" width="3.7" height="3.4"/>
					</g>
					<rect x="41.1" y="26.1" class="st4" width="0.4" height="0.6"/>
					<rect x="41.1" y="24.9" class="st4" width="0.4" height="0.6"/>
					<rect x="41.1" y="23.8" class="st4" width="0.4" height="0.6"/>
				</g>
			</g>
			<g>
				<g>
					<g>
						<rect x="39.5" y="26.9" class="st3" width="3.7" height="3.4"/>
					</g>
					<rect x="41.1" y="29.5" class="st4" width="0.4" height="0.6"/>
					<rect x="41.1" y="28.3" class="st4" width="0.4" height="0.6"/>
					<rect x="41.1" y="27.2" class="st4" width="0.4" height="0.6"/>
				</g>
			</g>
			<g>
				<g>
					<g>
						<rect x="39.5" y="30.4" class="st3" width="3.7" height="3.4"/>
					</g>
					<rect x="41.1" y="32.9" class="st4" width="0.4" height="0.6"/>
					<rect x="41.1" y="31.8" class="st4" width="0.4" height="0.6"/>
					<rect x="41.1" y="30.6" class="st4" width="0.4" height="0.6"/>
				</g>
			</g>
			<g>
				<g>
					<g>
						<rect x="39.5" y="33.8" class="st3" width="3.7" height="3.4"/>
					</g>
					<rect x="41.1" y="36.3" class="st4" width="0.4" height="0.6"/>
					<rect x="41.1" y="35.2" class="st4" width="0.4" height="0.6"/>
					<rect x="41.1" y="34" class="st4" width="0.4" height="0.6"/>
				</g>
			</g>
			<g>
				<g>
					<g>
						<rect x="39.5" y="37.2" class="st3" width="3.7" height="3.4"/>
					</g>
					<rect x="41.1" y="39.7" class="st4" width="0.4" height="0.6"/>
					<rect x="41.1" y="38.6" class="st4" width="0.4" height="0.6"/>
					<rect x="41.1" y="37.5" class="st4" width="0.4" height="0.6"/>
				</g>
			</g>
			<g>
				<g>
					<g>
						<rect x="36.2" y="40.6" class="st3" width="3.2" height="3.7"/>
					</g>
					<rect x="36.5" y="42.3" class="st4" width="0.6" height="0.4"/>
					<rect x="37.5" y="42.3" class="st4" width="0.6" height="0.4"/>
					<rect x="38.6" y="42.3" class="st4" width="0.6" height="0.4"/>
				</g>
			</g>
			<g>
				<g>
					<g>
						<rect x="33" y="40.6" class="st3" width="3.2" height="3.7"/>
					</g>
					<rect x="33.2" y="42.3" class="st4" width="0.6" height="0.4"/>
					<rect x="34.3" y="42.3" class="st4" width="0.6" height="0.4"/>
					<rect x="35.4" y="42.3" class="st4" width="0.6" height="0.4"/>
				</g>
			</g>
			<g>
				<g>
					<g>
						<rect x="29.7" y="40.6" class="st3" width="3.2" height="3.7"/>
					</g>
					<rect x="30" y="42.3" class="st4" width="0.6" height="0.4"/>
					<rect x="31.1" y="42.3" class="st4" width="0.6" height="0.4"/>
					<rect x="32.1" y="42.3" class="st4" width="0.6" height="0.4"/>
				</g>
			</g>
			<g>
				<g>
					<g>
						<rect x="26.5" y="40.6" class="st3" width="3.2" height="3.7"/>
					</g>
					<rect x="26.7" y="42.3" class="st4" width="0.6" height="0.4"/>
					<rect x="27.8" y="42.3" class="st4" width="0.6" height="0.4"/>
					<rect x="28.9" y="42.3" class="st4" width="0.6" height="0.4"/>
				</g>
			</g>
			<g>
				<g>
					<g>
						<rect x="23.3" y="40.6" class="st3" width="3.2" height="3.7"/>
					</g>
					<rect x="23.5" y="42.3" class="st4" width="0.6" height="0.4"/>
					<rect x="24.6" y="42.3" class="st4" width="0.6" height="0.4"/>
					<rect x="25.7" y="42.3" class="st4" width="0.6" height="0.4"/>
				</g>
			</g>
			<g>
				<g>
					<g>
						<rect x="20" y="40.6" class="st3" width="3.2" height="3.7"/>
					</g>
					<rect x="20.3" y="42.3" class="st4" width="0.6" height="0.4"/>
					<rect x="21.3" y="42.3" class="st4" width="0.6" height="0.4"/>
					<rect x="22.4" y="42.3" class="st4" width="0.6" height="0.4"/>
				</g>
			</g>
			<g>
				<g>
					<g>
						<rect x="16.8" y="40.6" class="st3" width="3.2" height="3.7"/>
					</g>
					<rect x="17" y="42.3" class="st4" width="0.6" height="0.4"/>
					<rect x="18.1" y="42.3" class="st4" width="0.6" height="0.4"/>
					<rect x="19.2" y="42.3" class="st4" width="0.6" height="0.4"/>
				</g>
			</g>
			<g>
				<g>
					<g>
						<rect x="13.6" y="40.6" class="st3" width="3.2" height="3.7"/>
					</g>
					<rect x="13.8" y="42.3" class="st4" width="0.6" height="0.4"/>
					<rect x="14.9" y="42.3" class="st4" width="0.6" height="0.4"/>
					<rect x="15.9" y="42.3" class="st4" width="0.6" height="0.4"/>
				</g>
			</g>
			<g>
				<g>
					<g>
						<rect x="10.3" y="40.6" class="st3" width="3.2" height="3.7"/>
					</g>
					<rect x="10.6" y="42.3" class="st4" width="0.6" height="0.4"/>
					<rect x="11.6" y="42.3" class="st4" width="0.6" height="0.4"/>
					<rect x="12.7" y="42.3" class="st4" width="0.6" height="0.4"/>
				</g>
			</g>
			<g>
				<g>
					<g>
						<rect x="7.1" y="40.6" class="st3" width="3.2" height="3.7"/>
					</g>
					<rect x="7.3" y="42.3" class="st4" width="0.6" height="0.4"/>
					<rect x="8.4" y="42.3" class="st4" width="0.6" height="0.4"/>
					<rect x="9.5" y="42.3" class="st4" width="0.6" height="0.4"/>
				</g>
			</g>
			<g>
				<rect x="5" y="5.5" class="st4" width="0.4" height="0.6"/>
				<polygon class="st4" points="5,4.4 5,5 5.4,5 5.4,4.8 5.7,4.8 5.7,4.4 				"/>
				<rect x="6.2" y="4.4" class="st4" width="0.6" height="0.4"/>
			</g>
			<g>
				<rect x="39.7" y="4.4" class="st4" width="0.6" height="0.4"/>
				<polygon class="st4" points="41.5,4.4 40.8,4.4 40.8,4.8 41.1,4.8 41.1,5 41.5,5 				"/>
				<rect x="41.1" y="5.5" class="st4" width="0.4" height="0.6"/>
			</g>
			<g>
				<rect x="41.1" y="40.9" class="st4" width="0.4" height="0.6"/>
				<polygon class="st4" points="41.5,42.6 41.5,42 41.1,42 41.1,42.3 40.9,42.3 40.9,42.6 				"/>
				<rect x="39.7" y="42.3" class="st4" width="0.6" height="0.4"/>
			</g>
			<g>
				<rect x="6.2" y="42.3" class="st4" width="0.6" height="0.4"/>
				<polygon class="st4" points="5.1,42.7 5.7,42.7 5.7,42.3 5.4,42.3 5.4,42 5.1,42 				"/>
				<rect x="5.1" y="40.9" class="st4" width="0.4" height="0.6"/>
			</g>
		</g>
	</g>
</g>
</svg>
